<svg width="245" height="150" viewBox="0 0 245 150" fill="none" xmlns="http://www.w3.org/2000/svg">
<g filter="url(#filter0_d_993_6969)">
<path d="M33.3788 91.2867C33.3788 86.7511 37.0556 83.0742 41.5912 83.0742H202.555C207.091 83.0742 210.768 86.7511 210.768 91.2867V124.862C210.768 129.397 207.091 133.074 202.555 133.074H41.5912C37.0556 133.074 33.3788 129.397 33.3788 124.862V91.2867Z" fill="white"/>
<circle cx="51.4474" cy="107.709" r="9.03369" fill="#C7C7C7"/>
<rect x="63.7662" y="94.5703" width="31.2073" height="4.92747" rx="2.46373" fill="#C7C7C7"/>
<rect x="63.7662" y="102.781" width="90.3369" height="4.92747" rx="2.46373" fill="#C7C7C7"/>
<rect x="63.7662" y="110.996" width="90.3369" height="3.28498" rx="1.64249" fill="#E4E1E1"/>
<rect x="63.7662" y="117.566" width="59.9509" height="3.28498" rx="1.64249" fill="#E4E1E1"/>
<line x1="162.563" y1="88.8242" x2="162.563" y2="128.244" stroke="#DBDBDB" stroke-width="0.492747"/>
<path d="M171.143 97.3156C171.054 97.2641 170.943 97.2641 170.854 97.3156L169.496 98.1056C169.286 98.228 169.026 98.0469 169.082 97.8168L169.442 96.3361C169.465 96.2399 169.431 96.1392 169.354 96.0743L168.158 95.0753C167.973 94.9205 168.073 94.6282 168.317 94.6083L169.893 94.4799C169.995 94.4715 170.084 94.4094 170.125 94.3185L170.743 92.924C170.839 92.7076 171.159 92.7076 171.255 92.924L171.873 94.3185C171.913 94.4094 172.002 94.4715 172.105 94.4799L173.68 94.6083C173.925 94.6282 174.025 94.9205 173.839 95.0753L172.644 96.0743C172.566 96.1392 172.532 96.2399 172.556 96.3361L172.916 97.8169C172.972 98.047 172.712 98.2281 172.501 98.1057L171.143 97.3156Z" fill="#FFCE27"/>
<path d="M177.994 97.3156C177.906 97.2641 177.795 97.2641 177.706 97.3156L176.348 98.1056C176.137 98.228 175.877 98.0469 175.933 97.8168L176.293 96.3361C176.317 96.2399 176.283 96.1392 176.205 96.0743L175.01 95.0753C174.825 94.9205 174.924 94.6282 175.169 94.6083L176.744 94.4799C176.847 94.4715 176.936 94.4094 176.976 94.3185L177.595 92.924C177.691 92.7076 178.01 92.7076 178.106 92.924L178.724 94.3185C178.765 94.4094 178.854 94.4715 178.957 94.4799L180.532 94.6083C180.777 94.6282 180.876 94.9205 180.691 95.0753L179.496 96.0743C179.418 96.1392 179.384 96.2399 179.407 96.3361L179.768 97.8169C179.823 98.047 179.563 98.2281 179.353 98.1057L177.994 97.3156Z" fill="#FFCE27"/>
<path d="M184.846 97.3156C184.757 97.2641 184.646 97.2641 184.558 97.3156L183.2 98.1056C182.989 98.228 182.729 98.0469 182.785 97.8168L183.145 96.3361C183.168 96.2399 183.134 96.1392 183.057 96.0743L181.861 95.0753C181.676 94.9205 181.776 94.6282 182.02 94.6083L183.596 94.4799C183.698 94.4715 183.788 94.4094 183.828 94.3185L184.446 92.924C184.542 92.7076 184.862 92.7076 184.958 92.924L185.576 94.3185C185.616 94.4094 185.706 94.4715 185.808 94.4799L187.383 94.6083C187.628 94.6282 187.728 94.9205 187.543 95.0753L186.347 96.0743C186.27 96.1392 186.236 96.2399 186.259 96.3361L186.619 97.8169C186.675 98.047 186.415 98.2281 186.204 98.1057L184.846 97.3156Z" fill="#FFCE27"/>
<path d="M191.698 97.3156C191.609 97.2641 191.498 97.2641 191.409 97.3156L190.051 98.1056C189.841 98.228 189.581 98.0469 189.637 97.8168L189.997 96.3361C190.02 96.2399 189.986 96.1392 189.908 96.0743L188.713 95.0753C188.528 94.9205 188.627 94.6282 188.872 94.6083L190.447 94.4799C190.55 94.4715 190.639 94.4094 190.68 94.3185L191.298 92.924C191.394 92.7076 191.714 92.7076 191.809 92.924L192.428 94.3185C192.468 94.4094 192.557 94.4715 192.66 94.4799L194.235 94.6083C194.48 94.6282 194.579 94.9205 194.394 95.0753L193.199 96.0743C193.121 96.1392 193.087 96.2399 193.111 96.3361L193.471 97.8169C193.527 98.047 193.267 98.2281 193.056 98.1057L191.698 97.3156Z" fill="#FFCE27"/>
<rect x="166.422" y="104.426" width="27.9223" height="1.52999" rx="0.764995" fill="#E4E1E1"/>
<rect x="166.422" y="110.848" width="27.9223" height="1.52999" rx="0.764995" fill="#E4E1E1"/>
<rect x="166.422" y="107.711" width="13.1399" height="1.49467" rx="0.747333" fill="#E4E1E1"/>
<rect x="166.422" y="114.281" width="13.1399" height="1.49467" rx="0.747333" fill="#E4E1E1"/>
<rect x="166.422" y="117.566" width="27.9223" height="1.64249" rx="0.821245" fill="#E4E1E1"/>
</g>
<g filter="url(#filter1_d_993_6969)">
<path d="M19.0741 28.6112C19.0741 23.3441 23.344 19.0742 28.6111 19.0742H215.537C220.804 19.0742 225.074 23.3441 225.074 28.6113V67.6016C225.074 72.8687 220.804 77.1386 215.537 77.1386H28.6111C23.344 77.1386 19.0741 72.8687 19.0741 67.6016V28.6112Z" fill="white"/>
<circle cx="40.0551" cy="47.6861" r="10.4907" fill="#A0B58C"/>
<rect x="54.3606" y="32.4258" width="36.2407" height="5.72222" rx="2.86111" fill="#A0B58C"/>
<rect x="54.3605" y="41.9648" width="104.907" height="5.72222" rx="2.86111" fill="#A0B58C"/>
<rect x="54.3605" y="51.5" width="104.907" height="3.81481" rx="1.90741" fill="#E4E1E1"/>
<rect x="54.3605" y="59.1289" width="69.6204" height="3.81481" rx="1.90741" fill="#E4E1E1"/>
<line x1="169.093" y1="25.75" x2="169.093" y2="71.5278" stroke="#DBDBDB" stroke-width="0.572222"/>
<path d="M179.057 35.6126C178.955 35.5528 178.826 35.5528 178.723 35.6126L177.146 36.53C176.901 36.6722 176.599 36.4618 176.664 36.1947L177.082 34.4751C177.109 34.3634 177.07 34.2464 176.98 34.1711L175.592 33.0109C175.377 32.8312 175.492 32.4918 175.776 32.4686L177.606 32.3195C177.725 32.3098 177.829 32.2377 177.875 32.1321L178.593 30.5127C178.705 30.2614 179.076 30.2614 179.187 30.5127L179.905 32.1321C179.952 32.2377 180.056 32.3098 180.175 32.3195L182.004 32.4686C182.289 32.4918 182.404 32.8312 182.189 33.0109L180.801 34.1711C180.711 34.2464 180.671 34.3634 180.699 34.4751L181.117 36.1948C181.182 36.4619 180.88 36.6723 180.635 36.5301L179.057 35.6126Z" fill="#FFCE27"/>
<path d="M187.014 35.6126C186.911 35.5528 186.782 35.5528 186.68 35.6126L185.102 36.53C184.858 36.6722 184.556 36.4618 184.621 36.1947L185.039 34.4751C185.066 34.3634 185.027 34.2464 184.937 34.1711L183.548 33.0109C183.333 32.8312 183.449 32.4918 183.733 32.4686L185.562 32.3195C185.682 32.3098 185.785 32.2377 185.832 32.1321L186.55 30.5127C186.662 30.2614 187.033 30.2614 187.144 30.5127L187.862 32.1321C187.909 32.2377 188.013 32.3098 188.132 32.3195L189.961 32.4686C190.245 32.4918 190.361 32.8312 190.146 33.0109L188.758 34.1711C188.668 34.2464 188.628 34.3634 188.655 34.4751L189.074 36.1948C189.138 36.4619 188.836 36.6723 188.592 36.5301L187.014 35.6126Z" fill="#FFCE27"/>
<path d="M194.971 35.6126C194.868 35.5528 194.739 35.5528 194.636 35.6126L193.059 36.53C192.815 36.6722 192.512 36.4618 192.577 36.1947L192.995 34.4751C193.023 34.3634 192.983 34.2464 192.893 34.1711L191.505 33.0109C191.29 32.8312 191.406 32.4918 191.69 32.4686L193.519 32.3195C193.638 32.3098 193.742 32.2377 193.789 32.1321L194.507 30.5127C194.618 30.2614 194.989 30.2614 195.101 30.5127L195.819 32.1321C195.865 32.2377 195.969 32.3098 196.088 32.3195L197.918 32.4686C198.202 32.4918 198.317 32.8312 198.102 33.0109L196.714 34.1711C196.624 34.2464 196.585 34.3634 196.612 34.4751L197.03 36.1948C197.095 36.4619 196.793 36.6723 196.548 36.5301L194.971 35.6126Z" fill="#FFCE27"/>
<path d="M202.927 35.6126C202.825 35.5528 202.696 35.5528 202.593 35.6126L201.016 36.53C200.771 36.6722 200.469 36.4618 200.534 36.1947L200.952 34.4751C200.979 34.3634 200.94 34.2464 200.85 34.1711L199.462 33.0109C199.247 32.8312 199.362 32.4918 199.646 32.4686L201.476 32.3195C201.595 32.3098 201.699 32.2377 201.746 32.1321L202.463 30.5127C202.575 30.2614 202.946 30.2614 203.058 30.5127L203.775 32.1321C203.822 32.2377 203.926 32.3098 204.045 32.3195L205.875 32.4686C206.159 32.4918 206.274 32.8312 206.059 33.0109L204.671 34.1711C204.581 34.2464 204.542 34.3634 204.569 34.4751L204.987 36.1948C205.052 36.4619 204.75 36.6723 204.505 36.5301L202.927 35.6126Z" fill="#FFCE27"/>
<rect x="173.574" y="43.8711" width="32.4259" height="1.77676" rx="0.888382" fill="#E4E1E1"/>
<rect x="173.574" y="47.6836" width="32.4259" height="1.77676" rx="0.888382" fill="#E4E1E1"/>
<rect x="173.574" y="51.5" width="15.2593" height="1.73574" rx="0.86787" fill="#E4E1E1"/>
<rect x="173.574" y="55.3164" width="15.2593" height="1.73574" rx="0.86787" fill="#E4E1E1"/>
<rect x="173.574" y="59.1289" width="32.4259" height="1.90741" rx="0.953704" fill="#E4E1E1"/>
</g>
<defs>
<filter id="filter0_d_993_6969" x="16.9539" y="66.6493" width="210.239" height="82.8498" filterUnits="userSpaceOnUse" color-interpolation-filters="sRGB">
<feFlood flood-opacity="0" result="BackgroundImageFix"/>
<feColorMatrix in="SourceAlpha" type="matrix" values="0 0 0 0 0 0 0 0 0 0 0 0 0 0 0 0 0 0 127 0" result="hardAlpha"/>
<feOffset/>
<feGaussianBlur stdDeviation="8.21245"/>
<feComposite in2="hardAlpha" operator="out"/>
<feColorMatrix type="matrix" values="0 0 0 0 0 0 0 0 0 0 0 0 0 0 0 0 0 0 0.1 0"/>
<feBlend mode="normal" in2="BackgroundImageFix" result="effect1_dropShadow_993_6969"/>
<feBlend mode="normal" in="SourceGraphic" in2="effect1_dropShadow_993_6969" result="shape"/>
</filter>
<filter id="filter1_d_993_6969" x="2.28882e-05" y="0.000144958" width="244.148" height="96.2106" filterUnits="userSpaceOnUse" color-interpolation-filters="sRGB">
<feFlood flood-opacity="0" result="BackgroundImageFix"/>
<feColorMatrix in="SourceAlpha" type="matrix" values="0 0 0 0 0 0 0 0 0 0 0 0 0 0 0 0 0 0 127 0" result="hardAlpha"/>
<feOffset/>
<feGaussianBlur stdDeviation="9.53704"/>
<feComposite in2="hardAlpha" operator="out"/>
<feColorMatrix type="matrix" values="0 0 0 0 0 0 0 0 0 0 0 0 0 0 0 0 0 0 0.1 0"/>
<feBlend mode="normal" in2="BackgroundImageFix" result="effect1_dropShadow_993_6969"/>
<feBlend mode="normal" in="SourceGraphic" in2="effect1_dropShadow_993_6969" result="shape"/>
</filter>
</defs>
</svg>
