<svg width="192" height="50" viewBox="0 0 192 50" fill="none" xmlns="http://www.w3.org/2000/svg">
<mask id="mask0_1035_4906" style="mask-type:luminance" maskUnits="userSpaceOnUse" x="0" y="13" width="192" height="16">
<path d="M0.282715 13.3984H192V28.0727H0.282715V13.3984Z" fill="white"/>
</mask>
<g mask="url(#mask0_1035_4906)">
<path d="M0.523793 26.3373C26.0023 16.0143 34.4933 16.7803 39.4801 19.4848C42.9897 21.7516 44.5297 25.1909 49.1917 26.5875C59.9718 28.6302 67.3105 23.6589 76.0949 19.9851C79.6621 18.6927 83.5227 17.5463 88.1637 17.3796C97.4248 17.9267 107.073 21.366 115.821 23.1325C119.043 24.0445 122.516 24.4249 125.994 24.2738C134.867 24.8053 144.521 18.6927 154.531 15.4098C157.648 14.4874 161.121 13.7214 164.981 13.6328C179.266 13.7214 179.266 16.3999 192.005 24.4249C178.878 16.7803 178.878 14.107 164.981 13.81C161.121 14.107 157.648 14.8678 154.599 15.613C144.521 19.0731 135.255 25.1909 125.989 24.576C122.516 24.8053 119.043 24.4249 115.753 23.4504C107.073 21.7516 97.4248 18.3071 88.148 17.7131C83.5227 17.9267 79.6621 19.0731 76.2154 20.2873C67.6929 23.6589 59.9718 29.0106 49.1393 26.848C44.1473 25.5713 42.602 22.132 39.3596 19.6724C34.4933 16.7803 26.0023 16.0143 0.518555 26.3373" fill="#008020"/>
</g>
<path d="M12.8382 21.7152C12.4874 21.3661 12.4874 20.9857 12.7387 20.5688C10.9429 19.4536 11.7178 17.9268 12.2361 15.9414C12.4874 17.9268 13.6445 19.0732 12.6759 20.574C12.4874 20.9857 12.4874 21.3661 12.8382 21.7152Z" fill="#008020"/>
<path d="M25.6251 18.2539C26.0023 19.072 26.0023 20.2185 27.3118 20.7031C30.2452 21.3649 30.6328 23.6578 31.8428 25.9662C32.1781 27.4827 32.5657 28.6291 33.2309 30.2393C31.7904 29.3899 30.6328 28.6291 29.7056 27.3576C27.5475 25.5702 25.6146 24.0382 26.9189 20.9272C26.7723 19.8381 26.0023 19.4524 25.6199 18.2539" fill="#008020"/>
<path d="M38.6421 19.1283C39.5116 18.6905 41.0569 17.9245 42.2721 16.6426C41.4445 12.9584 43.3722 12.5728 45.3103 11.1189C47.6203 9.8995 50.7108 8.75307 55.2681 8.1538C55.729 8.36746 56.499 7.98705 57.2009 7.85156C56.499 8.75307 56.1114 9.13348 55.8757 9.27418C53.0261 12.5728 50.3232 14.8656 48.4689 16.1736C46.4627 17.1585 45.305 18.6905 42.246 16.6061C40.6693 17.5441 39.5116 18.3049 38.6421 19.1283Z" fill="#008020"/>
<mask id="mask1_1035_4906" style="mask-type:luminance" maskUnits="userSpaceOnUse" x="48" y="26" width="16" height="24">
<path d="M48.5579 26.7383H63.3086V50.0004H48.5579V26.7383Z" fill="white"/>
</mask>
<g mask="url(#mask1_1035_4906)">
<path d="M49.4011 26.7539C49.9354 28.6299 50.7107 30.1567 51.5331 31.6679C54.9536 31.6836 55.7288 32.83 57.0698 33.8566C58.4317 36.2693 59.5894 39.3282 60.7261 42.9811C61.1346 45.4459 61.517 47.3532 62.3499 50.0004C59.977 48.4996 58.0441 46.9728 56.635 45.4511C53.4136 42.7674 51.0931 40.0942 50.3597 37.374C49.9354 35.8889 49.1654 34.362 51.8002 31.5429C50.7107 30.1567 49.9354 28.6299 49.4011 26.7539Z" fill="#008020"/>
</g>
<mask id="mask2_1035_4906" style="mask-type:luminance" maskUnits="userSpaceOnUse" x="61" y="0" width="16" height="27">
<path d="M61.9675 0H76.7182V26.7379H61.9675V0Z" fill="white"/>
</mask>
<g mask="url(#mask2_1035_4906)">
<path d="M62.5332 25.7165C63.0623 24.4242 63.8375 22.5117 65.0423 20.4325C62.2922 18.3116 62.6799 16.7796 62.9732 14.9557C63.4499 12.1938 65.3775 9.52058 68.5466 6.42522C70.4009 4.54924 72.7162 2.25638 76.2415 0C75.4191 4.16883 74.6439 7.22772 74.2039 9.65085C73.0986 13.7207 71.941 16.7796 70.2805 18.5513C68.8557 19.8384 68.0804 20.6045 64.728 20.2866C63.8375 22.5117 63.0623 24.0438 62.5332 25.7165Z" fill="#008020"/>
</g>
<path d="M75.063 20.5771C76.5768 21.364 78.5045 22.5104 80.6835 22.672C82.7526 20.2176 83.9103 20.598 85.6546 19.957C88.1584 20.2176 91.2437 21.364 94.8895 23.2244C97.0371 24.8033 100.122 26.3353 103.538 28.5813C99.3524 29.7746 96.2619 29.7746 93.2814 29.7173C88.9284 30.155 85.4555 29.389 83.2136 27.7267C81.9774 26.7158 80.8197 25.9497 80.715 22.5886C78.5045 21.7444 76.5768 21.364 75.063 20.5771Z" fill="#008020"/>
<path d="M88.4624 17.563C89.6986 16.7813 91.2439 16.0153 93.2501 14.6969C92.4015 11.4296 93.5591 10.6688 94.8687 8.93348C97.0373 7.22947 100.123 6.07783 104.407 5.13984C106.686 4.9314 109.389 4.55099 112.804 4.14453C110.547 6.84385 108.619 8.3759 106.901 10.0278C103.601 12.9616 101.28 14.8689 98.8287 15.6505C97.0373 16.0153 95.8797 16.7813 93.0301 14.353C91.2439 15.6349 89.6986 16.7813 88.4624 17.563Z" fill="#008020"/>
<path d="M102.328 19.9375C103.213 21.3653 104.371 22.5118 105.654 23.3664C109.007 22.1313 109.777 23.6582 111.694 24.3304C113.637 26.3367 115.57 28.6295 117.932 32.1522C118.268 33.2152 119.043 34.3617 120.159 35.5811C118.655 35.5081 117.11 34.7421 116.251 34.2366C112.092 33.2152 109.007 31.3028 107.199 29.2601C105.916 27.8635 104.371 26.7171 105.764 23.2569C104.371 22.1313 103.213 20.9849 102.328 19.9375Z" fill="#008020"/>
<path d="M116.335 23.4019C117.11 23.2768 118.268 23.2768 119.609 22.6411C120.588 19.0715 122.903 19.8375 125.638 19.3008C127.534 19.4519 129.854 19.8375 132.746 20.0043C130.237 21.3644 127.922 22.5108 126.371 23.0006C123.673 23.6572 122.128 25.1893 119.572 22.5004C118.268 22.8964 117.11 23.2768 116.335 23.4019Z" fill="#008020"/>
<path d="M131.201 23.9695C131.782 24.0372 132.552 24.8032 133.464 24.0945C136.03 22.8908 137.958 24.4228 141.033 25.3869C141.048 25.5693 141.048 25.9497 141.604 25.6005C141.048 25.9497 141.048 25.9497 140.991 25.6839C137.958 26.3301 135.255 27.0961 133.364 24.6521C132.552 24.0372 131.782 24.4228 131.201 23.9695Z" fill="#008020"/>
<path d="M145.883 18.813C146.066 18.6932 146.836 18.3076 147.287 17.2862C147.612 14.4879 150.315 14.1075 153.395 12.7891C151.472 15.2539 150.315 17.9272 147.622 17.6874C146.454 17.9272 146.066 18.6932 145.883 18.813Z" fill="#008020"/>
<path d="M161.257 13.9764C161.509 14.1066 161.891 14.4868 162.766 14.143C164.594 12.9607 166.527 14.4868 168.816 14.7368C166.527 15.2524 164.211 16.3982 162.766 14.1639C161.891 14.1066 161.509 14.1066 161.257 13.9764Z" fill="#008020"/>
<path d="M177.946 15.548C178.108 15.6313 178.108 16.0115 178.758 15.5688C179.654 15.2511 180.424 16.0115 181.613 16.2042C180.424 16.397 179.266 16.7772 178.716 15.798C178.496 15.6313 178.108 15.6313 177.946 15.548Z" fill="#008020"/>
<mask id="mask3_1035_4906" style="mask-type:luminance" maskUnits="userSpaceOnUse" x="0" y="13" width="191" height="17">
<path d="M0 13.3984H190.701V29.4068H0V13.3984Z" fill="white"/>
</mask>
<g mask="url(#mask3_1035_4906)">
<path d="M0.010498 25.0959C25.6147 15.2522 34.4934 15.6326 39.9673 18.728C43.3721 21.3648 44.9174 24.804 49.3593 25.7994C59.5895 27.8629 67.3106 22.8968 75.8645 19.421C79.2745 18.3111 83.5227 17.1647 88.1847 16.8416C97.8072 17.5451 107.074 20.9843 115.9 22.7665C119.425 23.6576 122.516 24.4236 125.999 23.9546C134.867 24.4236 144.134 18.6915 154.479 15.2522C157.648 14.4862 161.121 13.7202 164.982 13.5273C178.108 13.7202 178.878 16.013 189.428 22.7613C178.878 16.3986 178.108 14.1058 164.982 13.9182C161.121 14.1058 157.648 14.8666 154.647 15.7681C144.521 19.0719 135.255 25.1897 125.983 24.8926C122.516 25.1897 119.038 24.804 115.675 23.8139C106.686 22.1308 97.4196 19.0719 88.1271 18.2485C83.9103 18.3111 80.0498 19.4575 76.4407 20.8593C68.0806 24.4236 60.3595 29.7754 48.9665 27.6336C43.3721 26.3361 41.8268 22.5112 38.8725 20.432C34.4934 17.9255 26.3847 17.1647 1.03194 27.5711" fill="#804010"/>
</g>
<path d="M12.7444 21.7184C12.4879 20.598 12.1057 19.0711 12.3779 17.4609C12.4879 19.0711 12.4879 20.598 12.9381 21.7027" fill="#804010"/>
<path d="M25.8503 18.125C27.1598 20.9859 28.7051 23.6591 30.7951 26.6503C30.6327 27.0984 30.6327 27.0984 31.1041 27.1557C30.6327 27.0984 30.6327 27.0984 30.7532 26.6815C28.3174 23.6591 26.7722 20.9859 25.3945 18.3803" fill="#804010"/>
<path d="M38.3958 18.7816C40.6691 17.1609 42.9896 15.6341 46.7349 13.4038C48.0078 12.5752 49.9354 11.8144 52.0517 10.6367C49.9354 12.1948 48.3902 12.9608 47.044 13.8988C43.7596 16.4001 41.0567 17.927 38.8934 19.4799" fill="#804010"/>
<path d="M49.9199 26.5234C51.0932 29.3895 52.2508 32.068 54.1314 35.3978C54.9537 38.1805 56.499 40.859 58.5576 44.0169C56.1166 41.2394 54.5714 38.5662 53.2985 35.8304C51.0932 32.834 49.9356 29.7751 48.8879 26.982" fill="#804010"/>
<path d="M61.9414 25.4734C62.6748 22.8991 64.22 20.2206 66.1162 16.5051C67.3105 14.1081 68.8558 11.4296 71.2915 7.9903C71.5535 7.6099 71.5535 7.22949 72.2135 6.60938C71.9411 7.22949 71.5535 7.60989 71.4539 8.0841C69.6258 11.8152 68.0805 14.8741 67.1324 17.0106C65.3776 20.6062 64.22 23.6599 63.1252 25.9684" fill="#804010"/>
<path d="M75.2987 19.9805C77.7345 20.9862 80.825 22.1326 84.6122 23.2999C87.0008 24.4255 90.0861 25.1915 94.1142 26.3692C94.3342 26.7183 95.1043 27.0988 95.8847 26.9007C95.1043 27.0988 94.3342 26.7183 94.0619 26.5724C90.0861 25.9523 86.6132 25.1915 84.2665 24.389C80.4374 23.6595 77.3468 22.513 74.8325 21.179" fill="#804010"/>
<path d="M88.127 17.0715C90.4737 15.6332 92.7889 13.7208 96.5866 11.8552C98.9647 10.6671 101.668 9.13506 105.643 7.55611C105.528 7.60822 105.916 7.60822 106.193 7.31641C105.916 7.60822 105.528 7.60822 105.664 7.60822C102.055 9.90108 99.3524 11.4279 97.1052 12.7359C93.5642 14.8724 91.2437 16.7797 88.7922 18.0512" fill="#804010"/>
<path d="M102.674 19.6055C104.758 21.7524 106.686 24.0453 109.693 26.5309C110.934 28.2454 112.867 29.7774 115.135 31.6273C112.479 30.1578 110.547 28.631 109.2 27.0677C105.916 24.8061 103.983 22.5132 101.982 20.2725" fill="#804010"/>
<path d="M116.256 23.1002C119.043 22.5113 121.746 21.7453 125.983 21.0418C126.376 20.9845 127.152 20.9845 128.335 20.7188C127.152 20.9845 126.376 21.3649 126.025 21.2607C122.133 22.5113 119.043 23.2774 116.413 23.7047" fill="#804010"/>
<path d="M131.237 23.793C133.327 24.4232 135.642 24.8034 138.775 25.2409C135.642 25.1888 133.327 24.8034 131.174 24.1523" fill="#804010"/>
<path d="M145.768 18.6806C147.224 17.5446 149.152 16.0126 151.31 14.3711C149.152 16.3982 147.612 17.925 145.988 18.936" fill="#804010"/>
<path d="M161.273 13.8477C162.666 14.1081 164.594 14.4883 166.721 14.5664C164.594 14.8685 162.666 14.4883 161.241 14.1029" fill="#804010"/>
<path d="M177.956 15.4883C178.496 15.6341 179.654 16.0195 180.707 16.0352C179.654 16.0195 178.496 16.0195 177.936 15.6081" fill="#804010"/>
</svg>
