<svg width="1440" height="977" viewBox="0 0 1440 977" fill="none" xmlns="http://www.w3.org/2000/svg">
<g filter="url(#filter0_d_1035_4904)">
<path d="M403.149 138.917C238.693 -1.23004 78.1931 174.739 0 264.166V899.924H1440V96.372C1293.95 286.07 1065.28 312.092 985.846 232.014C851.301 96.3719 767.971 127.854 729.76 149.427C695.248 168.912 567.605 279.063 403.149 138.917Z" fill="#E8F5E9"/>
<path d="M403.149 138.917C238.693 -1.23004 78.1931 174.739 0 264.166V899.924H1440V96.372C1293.95 286.07 1065.28 312.092 985.846 232.014C851.301 96.3719 767.971 127.854 729.76 149.427C695.248 168.912 567.605 279.063 403.149 138.917Z" stroke="#C8DCC4"/>
</g>
<defs>
<filter id="filter0_d_1035_4904" x="-81.6" y="0.00156403" width="1603.2" height="976.524" filterUnits="userSpaceOnUse" color-interpolation-filters="sRGB">
<feFlood flood-opacity="0" result="BackgroundImageFix"/>
<feColorMatrix in="SourceAlpha" type="matrix" values="0 0 0 0 0 0 0 0 0 0 0 0 0 0 0 0 0 0 127 0" result="hardAlpha"/>
<feOffset dy="-5"/>
<feGaussianBlur stdDeviation="40.55"/>
<feComposite in2="hardAlpha" operator="out"/>
<feColorMatrix type="matrix" values="0 0 0 0 0.346154 0 0 0 0 0.346154 0 0 0 0 0.346154 0 0 0 0.2 0"/>
<feBlend mode="normal" in2="BackgroundImageFix" result="effect1_dropShadow_1035_4904"/>
<feBlend mode="normal" in="SourceGraphic" in2="effect1_dropShadow_1035_4904" result="shape"/>
</filter>
</defs>
</svg>
