<svg width="36" height="36" viewBox="0 0 36 36" fill="none" xmlns="http://www.w3.org/2000/svg">
<g clip-path="url(#clip0_2834_5518)">
<path d="M30.1294 21.5308L24.5609 19.3888C24.9396 17.5978 24.5827 15.6572 23.4289 14.0684L29.2483 8.24908C32.1883 10.0379 36 7.91612 36 4.44706C36 1.99496 34.005 0 31.5529 0C28.081 0 25.9639 3.81466 27.7509 6.75169L21.9316 12.5711C19.4331 10.7567 16.0078 10.8809 13.643 12.9068L10.6814 10.3893C12.159 7.44854 10.0103 3.95294 6.70588 3.95294C4.25379 3.95294 2.25882 5.94791 2.25882 8.4C2.25882 12.0395 6.39974 14.1107 9.30918 12.0021L12.2703 14.5192C10.8696 16.8162 10.9804 19.7411 12.5711 21.9316L8.69788 25.8047C5.03449 23.3212 0 25.9396 0 30.4235C0 33.4984 2.50158 36 5.57647 36C10.0567 36 12.6815 30.9693 10.1952 27.3022L14.0684 23.429C15.6916 24.6078 17.7184 24.9766 19.6053 24.5113L22.0126 30.2014C19.7355 32.222 21.1681 36 24.2118 36C26.0411 36 27.5294 34.5117 27.5294 32.6824C27.5294 30.7813 25.9136 29.2292 23.9624 29.3751L21.5546 23.6838C22.479 23.1033 23.2491 22.3076 23.7988 21.3647L29.3683 23.5071C29.289 25.4044 30.8107 26.9647 32.6824 26.9647C34.5117 26.9647 36 25.4764 36 23.6471C36 20.5698 32.1186 19.1352 30.1294 21.5308ZM31.5529 2.11765C32.8374 2.11765 33.8824 3.16264 33.8824 4.44706C33.8824 5.73148 32.8374 6.77647 31.5529 6.77647C30.2685 6.77647 29.2235 5.73148 29.2235 4.44706C29.2235 3.16264 30.2685 2.11765 31.5529 2.11765ZM6.70588 10.7294C5.42146 10.7294 4.37647 9.68442 4.37647 8.4C4.37647 7.11558 5.42146 6.07059 6.70588 6.07059C7.99031 6.07059 9.03529 7.11558 9.03529 8.4C9.03529 9.68442 7.99031 10.7294 6.70588 10.7294ZM5.57647 33.8824C3.66925 33.8824 2.11765 32.3308 2.11765 30.4235C2.11765 28.5163 3.66925 26.9647 5.57647 26.9647C7.48369 26.9647 9.03529 28.5163 9.03529 30.4235C9.03529 32.3308 7.48369 33.8824 5.57647 33.8824ZM24.2118 31.4824C24.8735 31.4824 25.4118 32.0207 25.4118 32.6824C25.4118 33.344 24.8735 33.8824 24.2118 33.8824C23.5501 33.8824 23.0118 33.344 23.0118 32.6824C23.0118 32.0207 23.5501 31.4824 24.2118 31.4824ZM18 22.5882C15.47 22.5882 13.4118 20.53 13.4118 18C13.4118 15.47 15.47 13.4118 18 13.4118C20.53 13.4118 22.5882 15.47 22.5882 18C22.5882 20.53 20.53 22.5882 18 22.5882ZM32.6824 24.8471C32.0207 24.8471 31.4824 24.3088 31.4824 23.6471C31.4824 22.9854 32.0207 22.4471 32.6824 22.4471C33.344 22.4471 33.8824 22.9854 33.8824 23.6471C33.8824 24.3088 33.344 24.8471 32.6824 24.8471Z" fill="black"/>
</g>
<defs>
<clipPath id="clip0_2834_5518">
<rect width="36" height="36" fill="white"/>
</clipPath>
</defs>
</svg>
