<svg width="36" height="36" viewBox="0 0 36 36" fill="none" xmlns="http://www.w3.org/2000/svg">
<g clip-path="url(#clip0_2834_5497)">
<path d="M33.6228 31.5687H33.1179V27.2327C33.4791 27.169 33.8136 26.989 34.0637 26.7144C34.2194 26.5428 34.3377 26.3407 34.4112 26.1209C34.4846 25.9011 34.5115 25.6684 34.4902 25.4376L32.2943 1.87571C32.1945 0.806578 31.3094 0 30.2354 0H6.93498C5.29127 0 3.93697 1.23427 3.78554 2.87113L1.37271 28.9418C1.28469 31.0035 2.48355 32.9938 4.16097 33.5712C4.19067 33.5815 4.22238 33.5869 4.25384 33.5869H5.56383C5.76196 34.3844 6.07342 35.1493 6.48868 35.8583C6.51386 35.9014 6.54987 35.9371 6.59312 35.9619C6.63637 35.9867 6.68537 35.9997 6.73523 35.9998C6.7741 35.9997 6.81256 35.9918 6.84827 35.9764C6.88398 35.961 6.91618 35.9386 6.94292 35.9103L8.38349 34.3878L9.8249 35.9103C9.88692 35.9757 9.97603 36.0092 10.0652 35.9978C10.1093 35.9927 10.1515 35.9775 10.1887 35.9533C10.2258 35.9291 10.2568 35.8966 10.2792 35.8583C10.6947 35.1494 11.0062 34.3844 11.2044 33.5869H33.6228C34.1791 33.5869 34.6319 33.1344 34.6319 32.5781C34.6319 32.0217 34.1791 31.5687 33.6228 31.5687ZM11.4724 31.5687C11.4775 31.3607 11.4738 31.1496 11.4661 30.937H21.4923C21.6503 30.937 21.778 30.8093 21.778 30.6513C21.778 30.4933 21.6503 30.3656 21.4923 30.3656H11.4312C11.4118 30.1459 11.3855 29.9241 11.3529 29.7001H32.5468V31.5687H11.4724ZM4.03269 29.1287C3.87471 29.1287 3.74698 29.2564 3.74698 29.4144C3.74698 29.5724 3.87471 29.7001 4.03269 29.7001H5.415C5.32158 30.3407 5.28072 30.9644 5.29557 31.5687H4.36957C3.61101 30.8156 3.19241 29.891 3.21817 29.017C3.23733 28.3582 3.51674 27.7696 4.0273 27.3081L32.5466 27.2604V27.8521H4.57611C4.41813 27.8521 4.2904 27.9799 4.2904 28.1378C4.2904 28.2958 4.41813 28.4236 4.57611 28.4236H32.5465V29.129H4.03269V29.1287ZM4.30295 33.0155C2.90154 32.5041 1.86836 30.737 1.94268 28.9804L4.35466 2.92399C4.47893 1.58285 5.58808 0.571425 6.93492 0.571425H30.2357C31.0128 0.571425 31.6534 1.15485 31.7254 1.92882L33.9214 25.4907C33.9505 25.8012 33.8511 26.0992 33.6414 26.3301C33.4317 26.5609 33.1442 26.6881 32.8322 26.6887L3.91951 26.7369C3.85238 26.7371 3.78744 26.7609 3.73607 26.8041C3.04867 27.3824 2.67179 28.1421 2.64663 29.0004C2.61522 30.0672 3.12918 31.1832 4.05718 32.0618C4.11023 32.1122 4.18063 32.1402 4.25378 32.1401H5.32837C5.35267 32.4334 5.391 32.7255 5.44325 33.0152H4.30295V33.0155ZM9.97179 35.2341L8.59124 33.7758C8.48297 33.6621 8.28437 33.6621 8.1761 33.7758L6.7964 35.2341C5.94811 33.6135 5.68356 31.7532 5.99728 29.7001H10.7707C11.0846 31.7532 10.8204 33.6132 9.97179 35.2341ZM33.6228 33.0155H11.3249C11.377 32.7258 11.4154 32.4337 11.4398 32.1404H33.6229C33.8643 32.1404 34.0606 32.337 34.0606 32.5781C34.0605 32.8193 33.8643 33.0155 33.6228 33.0155Z" fill="black" stroke="black" stroke-width="0.7"/>
<path d="M10.1608 16.5256H16.2459C17.0425 16.5256 17.6905 15.8776 17.6905 15.0814C17.6905 14.2851 17.0425 13.6371 16.2459 13.6371H11.402L11.602 11.8431H16.4945C17.154 11.8431 17.6902 11.3068 17.6902 10.6474C17.6902 9.98795 17.154 9.45169 16.4945 9.45169H11.8685L12.0805 7.54912H16.4708C17.1433 7.54912 17.6905 7.00201 17.6905 6.32971C17.6905 5.65741 17.1434 5.11029 16.4708 5.11029H11.0339C10.6244 5.10966 10.2291 5.26074 9.92444 5.53436C9.61974 5.80799 9.42718 6.18478 9.38392 6.59202L8.51047 14.6877C8.48561 14.9193 8.50971 15.1535 8.58123 15.3752C8.65275 15.5969 8.77008 15.8011 8.92561 15.9745C9.08131 16.1479 9.27175 16.2866 9.48455 16.3815C9.69736 16.4765 9.92776 16.5256 10.1608 16.5256ZM9.0788 14.7496L9.95225 6.65397C9.98072 6.38699 10.107 6.14 10.3068 5.96063C10.5066 5.78126 10.7657 5.6822 11.0342 5.68256H16.4708C16.8282 5.68256 17.1191 5.97313 17.1191 6.33055C17.1191 6.68798 16.8282 6.97854 16.4708 6.97854H11.8251C11.7548 6.97849 11.6869 7.00437 11.6345 7.05124C11.5821 7.09811 11.5489 7.16267 11.5411 7.23255L11.2654 9.70654C11.2611 9.74651 11.2652 9.78695 11.2774 9.82524C11.2897 9.86353 11.3098 9.89882 11.3366 9.92884C11.3633 9.95878 11.3962 9.98272 11.4328 9.99911C11.4695 10.0155 11.5092 10.024 11.5494 10.024H16.4948C16.8387 10.024 17.1191 10.304 17.1191 10.6482C17.1191 10.9925 16.839 11.2725 16.4948 11.2725H11.3465C11.2762 11.2725 11.2083 11.2984 11.1559 11.3452C11.1035 11.3921 11.0702 11.4567 11.0625 11.5265L10.7985 13.892C10.7896 13.9728 10.8156 14.0534 10.8696 14.114C10.9237 14.1745 11.0014 14.2091 11.0825 14.2091H16.2456C16.727 14.2091 17.1188 14.6008 17.1188 15.0819C17.1188 15.5631 16.727 15.9548 16.2456 15.9548H10.1608C9.85222 15.9548 9.55705 15.823 9.35106 15.5936C9.24907 15.4799 9.17213 15.346 9.12523 15.2006C9.07833 15.0552 9.06251 14.9015 9.0788 14.7496ZM19.9893 16.5245C20.7565 16.5245 21.3805 15.843 21.3805 15.0053V11.5248L24.9393 15.9007C25.2714 16.309 25.7199 16.5267 26.1887 16.5267C26.3824 16.5267 26.5793 16.4896 26.773 16.4133C27.4996 16.127 27.9487 15.3685 27.8913 14.5264L27.3274 6.28563C27.2822 5.63049 26.7328 5.11708 26.0759 5.11708C25.3842 5.11708 24.8217 5.67965 24.8217 6.37135V11.0965L21.2103 5.71797C20.8708 5.21256 20.3146 4.99996 19.7634 5.1637C19.1648 5.34029 18.7705 5.89086 18.7588 6.56571L18.5985 14.9739C18.5905 15.4056 18.7514 15.8222 19.0402 16.1168C19.2982 16.3793 19.6356 16.5245 19.9893 16.5245ZM19.3299 6.57595C19.3387 6.06479 19.6559 5.79084 19.9245 5.71166C20.2356 5.61994 20.5376 5.74167 20.7356 6.03654L24.8705 12.1936C24.9046 12.2445 24.9542 12.2831 25.0119 12.3036C25.0696 12.3241 25.1324 12.3256 25.191 12.3077C25.2496 12.2898 25.3009 12.2536 25.3373 12.2044C25.3738 12.1551 25.3934 12.0955 25.3933 12.0342V6.37135C25.3933 5.99477 25.6996 5.6885 26.0762 5.6885C26.4336 5.6885 26.733 5.96791 26.7573 6.3248L27.3213 14.5656C27.3715 15.297 26.9447 15.7318 26.5639 15.8819C26.1359 16.0505 25.6944 15.9233 25.3827 15.5405L21.3167 10.5405C21.2796 10.4946 21.2291 10.4615 21.1723 10.4456C21.1155 10.4296 21.0551 10.4317 20.9996 10.4516C20.944 10.4714 20.8959 10.5079 20.8619 10.5561C20.8279 10.6042 20.8096 10.6618 20.8096 10.7208V15.0053C20.8096 15.5278 20.4418 15.953 19.9898 15.953C19.7907 15.953 19.5984 15.869 19.4484 15.7161C19.2661 15.5305 19.165 15.2638 19.1702 14.9844L19.3299 6.57595Z" fill="black" stroke="black"/>
</g>
<defs>
<clipPath id="clip0_2834_5497">
<rect width="36" height="36" fill="white"/>
</clipPath>
</defs>
</svg>
