<svg width="35" height="40" viewBox="0 0 35 40" fill="none" xmlns="http://www.w3.org/2000/svg">
<path d="M16.4844 16.9146C16.4844 16.9146 11.6621 17.9333 8.2008 16.1233C4.73882 14.3148 2.6814 7.53125 2.6814 7.53125" fill="url(#paint0_linear_1030_4714)"/>
<path d="M16.6707 16.9032C16.6707 16.9032 15.7146 11.9956 12.7238 9.46394C9.73365 6.93153 2.78345 7.64835 2.78345 7.64835" fill="url(#paint1_linear_1030_4714)"/>
<path d="M16.749 12.4141L15.0239 35.2142H18.4735L16.749 12.4141Z" fill="url(#paint2_linear_1030_4714)"/>
<mask id="mask0_1030_4714" style="mask-type:luminance" maskUnits="userSpaceOnUse" x="16" y="0" width="16" height="17">
<path d="M16.3564 0H31.0362V16.8809H16.3564V0Z" fill="white"/>
</mask>
<g mask="url(#mask0_1030_4714)">
<path d="M16.5209 16.8786C15.6829 7.30364 22.4569 1.77826 31.0058 0.0820312L16.5209 16.8786Z" fill="url(#paint3_linear_1030_4714)"/>
</g>
<path d="M16.5056 17.1313C22.575 16.8259 28.6187 13.6525 29.0001 8.23665C29.246 4.75292 29.5943 2.87836 30.8371 0.199219" fill="url(#paint4_linear_1030_4714)"/>
<mask id="mask1_1030_4714" style="mask-type:luminance" maskUnits="userSpaceOnUse" x="0" y="27" width="35" height="13">
<path d="M0 27.8555H34.074V40.0001H0V27.8555Z" fill="white"/>
</mask>
<g mask="url(#mask1_1030_4714)">
<mask id="mask2_1030_4714" style="mask-type:luminance" maskUnits="userSpaceOnUse" x="-1" y="27" width="36" height="13">
<path d="M31.5287 35.1766C30.9511 35.1766 30.4785 35.2264 30.0979 35.3128C29.7607 35.1745 29.3807 35.0951 28.9807 35.0951C28.9448 35.0951 28.9096 35.0972 28.8743 35.0972C28.9434 34.8712 28.9807 34.6332 28.9807 34.3874C28.9807 32.8042 27.4463 31.5222 25.554 31.5222C25.3495 31.5222 25.1498 31.5384 24.955 31.5658C24.1971 30.8188 23.0675 30.3441 21.8046 30.3441C21.1738 30.3441 20.5776 30.4642 20.0436 30.6734C20.056 30.5836 20.0629 30.4895 20.0629 30.394C20.0629 29.0341 18.744 27.9297 17.1163 27.9297C15.9847 27.9297 15.0029 28.4654 14.5089 29.2468C13.2985 29.2124 12.0301 29.8218 11.4684 30.8096C10.9654 30.6692 10.4293 30.5941 9.8711 30.5941C7.41159 30.5941 5.36038 32.0523 4.88022 33.988C3.6933 33.7408 2.54575 34.1543 2.54575 35.6561C1.13775 35.6561 -0.00219727 36.6081 -0.00219727 37.7862C-0.00219727 38.9629 1.13775 39.9184 2.54575 39.9184C3.01002 39.9184 3.44458 39.8131 3.81973 39.6306C4.19418 39.8131 4.62874 39.9184 5.0937 39.9184C5.55797 39.9184 5.99253 39.8131 6.36767 39.6306C6.74213 39.8131 7.17669 39.9184 7.64165 39.9184C8.34012 39.9184 8.97227 39.6818 9.43309 39.3013C9.89321 39.6818 10.5261 39.9184 11.2245 39.9184C11.5444 39.9184 11.8498 39.8686 12.1316 39.778C12.4142 39.8686 12.7203 39.9184 13.0401 39.9184C13.8533 39.9184 14.5773 39.5983 15.0437 39.1005C15.0679 39.1026 15.0927 39.1054 15.1169 39.1054C15.5833 39.6004 16.3052 39.9184 17.1163 39.9184C17.9274 39.9184 18.6487 39.6004 19.1157 39.1082C19.218 39.1146 19.3216 39.1188 19.4252 39.1188C19.5482 39.1188 19.6677 39.1174 19.7845 39.1096C20.2515 39.6025 20.9721 39.9184 21.7804 39.9184C22.4001 39.9184 22.9673 39.7338 23.4095 39.4256C23.6333 39.486 23.871 39.5183 24.1183 39.5183C24.5646 39.5183 24.9805 39.4136 25.3336 39.2297C25.6666 39.3645 26.039 39.4389 26.4328 39.4389C26.9309 39.4389 27.3965 39.3182 27.789 39.1096C28.1441 39.2683 28.5503 39.3568 28.9807 39.3568C29.5852 39.3568 30.1393 39.182 30.5753 38.8885C32.1152 39.8391 34.0773 39.9556 34.0766 37.3074C34.0766 36.13 32.9346 35.1766 31.5287 35.1766Z" fill="white"/>
</mask>
<g mask="url(#mask2_1030_4714)">
<mask id="mask3_1030_4714" style="mask-type:luminance" maskUnits="userSpaceOnUse" x="-1" y="27" width="36" height="13">
<path d="M31.5287 35.1745C30.9511 35.1745 30.4792 35.2229 30.0986 35.3114C29.7607 35.1745 29.3821 35.0944 28.9807 35.0944C28.9448 35.0944 28.9096 35.0979 28.8736 35.0979C28.9434 34.8691 28.9807 34.6325 28.9807 34.3867C28.9807 32.8049 27.4463 31.5194 25.5533 31.5194C25.3495 31.5194 25.1498 31.5363 24.955 31.5644C24.1978 30.8173 23.0675 30.3434 21.8046 30.3434C21.1738 30.3434 20.5776 30.4642 20.0436 30.672C20.056 30.58 20.0629 30.4881 20.0629 30.3954C20.0629 29.0348 18.744 27.9297 17.1163 27.9297C15.9847 27.9297 15.0022 28.4647 14.5089 29.2468C13.2985 29.2103 12.0301 29.8211 11.4684 30.8089C10.9654 30.6685 10.4293 30.592 9.8711 30.592C7.41159 30.592 5.36038 32.0495 4.88022 33.9894C3.6933 33.7401 2.54575 34.1543 2.54575 35.6561C1.13775 35.6561 -0.00219727 36.6074 -0.00219727 37.7848C-0.00219727 38.9615 1.13775 39.9163 2.54575 39.9163C3.01002 39.9163 3.44458 39.8124 3.81973 39.632C4.19418 39.8124 4.62874 39.9163 5.0937 39.9163C5.55797 39.9163 5.99253 39.8124 6.36698 39.632C6.74213 39.8124 7.17669 39.9163 7.64165 39.9163C8.34012 39.9163 8.97227 39.6804 9.43309 39.3027C9.89321 39.6804 10.5261 39.9163 11.2245 39.9163C11.5444 39.9163 11.8498 39.8693 12.1316 39.7759C12.4142 39.8693 12.7203 39.9163 13.0401 39.9163C13.8533 39.9163 14.5773 39.5955 15.0437 39.1019C15.0679 39.1019 15.0927 39.1054 15.1169 39.1054C15.5833 39.5997 16.3052 39.9163 17.1163 39.9163C17.9274 39.9163 18.6487 39.5997 19.1157 39.1054C19.218 39.1139 19.3216 39.1174 19.4252 39.1174C19.5482 39.1174 19.6677 39.1138 19.7845 39.1103C20.2515 39.5997 20.9714 39.9163 21.7804 39.9163C22.4001 39.9163 22.9673 39.7324 23.4088 39.4228C23.6333 39.4831 23.871 39.5197 24.119 39.5197C24.5646 39.5197 24.9805 39.4108 25.3336 39.2304C25.6659 39.3631 26.039 39.4396 26.4328 39.4396C26.9309 39.4396 27.3965 39.3182 27.789 39.1103C28.1441 39.2662 28.5503 39.3589 28.9807 39.3589C29.5839 39.3589 30.1393 39.182 30.5753 38.8885C32.1152 39.8363 34.0773 39.9528 34.0766 37.3067C34.0752 36.1293 32.9346 35.1745 31.5287 35.1745Z" fill="white"/>
</mask>
<g mask="url(#mask3_1030_4714)">
<mask id="mask4_1030_4714" style="mask-type:luminance" maskUnits="userSpaceOnUse" x="-1" y="27" width="36" height="14">
<path d="M34.3802 27.9381L0.020185 27.043L-0.305908 39.9451L34.0555 40.8396L34.3802 27.9381Z" fill="white"/>
</mask>
<g mask="url(#mask4_1030_4714)">
<path d="M34.3776 27.9374L0.0231147 27.043L-0.302979 39.9451L34.0522 40.8403L34.3776 27.9374Z" fill="url(#paint5_linear_1030_4714)"/>
</g>
</g>
</g>
</g>
<defs>
<linearGradient id="paint0_linear_1030_4714" x1="9.5829" y1="7.53125" x2="9.5829" y2="17.2003" gradientUnits="userSpaceOnUse">
<stop stop-color="#338337"/>
<stop offset="1" stop-color="#66BB6A"/>
</linearGradient>
<linearGradient id="paint1_linear_1030_4714" x1="9.72709" y1="7.55469" x2="9.72709" y2="16.9032" gradientUnits="userSpaceOnUse">
<stop stop-color="#338337"/>
<stop offset="1" stop-color="#66BB6A"/>
</linearGradient>
<linearGradient id="paint2_linear_1030_4714" x1="16.7487" y1="12.4141" x2="16.7487" y2="35.2142" gradientUnits="userSpaceOnUse">
<stop stop-color="#338337"/>
<stop offset="1" stop-color="#66BB6A"/>
</linearGradient>
<linearGradient id="paint3_linear_1030_4714" x1="23.7282" y1="0.0820312" x2="23.7282" y2="16.8786" gradientUnits="userSpaceOnUse">
<stop stop-color="#338337"/>
<stop offset="1" stop-color="#66BB6A"/>
</linearGradient>
<linearGradient id="paint4_linear_1030_4714" x1="23.6714" y1="0.199219" x2="23.6714" y2="17.1313" gradientUnits="userSpaceOnUse">
<stop stop-color="#338337"/>
<stop offset="1" stop-color="#66BB6A"/>
</linearGradient>
<linearGradient id="paint5_linear_1030_4714" x1="17.2823" y1="27.4923" x2="16.9462" y2="40.3945" gradientUnits="userSpaceOnUse">
<stop stop-color="#391913"/>
<stop offset="0.015625" stop-color="#3A1913"/>
<stop offset="0.0234375" stop-color="#3A1913"/>
<stop offset="0.03125" stop-color="#3B1913"/>
<stop offset="0.046875" stop-color="#3C1913"/>
<stop offset="0.0546875" stop-color="#3C1913"/>
<stop offset="0.0625" stop-color="#3D1A13"/>
<stop offset="0.078125" stop-color="#3E1A13"/>
<stop offset="0.0859375" stop-color="#3E1A13"/>
<stop offset="0.09375" stop-color="#3F1A13"/>
<stop offset="0.109375" stop-color="#401A13"/>
<stop offset="0.125" stop-color="#411B13"/>
<stop offset="0.140625" stop-color="#411B13"/>
<stop offset="0.15625" stop-color="#421B13"/>
<stop offset="0.171875" stop-color="#431C13"/>
<stop offset="0.1875" stop-color="#441C13"/>
<stop offset="0.195312" stop-color="#441C13"/>
<stop offset="0.203125" stop-color="#451C13"/>
<stop offset="0.21875" stop-color="#461D13"/>
<stop offset="0.226562" stop-color="#461D13"/>
<stop offset="0.234375" stop-color="#471D13"/>
<stop offset="0.25" stop-color="#481D13"/>
<stop offset="0.265625" stop-color="#481D13"/>
<stop offset="0.269531" stop-color="#491D13"/>
<stop offset="0.273438" stop-color="#491D13"/>
<stop offset="0.28125" stop-color="#4A1E13"/>
<stop offset="0.289062" stop-color="#4A1E13"/>
<stop offset="0.296875" stop-color="#4B1E13"/>
<stop offset="0.304688" stop-color="#4C1E13"/>
<stop offset="0.308594" stop-color="#4C1E13"/>
<stop offset="0.3125" stop-color="#4D1F13"/>
<stop offset="0.328125" stop-color="#4E1F13"/>
<stop offset="0.335938" stop-color="#4E1F13"/>
<stop offset="0.34375" stop-color="#4F1F13"/>
<stop offset="0.351562" stop-color="#501F13"/>
<stop offset="0.359375" stop-color="#502013"/>
<stop offset="0.375" stop-color="#512013"/>
<stop offset="0.382812" stop-color="#522013"/>
<stop offset="0.390625" stop-color="#532113"/>
<stop offset="0.398438" stop-color="#532113"/>
<stop offset="0.40625" stop-color="#542113"/>
<stop offset="0.414062" stop-color="#552213"/>
<stop offset="0.421875" stop-color="#562213"/>
<stop offset="0.425781" stop-color="#572213"/>
<stop offset="0.429688" stop-color="#572313"/>
<stop offset="0.4375" stop-color="#582313"/>
<stop offset="0.453125" stop-color="#582413"/>
<stop offset="0.460938" stop-color="#592413"/>
<stop offset="0.46875" stop-color="#5A2413"/>
<stop offset="0.476562" stop-color="#5B2413"/>
<stop offset="0.484375" stop-color="#5B2413"/>
<stop offset="0.488281" stop-color="#5C2513"/>
<stop offset="0.492188" stop-color="#5C2513"/>
<stop offset="0.496094" stop-color="#5D2514"/>
<stop offset="0.5" stop-color="#5E2514"/>
<stop offset="0.507812" stop-color="#5E2514"/>
<stop offset="0.515625" stop-color="#5F2514"/>
<stop offset="0.519531" stop-color="#602514"/>
<stop offset="0.523438" stop-color="#602514"/>
<stop offset="0.53125" stop-color="#612614"/>
<stop offset="0.539063" stop-color="#622614"/>
<stop offset="0.542969" stop-color="#632715"/>
<stop offset="0.546875" stop-color="#632715"/>
<stop offset="0.554688" stop-color="#632715"/>
<stop offset="0.558594" stop-color="#642715"/>
<stop offset="0.5625" stop-color="#642715"/>
<stop offset="0.566406" stop-color="#652715"/>
<stop offset="0.570312" stop-color="#652715"/>
<stop offset="0.578125" stop-color="#662815"/>
<stop offset="0.585937" stop-color="#662815"/>
<stop offset="0.59375" stop-color="#672915"/>
<stop offset="0.601562" stop-color="#682915"/>
<stop offset="0.605469" stop-color="#692916"/>
<stop offset="0.609375" stop-color="#692916"/>
<stop offset="0.613281" stop-color="#6A2916"/>
<stop offset="0.617188" stop-color="#6B2A16"/>
<stop offset="0.625" stop-color="#6B2A16"/>
<stop offset="0.632812" stop-color="#6C2A16"/>
<stop offset="0.636719" stop-color="#6D2A16"/>
<stop offset="0.640625" stop-color="#6D2A16"/>
<stop offset="0.644531" stop-color="#6E2B16"/>
<stop offset="0.648438" stop-color="#6E2B16"/>
<stop offset="0.65625" stop-color="#6F2B17"/>
<stop offset="0.664063" stop-color="#702B17"/>
<stop offset="0.671875" stop-color="#712C17"/>
<stop offset="0.679688" stop-color="#712C17"/>
<stop offset="0.683594" stop-color="#722C17"/>
<stop offset="0.6875" stop-color="#722C17"/>
<stop offset="0.75" stop-color="#732D17"/>
<stop offset="1" stop-color="#732D17"/>
</linearGradient>
</defs>
</svg>
