<svg width="36" height="36" viewBox="0 0 36 36" fill="none" xmlns="http://www.w3.org/2000/svg">
<path d="M12.6667 0H4.66667C2.09333 0 0 2.09333 0 4.66667V12.6667C0 15.24 2.09333 17.3333 4.66667 17.3333H12.6667C15.24 17.3333 17.3333 15.24 17.3333 12.6667V4.66667C17.3333 2.09333 15.24 0 12.6667 0ZM16 12.6667C16 14.5067 14.5067 16 12.6667 16H4.66667C2.82667 16 1.33333 14.5067 1.33333 12.6667V4.66667C1.33333 2.82667 2.82667 1.33333 4.66667 1.33333H12.6667C14.5067 1.33333 16 2.82667 16 4.66667V12.6667ZM12.6667 18.6667H4.66667C2.09333 18.6667 0 20.76 0 23.3333V31.3333C0 33.9067 2.09333 36 4.66667 36H12.6667C15.24 36 17.3333 33.9067 17.3333 31.3333V23.3333C17.3333 20.76 15.24 18.6667 12.6667 18.6667ZM16 31.3333C16 33.1733 14.5067 34.6667 12.6667 34.6667H4.66667C2.82667 34.6667 1.33333 33.1733 1.33333 31.3333V23.3333C1.33333 21.4933 2.82667 20 4.66667 20H12.6667C14.5067 20 16 21.4933 16 23.3333V31.3333ZM31.3333 0H23.3333C20.76 0 18.6667 2.09333 18.6667 4.66667V12.6667C18.6667 15.24 20.76 17.3333 23.3333 17.3333H31.3333C33.9067 17.3333 36 15.24 36 12.6667V4.66667C36 2.09333 33.9067 0 31.3333 0ZM34.6667 12.6667C34.6667 14.5067 33.1733 16 31.3333 16H23.3333C21.4933 16 20 14.5067 20 12.6667V4.66667C20 2.82667 21.4933 1.33333 23.3333 1.33333H31.3333C33.1733 1.33333 34.6667 2.82667 34.6667 4.66667V12.6667ZM31.3333 18.6667H23.3333C20.76 18.6667 18.6667 20.76 18.6667 23.3333V31.3333C18.6667 33.9067 20.76 36 23.3333 36H31.3333C33.9067 36 36 33.9067 36 31.3333V23.3333C36 20.76 33.9067 18.6667 31.3333 18.6667ZM34.6667 31.3333C34.6667 33.1733 33.1733 34.6667 31.3333 34.6667H23.3333C21.4933 34.6667 20 33.1733 20 31.3333V23.3333C20 21.4933 21.4933 20 23.3333 20H31.3333C33.1733 20 34.6667 21.4933 34.6667 23.3333V31.3333Z" fill="black"/>
<path d="M12.6667 8H9.33333V4.66667C9.33333 4.3 9.03333 4 8.66667 4C8.3 4 8 4.3 8 4.66667V8H4.66667C4.3 8 4 8.3 4 8.66667C4 9.03333 4.3 9.33333 4.66667 9.33333H8V12.6667C8 13.0333 8.3 13.3333 8.66667 13.3333C9.03333 13.3333 9.33333 13.0333 9.33333 12.6667V9.33333H12.6667C13.0333 9.33333 13.3333 9.03333 13.3333 8.66667C13.3333 8.3 13.0333 8 12.6667 8ZM12.6667 26.6667H4.66667C4.3 26.6667 4 26.9667 4 27.3333C4 27.7 4.3 28 4.66667 28H12.6667C13.0333 28 13.3333 27.7 13.3333 27.3333C13.3333 26.9667 13.0333 26.6667 12.6667 26.6667ZM31.3333 26.6667H23.3333C22.9667 26.6667 22.6667 26.9667 22.6667 27.3333C22.6667 27.7 22.9667 28 23.3333 28H31.3333C31.7 28 32 27.7 32 27.3333C32 26.9667 31.7 26.6667 31.3333 26.6667ZM31.14 4.86C31.0783 4.7982 31.0051 4.74917 30.9244 4.71571C30.8438 4.68226 30.7573 4.66504 30.67 4.66504C30.5827 4.66504 30.4962 4.68226 30.4156 4.71571C30.3349 4.74917 30.2617 4.7982 30.2 4.86L27.34 7.72L24.48 4.86C24.4183 4.79828 24.345 4.74932 24.2644 4.71592C24.1837 4.68251 24.0973 4.66532 24.01 4.66532C23.9227 4.66532 23.8363 4.68251 23.7556 4.71592C23.675 4.74932 23.6017 4.79828 23.54 4.86C23.4783 4.92172 23.4293 4.995 23.3959 5.07564C23.3625 5.15628 23.3453 5.24271 23.3453 5.33C23.3453 5.41729 23.3625 5.50372 23.3959 5.58436C23.4293 5.665 23.4783 5.73828 23.54 5.8L26.4 8.66L23.54 11.52C23.447 11.6131 23.3837 11.7317 23.3582 11.8609C23.3328 11.99 23.3463 12.1238 23.397 12.2452C23.4477 12.3667 23.5334 12.4703 23.6431 12.543C23.7529 12.6156 23.8817 12.6541 24.0133 12.6533C24.1867 12.6533 24.3533 12.5867 24.4867 12.46L27.3467 9.6L30.2067 12.46C30.34 12.5933 30.5067 12.6533 30.68 12.6533C30.8533 12.6533 31.02 12.5867 31.1533 12.46C31.2151 12.3983 31.2642 12.3251 31.2976 12.2444C31.3311 12.1638 31.3483 12.0773 31.3483 11.99C31.3483 11.9027 31.3311 11.8162 31.2976 11.7356C31.2642 11.6549 31.2151 11.5817 31.1533 11.52L28.2933 8.66L31.1533 5.8C31.2151 5.73832 31.2642 5.66507 31.2976 5.58442C31.3311 5.50377 31.3483 5.41731 31.3483 5.33C31.3483 5.24269 31.3311 5.15623 31.2976 5.07558C31.2642 4.99493 31.2151 4.92168 31.1533 4.86H31.14Z" fill="black"/>
<path d="M27.3333 25.3307C28.0697 25.3307 28.6667 24.7338 28.6667 23.9974C28.6667 23.261 28.0697 22.6641 27.3333 22.6641C26.597 22.6641 26 23.261 26 23.9974C26 24.7338 26.597 25.3307 27.3333 25.3307Z" fill="black"/>
<path d="M27.3333 31.9987C28.0697 31.9987 28.6667 31.4017 28.6667 30.6654C28.6667 29.929 28.0697 29.332 27.3333 29.332C26.597 29.332 26 29.929 26 30.6654C26 31.4017 26.597 31.9987 27.3333 31.9987Z" fill="black"/>
</svg>
