<svg width="36" height="36" viewBox="0 0 36 36" fill="none" xmlns="http://www.w3.org/2000/svg">
<path d="M17.9998 14.1328C17.2349 14.1328 16.4872 14.3596 15.8513 14.7846C15.2153 15.2095 14.7196 15.8135 14.4269 16.5201C14.1342 17.2267 14.0577 18.0043 14.2069 18.7545C14.3561 19.5046 14.7244 20.1937 15.2652 20.7345C15.8061 21.2754 16.4951 21.6437 17.2453 21.7929C17.9955 21.9421 18.773 21.8655 19.4797 21.5728C20.1863 21.2801 20.7903 20.7845 21.2152 20.1485C21.6401 19.5125 21.8669 18.7649 21.8669 18C21.8658 16.9747 21.458 15.9917 20.733 15.2667C20.008 14.5417 19.0251 14.1339 17.9998 14.1328ZM17.9998 20.8828C17.4296 20.8828 16.8722 20.7137 16.3982 20.397C15.9241 20.0802 15.5546 19.63 15.3364 19.1032C15.1182 18.5764 15.0611 17.9968 15.1723 17.4376C15.2836 16.8784 15.5581 16.3647 15.9613 15.9615C16.3645 15.5584 16.8781 15.2838 17.4373 15.1726C17.9966 15.0613 18.5762 15.1184 19.103 15.3366C19.6297 15.5548 20.08 15.9243 20.3967 16.3984C20.7135 16.8725 20.8826 17.4298 20.8826 18C20.8818 18.7643 20.5778 19.4971 20.0373 20.0376C19.4969 20.578 18.7641 20.882 17.9998 20.8828Z" fill="black"/>
<path d="M19.6875 17.5078C19.5569 17.5078 19.4317 17.5597 19.3394 17.652C19.2471 17.7443 19.1953 17.8695 19.1953 18C19.1945 18.2093 19.1392 18.4148 19.0346 18.5961C18.9301 18.7774 18.7801 18.9283 18.5993 19.0339C18.5435 19.0664 18.4946 19.1097 18.4554 19.1611C18.4163 19.2126 18.3877 19.2712 18.3712 19.3337C18.3548 19.3962 18.3508 19.4614 18.3595 19.5254C18.3682 19.5895 18.3894 19.6512 18.422 19.707C18.4545 19.7629 18.4978 19.8118 18.5492 19.8509C18.6007 19.89 18.6593 19.9187 18.7218 19.9351C18.7843 19.9516 18.8495 19.9556 18.9135 19.9469C18.9776 19.9382 19.0393 19.9169 19.0951 19.8844C19.4244 19.6919 19.6976 19.4168 19.8878 19.0863C20.078 18.7558 20.1786 18.3813 20.1796 18C20.1796 17.8695 20.1278 17.7443 20.0355 17.652C19.9432 17.5597 19.818 17.5078 19.6875 17.5078Z" fill="black"/>
<path d="M30.7209 16.8497C30.9003 16.8968 31.085 16.921 31.2705 16.9217C31.7014 16.9214 32.1226 16.7935 32.4808 16.554C32.839 16.3145 33.1182 15.9742 33.2832 15.5761C33.4481 15.1779 33.4913 14.7399 33.4074 14.3172C33.3235 13.8945 33.1162 13.5062 32.8117 13.2013C32.776 13.1659 32.738 13.1338 32.6992 13.1009C33.0648 11.7751 32.9805 10.6203 32.4312 9.66797C31.2499 7.62047 28.148 6.94969 23.8919 7.79709C22.4932 3.68747 20.3602 1.33594 18 1.33594C15.6397 1.33594 13.507 3.68719 12.1069 7.79738C7.84992 6.94941 4.74886 7.62047 3.56789 9.66769C3.03549 10.5874 2.94211 11.743 3.28158 13.0258C2.88089 13.3395 2.60258 13.7835 2.49491 14.2809C2.38724 14.7783 2.45698 15.2976 2.69205 15.749C2.92712 16.2003 3.3127 16.5552 3.78195 16.752C4.25121 16.9489 4.77456 16.9754 5.2613 16.8269C5.56535 17.2302 5.88433 17.6221 6.21755 18.0017C3.35752 21.2653 2.38749 24.2868 3.56761 26.332C4.41558 27.8021 6.25102 28.5646 8.79408 28.5646C9.90733 28.5509 11.0166 28.4293 12.1064 28.2012C13.5061 32.312 15.6394 34.6641 18 34.6641C19.0665 34.6641 20.1183 34.164 21.0636 33.2229C21.5287 33.4267 22.0504 33.4616 22.5385 33.3217C23.0266 33.1817 23.4504 32.8756 23.7369 32.4563C24.0233 32.037 24.1542 31.5309 24.1071 31.0253C24.0599 30.5197 23.8377 30.0465 23.4787 29.6873C23.4433 29.6516 23.4053 29.6193 23.3679 29.5867C23.5595 29.1311 23.7353 28.669 23.895 28.2012C24.9842 28.4294 26.093 28.5511 27.2058 28.5646C29.7486 28.5646 31.5843 27.8018 32.4323 26.332C33.6136 24.2868 32.6424 21.2653 29.7829 18.002C30.1095 17.6294 30.4224 17.2451 30.7209 16.8497ZM32.1153 15.588C31.891 15.8117 31.5871 15.9373 31.2703 15.9373C30.9535 15.9373 30.6496 15.8117 30.4253 15.588C30.2583 15.4209 30.1446 15.208 30.0986 14.9763C30.0526 14.7445 30.0763 14.5043 30.1667 14.2861C30.2572 14.0678 30.4103 13.8813 30.6068 13.7501C30.8032 13.6188 31.0342 13.5488 31.2705 13.5488C31.5067 13.5488 31.7377 13.6188 31.9341 13.7501C32.1306 13.8813 32.2837 14.0678 32.3742 14.2861C32.4646 14.5043 32.4883 14.7445 32.4423 14.9763C32.3963 15.208 32.2823 15.4209 32.1153 15.588ZM31.5795 10.1599C31.9646 10.8284 32.0388 11.6595 31.8071 12.6349C31.3449 12.5173 30.8569 12.5547 30.418 12.7413C29.9791 12.9279 29.6136 13.2534 29.3775 13.6677C29.1414 14.0821 29.0479 14.5625 29.1112 15.0352C29.1746 15.5079 29.3913 15.9467 29.7281 16.2844C29.7635 16.3201 29.8015 16.3522 29.8389 16.3851C29.6105 16.6824 29.3694 16.9776 29.1155 17.2704C27.9091 16.0177 26.5951 14.8732 25.1887 13.8502C25.005 12.1213 24.6719 10.4115 24.1931 8.74013C27.9022 8.02294 30.6452 8.54044 31.5795 10.1599ZM23.2281 27.0512C21.8588 26.7171 20.5165 26.2808 19.2124 25.7459C20.9097 24.928 22.5431 23.9839 24.0991 22.9216C23.9124 24.318 23.6213 25.6984 23.2281 27.0512ZM12.7718 27.0512C12.3783 25.6984 12.0869 24.318 11.8999 22.9216C13.4564 23.9837 15.0903 24.9277 16.7878 25.7459C15.4836 26.2808 14.1412 26.7171 12.7718 27.0512ZM12.7718 8.94881C14.1411 9.28289 15.4834 9.7192 16.7875 10.2541C15.0905 11.0739 13.4566 12.0184 11.8994 13.0798C12.0864 11.6829 12.378 10.302 12.7718 8.94881ZM10.6875 20.8221C9.57097 19.9623 8.5215 19.0189 7.54814 18C8.52159 16.9812 9.57105 16.0378 10.6875 15.1779C10.5461 17.0567 10.5461 18.9433 10.6875 20.8221ZM14.7844 23.5727C13.7393 22.9696 12.7248 22.3147 11.745 21.6104C11.6274 20.4317 11.5655 19.2198 11.5655 18C11.5655 16.7802 11.6274 15.5686 11.745 14.3896C12.7248 13.6853 13.7392 13.0304 14.7844 12.4273C15.8287 11.824 16.9019 11.2723 18.0002 10.7741C19.0987 11.2724 20.1721 11.8241 21.2166 12.4273C22.2618 13.0304 23.2762 13.6853 24.2561 14.3896C24.3736 15.5683 24.4355 16.7802 24.4355 18C24.4355 19.2198 24.3736 20.4314 24.2561 21.6104C23.2762 22.3147 22.2618 22.9696 21.2166 23.5727C20.1723 24.176 19.0991 24.7277 18.0008 25.2259C16.9021 24.7277 15.8285 24.176 14.7839 23.5727H14.7844ZM23.2287 8.94769C23.6221 10.3005 23.9136 11.6809 24.1005 13.0773C23.3223 12.5469 22.5249 12.0453 21.7099 11.5734C20.8936 11.1035 20.0605 10.6634 19.2121 10.2541C20.5163 9.71924 21.8587 9.28293 23.2281 8.94881L23.2287 8.94769ZM25.3125 15.1779C26.4289 16.0377 27.4784 16.9811 28.4518 18C27.4783 19.0188 26.4289 19.9622 25.3125 20.8221C25.4538 18.9433 25.4538 17.0567 25.3125 15.1779ZM18 2.32031C19.8669 2.32031 21.688 4.43784 22.926 8.00859C21.2384 8.42814 19.5901 8.99274 17.9997 9.69609C16.4094 8.99266 14.7614 8.42806 13.0739 8.00859C14.3122 4.43756 16.133 2.32031 18 2.32031ZM3.77686 15.588C3.5807 15.3924 3.45843 15.1349 3.43091 14.8593C3.40338 14.5836 3.4723 14.307 3.62592 14.0765C3.77953 13.846 4.00833 13.6759 4.27332 13.5952C4.5383 13.5145 4.82307 13.5282 5.07907 13.634C5.33508 13.7398 5.54648 13.9311 5.67723 14.1753C5.80799 14.4195 5.85 14.7015 5.79612 14.9732C5.74224 15.2449 5.59579 15.4895 5.38174 15.6653C5.16769 15.8411 4.89929 15.9372 4.6223 15.9373C4.46523 15.938 4.30959 15.9074 4.16441 15.8475C4.01924 15.7875 3.88769 15.6993 3.77686 15.588ZM6.16327 13.2013C5.90858 12.9471 5.59491 12.7598 5.25025 12.6563C4.90559 12.5528 4.54066 12.5363 4.18805 12.6082C3.9608 11.6446 4.03674 10.8222 4.42008 10.1613C5.35467 8.541 8.0977 8.02378 11.8068 8.74125C11.328 10.4128 10.9948 12.1226 10.8109 13.8516C9.40446 14.8736 8.09039 16.017 6.88383 17.2688C6.60989 16.9526 6.35395 16.6384 6.11602 16.326C6.13149 16.3114 6.14808 16.2979 6.16327 16.283C6.57154 15.8739 6.80085 15.3196 6.80085 14.7417C6.80085 14.1638 6.57154 13.6095 6.16327 13.2005V13.2013ZM4.41952 25.8398C3.48745 24.2221 4.41052 21.5871 6.88524 18.7312C8.09142 19.9834 9.40511 21.1273 10.8112 22.1498C10.9949 23.8787 11.328 25.5885 11.8068 27.2599C8.09742 27.9765 5.35439 27.4596 4.42008 25.8398H4.41952ZM22.7826 32.0737C22.587 32.27 22.3294 32.3923 22.0537 32.4199C21.778 32.4474 21.5013 32.3785 21.2707 32.2248C21.0401 32.0712 20.87 31.8423 20.7893 31.5773C20.7086 31.3122 20.7223 31.0274 20.8281 30.7713C20.9339 30.5152 21.1252 30.3038 21.3695 30.173C21.6138 30.0422 21.8958 30.0002 22.1676 30.0541C22.4394 30.108 22.684 30.2545 22.8599 30.4686C23.0357 30.6828 23.1319 30.9512 23.1319 31.2283C23.132 31.5453 23.0064 31.8493 22.7826 32.0737ZM21.9389 29.0495C21.5241 29.0494 21.1179 29.1678 20.768 29.3907C20.4182 29.6136 20.1392 29.9317 19.9639 30.3076C19.7887 30.6836 19.7243 31.1018 19.7785 31.513C19.8327 31.9243 20.0032 32.3115 20.2699 32.6292C19.5387 33.3259 18.777 33.6797 18.0014 33.6797C16.1344 33.6797 14.3133 31.5622 13.0753 27.9914C14.7629 27.5719 16.4112 27.0073 18.0016 26.3039C19.5922 27.0074 21.2407 27.572 22.9286 27.9914C22.7908 28.3866 22.6473 28.7648 22.4971 29.1234C22.3146 29.0747 22.1264 29.0498 21.9375 29.0495H21.9389ZM31.5812 25.8398C30.6466 27.4598 27.9036 27.9773 24.1945 27.2599C24.6733 25.5884 25.0065 23.8785 25.1904 22.1496C26.5959 21.1271 27.9091 19.9833 29.1147 18.7312C31.5894 21.5871 32.5125 24.2221 31.5798 25.8398H31.5812Z" fill="black"/>
</svg>
