<svg width="15" height="12" viewBox="0 0 15 12" fill="none" xmlns="http://www.w3.org/2000/svg">
<path d="M0.743802 11.7938C0.892056 11.8477 1.05093 11.8753 1.2113 11.875C1.36947 11.8757 1.52618 11.8484 1.67218 11.7947C1.81818 11.741 1.95049 11.6621 2.0613 11.5625L3.83214 10H10.6251C11.5644 10 12.4652 9.67076 13.1294 9.08471C13.7936 8.49866 14.1667 7.7038 14.1667 6.875V3.125C14.1667 2.2962 13.7936 1.50134 13.1294 0.915291C12.4652 0.32924 11.5644 0 10.6251 0H3.54172C2.60241 0 1.70157 0.32924 1.03738 0.915291C0.373191 1.50134 5.26088e-05 2.2962 5.26088e-05 3.125V10.8063C-0.00219281 11.0176 0.0674871 11.2247 0.20008 11.4008C0.332673 11.5768 0.52208 11.7137 0.743802 11.7938V11.7938ZM1.41672 3.125C1.41672 2.62772 1.6406 2.15081 2.03912 1.79918C2.43763 1.44754 2.97813 1.25 3.54172 1.25H10.6251C11.1886 1.25 11.7291 1.44754 12.1277 1.79918C12.5262 2.15081 12.7501 2.62772 12.7501 3.125V6.875C12.7501 7.37228 12.5262 7.8492 12.1277 8.20083C11.7291 8.55246 11.1886 8.75 10.6251 8.75H3.54172C3.4485 8.74953 3.35609 8.76529 3.26979 8.79639C3.18348 8.8275 3.10499 8.87333 3.0388 8.93125L1.41672 10.3688V3.125Z" fill="#2D9CDB"/>
<path d="M9.91683 5.62488C10.308 5.62488 10.6252 5.34506 10.6252 4.99988C10.6252 4.6547 10.308 4.37488 9.91683 4.37488C9.52563 4.37488 9.2085 4.6547 9.2085 4.99988C9.2085 5.34506 9.52563 5.62488 9.91683 5.62488Z" fill="#2D9CDB"/>
<path d="M4.25008 5.62488C4.64128 5.62488 4.95842 5.34506 4.95842 4.99988C4.95842 4.6547 4.64128 4.37488 4.25008 4.37488C3.85888 4.37488 3.54175 4.6547 3.54175 4.99988C3.54175 5.34506 3.85888 5.62488 4.25008 5.62488Z" fill="#2D9CDB"/>
<path d="M7.08358 5.62488C7.47478 5.62488 7.79191 5.34506 7.79191 4.99988C7.79191 4.6547 7.47478 4.37488 7.08358 4.37488C6.69238 4.37488 6.37524 4.6547 6.37524 4.99988C6.37524 5.34506 6.69238 5.62488 7.08358 5.62488Z" fill="#2D9CDB"/>
</svg>
