<svg width="13" height="14" viewBox="0 0 13 14" fill="none" xmlns="http://www.w3.org/2000/svg">
<path d="M8.5625 10.5899H12L11.0341 9.65331C10.7722 9.3993 10.625 9.05478 10.625 8.69556V6.58993C10.625 4.8483 9.47714 3.36665 7.875 2.81754V2.58993C7.875 1.85355 7.25939 1.25659 6.5 1.25659C5.74061 1.25659 5.125 1.85355 5.125 2.58993V2.81754C3.52286 3.36665 2.375 4.8483 2.375 6.58993V8.69556C2.375 9.05478 2.22784 9.3993 1.96589 9.65331L1 10.5899H4.4375M8.5625 10.5899V11.2566C8.5625 12.3612 7.63909 13.2566 6.5 13.2566C5.36091 13.2566 4.4375 12.3612 4.4375 11.2566V10.5899M8.5625 10.5899H4.4375" stroke="#1BCFB4" stroke-width="1.2" stroke-linecap="round" stroke-linejoin="round"/>
</svg>
