<svg width="17" height="18" viewBox="0 0 17 18" fill="none" xmlns="http://www.w3.org/2000/svg">
<path d="M8.45006 6.42871C7.92908 6.42871 7.41979 6.5832 6.98661 6.87264C6.55343 7.16209 6.2158 7.57349 6.01643 8.05481C5.81706 8.53614 5.76489 9.06578 5.86653 9.57675C5.96817 10.0877 6.21905 10.5571 6.58744 10.9255C6.95583 11.2939 7.42519 11.5447 7.93617 11.6464C8.44714 11.748 8.97678 11.6959 9.45811 11.4965C9.93943 11.2971 10.3508 10.9595 10.6403 10.5263C10.9297 10.0931 11.0842 9.58384 11.0842 9.06286C11.0834 8.36449 10.8056 7.69496 10.3118 7.20114C9.81796 6.70732 9.14843 6.42953 8.45006 6.42871ZM8.45006 10.6433C8.13747 10.6433 7.8319 10.5506 7.57199 10.377C7.31208 10.2033 7.10951 9.95648 6.98988 9.66768C6.87026 9.37889 6.83896 9.0611 6.89995 8.75452C6.96093 8.44793 7.11146 8.16632 7.33249 7.94528C7.55352 7.72425 7.83514 7.57372 8.14173 7.51274C8.44831 7.45175 8.76609 7.48305 9.05489 7.60268C9.34368 7.7223 9.59052 7.92487 9.76419 8.18478C9.93786 8.44469 10.0305 8.75026 10.0305 9.06286C10.0301 9.48189 9.86343 9.88362 9.56713 10.1799C9.27083 10.4762 8.86909 10.6429 8.45006 10.6433Z" fill="#FF5B5B"/>
<path d="M3.32583 5.78743C3.06678 5.6901 2.78003 5.69737 2.52623 5.80768C2.27244 5.918 2.07151 6.12271 1.96595 6.37852C1.86039 6.63433 1.85848 6.92117 1.96062 7.17836C2.06276 7.43556 2.26095 7.64293 2.51325 7.75662C2.76993 7.86518 2.98892 8.04696 3.14289 8.27926C3.29686 8.51156 3.37897 8.78407 3.37897 9.06276C3.37897 9.34145 3.29686 9.61396 3.14289 9.84626C2.98892 10.0786 2.76993 10.2603 2.51325 10.3689C2.26089 10.4826 2.06265 10.69 1.9605 10.9472C1.85834 11.2045 1.86027 11.4914 1.96589 11.7472C2.0715 12.0031 2.27252 12.2078 2.52639 12.3181C2.78026 12.4283 3.06708 12.4355 3.32615 12.3381C3.58467 12.2328 3.86852 12.2061 4.14212 12.2614C4.41573 12.3167 4.66693 12.4516 4.86427 12.649C5.0616 12.8464 5.19629 13.0977 5.25146 13.3713C5.30663 13.645 5.27984 13.9288 5.17443 14.1873C5.07395 14.447 5.08018 14.7359 5.19178 14.9911C5.30337 15.2463 5.51129 15.447 5.77022 15.5496C5.89989 15.6033 6.03886 15.6309 6.1792 15.6309C6.38422 15.6323 6.5851 15.5732 6.75666 15.4609C6.92823 15.3487 7.06283 15.1883 7.14361 14.9998C7.25218 14.7432 7.43396 14.5242 7.66626 14.3702C7.89855 14.2162 8.17106 14.1341 8.44975 14.1341C8.72844 14.1341 9.00095 14.2162 9.23325 14.3702C9.46555 14.5242 9.64733 14.7432 9.7559 14.9998C9.86958 15.2522 10.077 15.4504 10.3342 15.5526C10.5915 15.6548 10.8784 15.6528 11.1342 15.5472C11.3901 15.4416 11.5948 15.2406 11.7051 14.9867C11.8153 14.7328 11.8225 14.446 11.7251 14.1869C11.6198 13.9284 11.5931 13.6446 11.6484 13.371C11.7037 13.0974 11.8386 12.8462 12.036 12.6488C12.2334 12.4515 12.4847 12.3168 12.7583 12.2616C13.0319 12.2065 13.3158 12.2333 13.5743 12.3387C13.8324 12.4389 14.1196 12.4335 14.3738 12.3237C14.628 12.2139 14.8287 12.0085 14.9327 11.7519L14.4496 11.542L13.9702 11.3624C13.52 11.1785 13.0253 11.1318 12.5486 11.2282C12.0719 11.3246 11.6342 11.5598 11.2908 11.9042C10.9476 12.2501 10.7119 12.688 10.6119 13.1649C10.5119 13.6418 10.5521 14.1374 10.7274 14.5921C10.5395 14.1434 10.223 13.7604 9.81768 13.4913C9.4124 13.2223 8.93655 13.0792 8.4501 13.0802C7.96258 13.0817 7.48596 13.2245 7.0779 13.4913C6.66983 13.758 6.34783 14.1373 6.15085 14.5833C6.33468 14.133 6.38134 13.6384 6.28495 13.1617C6.18856 12.685 5.95344 12.2474 5.60911 11.9039C5.26314 11.5607 4.82532 11.325 4.34842 11.225C3.87151 11.1251 3.37587 11.1652 2.92123 11.3405C3.3699 11.1525 3.75288 10.8359 4.02187 10.4306C4.29086 10.0252 4.43383 9.54935 4.43276 9.06289C4.43125 8.57538 4.28847 8.09875 4.02172 7.69069C3.75496 7.28263 3.37566 6.96062 2.92971 6.76365C3.37998 6.94759 3.87458 6.9943 4.35133 6.89791C4.82807 6.80152 5.26567 6.56633 5.60911 6.22191C5.95229 5.87597 6.18807 5.43814 6.28804 4.96122C6.388 4.48431 6.34788 3.98865 6.17251 3.53402C6.36049 3.98269 6.6771 4.36567 7.08242 4.63466C7.48775 4.90366 7.96364 5.04663 8.4501 5.04555C8.93761 5.04404 9.41424 4.90127 9.8223 4.63451C10.2304 4.36776 10.5524 3.98845 10.7493 3.5425C10.5655 3.99279 10.5189 4.48736 10.6152 4.96408C10.7116 5.4408 10.9468 5.87841 11.2911 6.22191C11.6371 6.56491 12.0749 6.80057 12.5518 6.90052C13.0287 7.00048 13.5243 6.96046 13.979 6.7853C13.5325 6.97288 13.151 7.28774 12.8822 7.69062C12.6135 8.0935 12.4692 8.56658 12.4675 9.05089C12.4657 9.5352 12.6065 10.0093 12.8724 10.4141C13.1383 10.8189 13.5174 11.1365 13.9625 11.3274C13.964 11.3317 13.964 11.3364 13.9625 11.3407L14.4495 11.5417L14.9336 11.7492L14.9364 11.7426C15.044 11.4874 15.0466 11.2002 14.9437 10.9431C14.8409 10.6861 14.6408 10.4799 14.3869 10.3694C14.1303 10.2609 13.9113 10.0791 13.7573 9.84678C13.6033 9.61449 13.5212 9.34197 13.5212 9.06328C13.5212 8.7846 13.6033 8.51208 13.7573 8.27979C13.9113 8.04749 14.1303 7.86571 14.3869 7.75714C14.6393 7.64346 14.8375 7.43605 14.9397 7.1788C15.0419 6.92155 15.0399 6.63465 14.9343 6.37881C14.8287 6.12296 14.6277 5.91824 14.3738 5.80797C14.1199 5.69769 13.8331 5.69052 13.574 5.78796C13.3155 5.89324 13.0317 5.9199 12.7581 5.8646C12.4845 5.80929 12.2333 5.67448 12.0359 5.47705C11.8386 5.27962 11.7039 5.02835 11.6487 4.75472C11.5936 4.48109 11.6204 4.19726 11.7258 3.93879C11.8232 3.67973 11.816 3.39294 11.7057 3.13909C11.5954 2.88525 11.3907 2.68427 11.1348 2.57868C10.879 2.47309 10.5921 2.47117 10.3349 2.57333C10.0777 2.67548 9.87031 2.8737 9.75663 3.12605C9.64807 3.38272 9.46629 3.60172 9.23399 3.75568C9.00169 3.90965 8.72918 3.99176 8.45049 3.99176C8.1718 3.99176 7.89929 3.90965 7.66699 3.75568C7.4347 3.60172 7.25291 3.38272 7.14435 3.12605C7.03066 2.87368 6.82325 2.67545 6.56601 2.57329C6.30876 2.47113 6.02186 2.47307 5.76601 2.57868C5.51017 2.6843 5.30545 2.88531 5.19517 3.13918C5.0849 3.39306 5.07773 3.67987 5.17516 3.93894C5.28045 4.19747 5.30711 4.48131 5.2518 4.75492C5.1965 5.02852 5.06169 5.27973 4.86426 5.47706C4.66683 5.67439 4.41556 5.80908 4.14193 5.86425C3.86829 5.91943 3.58446 5.89263 3.32599 5.78722L3.32583 5.78743Z" fill="#FF5B5B"/>
</svg>
