<svg width="17" height="17" viewBox="0 0 17 17" fill="none" xmlns="http://www.w3.org/2000/svg">
<g clip-path="url(#clip0_2901_7365)">
<path d="M7.90332 6.02624V0.90332" stroke="#A05AFF" stroke-width="1.73116" stroke-linecap="round" stroke-linejoin="round"/>
<path d="M8.50342 10.7961C9.7077 12.0004 12.1163 13.2471 15.127 13.2471" stroke="#A05AFF" stroke-width="1.73116" stroke-linecap="round"/>
<path d="M3.34533 16.2476C3.34533 15.9575 3.34604 15.6016 3.34702 15.2521C3.34967 14.3001 3.13823 13.3538 2.63768 12.544C1.72824 11.0729 0.976562 10.1062 0.976562 7.22575C0.976562 4.55038 1.93089 2.72407 3.67902 1.74683" stroke="#A05AFF" stroke-width="1.73116" stroke-linecap="round" stroke-linejoin="round"/>
<path d="M14.0788 11.1098V10.3812L15.0239 10.3575C15.1793 10.3574 15.3326 10.3199 15.4705 10.2481C15.6085 10.1763 15.7272 10.0724 15.8165 9.94506C16.4373 9.05998 13.9094 6.9137 13.7297 5.62373C13.447 3.59326 12.4008 2.32734 10.9746 1.62378" stroke="#A05AFF" stroke-width="1.73116" stroke-linecap="round" stroke-linejoin="round"/>
<path d="M10.5933 14.7522V16.2474" stroke="#A05AFF" stroke-width="1.73116" stroke-linecap="round" stroke-linejoin="round"/>
<path d="M7.90369 10.8386C9.44517 10.8386 10.3123 9.97154 10.3123 8.43006C10.3123 6.88857 9.44517 6.02148 7.90369 6.02148C6.3622 6.02148 5.49512 6.88857 5.49512 8.43006C5.49512 9.97154 6.3622 10.8386 7.90369 10.8386Z" stroke="#A05AFF" stroke-width="1.73116" stroke-linecap="round" stroke-linejoin="round"/>
</g>
<defs>
<clipPath id="clip0_2901_7365">
<rect width="16.86" height="16.86" fill="white" transform="translate(0.0732422)"/>
</clipPath>
</defs>
</svg>
