<svg width="115" height="111" viewBox="0 0 115 111" fill="none" xmlns="http://www.w3.org/2000/svg">
<circle cx="12.3307" cy="6.16667" r="6.16667" fill="url(#paint0_linear_3431_32669)"/>
<circle cx="65.6745" cy="2.77604" r="1.54167" fill="url(#paint1_linear_3431_32669)"/>
<circle cx="6.16927" cy="82.0208" r="3.08333" fill="url(#paint2_linear_3431_32669)"/>
<circle cx="110.078" cy="16.9609" r="4.625" fill="url(#paint3_linear_3431_32669)"/>
<circle cx="102.057" cy="98.9792" r="1.54167" fill="url(#paint4_linear_3431_32669)"/>
<circle cx="105.143" cy="68.1432" r="1.54167" fill="url(#paint5_linear_3431_32669)"/>
<circle cx="75.2339" cy="105.453" r="0.616667" fill="url(#paint6_linear_3431_32669)"/>
<circle cx="38.5411" cy="108.846" r="2.15833" fill="url(#paint7_linear_3431_32669)"/>
<circle cx="0.616667" cy="58.5854" r="0.616667" fill="url(#paint8_linear_3431_32669)"/>
<circle cx="59.5104" cy="59.8151" r="43.1667" fill="url(#paint9_linear_3431_32669)"/>
<path d="M52.1406 52.7663C52.1406 44.182 65.6302 44.1821 65.6302 52.7663C65.6302 58.898 59.4986 57.6715 59.4986 65.0294" stroke="white" stroke-width="2.69792" stroke-linecap="round" stroke-linejoin="round"/>
<path d="M59.5156 72.4242L59.5336 72.4043" stroke="white" stroke-width="2.69792" stroke-linecap="round" stroke-linejoin="round"/>
<defs>
<linearGradient id="paint0_linear_3431_32669" x1="6.19652" y1="-8.5343e-08" x2="17.781" y2="0.848803" gradientUnits="userSpaceOnUse">
<stop stop-color="#2E7D32"/>
<stop offset="1" stop-color="#66BB6A"/>
</linearGradient>
<linearGradient id="paint1_linear_3431_32669" x1="64.1409" y1="1.23437" x2="67.037" y2="1.44658" gradientUnits="userSpaceOnUse">
<stop stop-color="#2E7D32"/>
<stop offset="1" stop-color="#66BB6A"/>
</linearGradient>
<linearGradient id="paint2_linear_3431_32669" x1="3.10217" y1="78.9375" x2="8.8944" y2="79.3619" gradientUnits="userSpaceOnUse">
<stop stop-color="#2E7D32"/>
<stop offset="1" stop-color="#66BB6A"/>
</linearGradient>
<linearGradient id="paint3_linear_3431_32669" x1="105.477" y1="12.3359" x2="114.166" y2="12.9725" gradientUnits="userSpaceOnUse">
<stop stop-color="#2E7D32"/>
<stop offset="1" stop-color="#66BB6A"/>
</linearGradient>
<linearGradient id="paint4_linear_3431_32669" x1="100.524" y1="97.4375" x2="103.42" y2="97.6497" gradientUnits="userSpaceOnUse">
<stop stop-color="#2E7D32"/>
<stop offset="1" stop-color="#66BB6A"/>
</linearGradient>
<linearGradient id="paint5_linear_3431_32669" x1="103.61" y1="66.6016" x2="106.506" y2="66.8138" gradientUnits="userSpaceOnUse">
<stop stop-color="#2E7D32"/>
<stop offset="1" stop-color="#66BB6A"/>
</linearGradient>
<linearGradient id="paint6_linear_3431_32669" x1="74.6204" y1="104.836" x2="75.7789" y2="104.921" gradientUnits="userSpaceOnUse">
<stop stop-color="#2E7D32"/>
<stop offset="1" stop-color="#66BB6A"/>
</linearGradient>
<linearGradient id="paint7_linear_3431_32669" x1="36.3942" y1="106.687" x2="40.4487" y2="106.985" gradientUnits="userSpaceOnUse">
<stop stop-color="#2E7D32"/>
<stop offset="1" stop-color="#66BB6A"/>
</linearGradient>
<linearGradient id="paint8_linear_3431_32669" x1="0.00324561" y1="57.9687" x2="1.16169" y2="58.0536" gradientUnits="userSpaceOnUse">
<stop stop-color="#2E7D32"/>
<stop offset="1" stop-color="#66BB6A"/>
</linearGradient>
<linearGradient id="paint9_linear_3431_32669" x1="16.5709" y1="16.6484" x2="97.6622" y2="22.5901" gradientUnits="userSpaceOnUse">
<stop stop-color="#2E7D32"/>
<stop offset="1" stop-color="#66BB6A"/>
</linearGradient>
</defs>
</svg>
