<svg width="1440" height="465" viewBox="0 0 1440 465" fill="none" xmlns="http://www.w3.org/2000/svg">
<path d="M-28.0477 274.712C-28.0477 274.712 131.543 153.56 250.337 182.145C369.129 210.732 368.64 310.622 541.44 317.503C714.24 324.386 776.355 274.51 1116.75 202.036C1476.35 125.47 1499.52 274.712 1499.52 274.712V495.535L-43.3866 482.999L-28.0477 274.712Z" fill="url(#paint0_linear_1846_31142)"/>
<path d="M47.1077 535.895C46.5817 535.411 46.4741 534.601 46.8831 533.988C100.491 454.028 120.619 395.46 120.817 394.877C121.078 394.105 121.917 393.69 122.689 393.951C123.46 394.214 123.877 395.051 123.614 395.823C123.416 396.409 103.183 455.316 49.3369 535.632C48.8818 536.31 47.9641 536.49 47.2863 536.037C47.2229 535.993 47.1634 535.945 47.1077 535.895Z" fill="#757C6B"/>
<path d="M76.875 488.31C76.875 488.31 121.173 433.093 133.419 457.87C145.663 482.646 76.875 488.31 76.875 488.31Z" fill="#757C6B"/>
<path d="M102.033 442.739C102.033 442.739 146.331 387.521 158.577 412.299C170.823 437.075 102.033 442.739 102.033 442.739Z" fill="#757C6B"/>
<path d="M119.831 402.361C119.831 402.361 127.095 331.945 150.822 346.116C174.549 360.288 119.831 402.361 119.831 402.361Z" fill="#757C6B"/>
<path d="M82.4929 479.635C82.4929 479.635 97.9297 410.548 70.9345 416.467C43.9374 422.387 82.4929 479.635 82.4929 479.635Z" fill="#757C6B"/>
<path d="M108.135 431.13C108.135 431.13 123.571 362.043 96.5761 367.962C69.5809 373.88 108.135 431.13 108.135 431.13Z" fill="#757C6B"/>
<path d="M55.7281 524.22C55.7281 524.22 71.1649 455.132 44.1697 461.051C17.1726 466.971 55.7281 524.22 55.7281 524.22Z" fill="#757C6B"/>
<path d="M863.721 510.436C863.721 510.436 806.16 469.229 830.229 455.645C854.296 442.061 863.721 510.436 863.721 510.436Z" fill="#757C6B"/>
<path d="M816.84 487.813C816.84 487.813 759.278 446.606 783.347 433.022C807.416 419.438 816.84 487.813 816.84 487.813Z" fill="#757C6B"/>
<path d="M775.55 472.253C775.55 472.253 704.84 468.858 717.692 444.39C730.543 419.923 775.55 472.253 775.55 472.253Z" fill="#757C6B"/>
<path d="M1544.76 329.395C1545.11 330.019 1544.96 330.822 1544.38 331.277C1468.49 390.509 1431.09 439.87 1430.72 440.361C1430.23 441.014 1429.31 441.145 1428.65 440.657C1428 440.168 1427.87 439.242 1428.36 438.589C1428.73 438.094 1466.34 388.447 1542.56 328.95C1543.21 328.448 1544.14 328.562 1544.64 329.205C1544.69 329.264 1544.73 329.33 1544.76 329.395Z" fill="#757C6B"/>
<path d="M1501.63 365.313C1501.63 365.313 1442.31 403.943 1438.41 376.583C1434.51 349.221 1501.63 365.313 1501.63 365.313Z" fill="#757C6B"/>
<path d="M1463.51 400.754C1463.51 400.754 1404.19 439.384 1400.29 412.024C1396.39 384.662 1463.51 400.754 1463.51 400.754Z" fill="#757C6B"/>
<path d="M1433.99 433.557C1433.99 433.557 1405.11 498.188 1387 477.318C1368.88 456.449 1433.99 433.557 1433.99 433.557Z" fill="#757C6B"/>
<path d="M1454.08 409.878C1454.08 409.878 1417.85 470.694 1445.35 473.497C1472.85 476.3 1454.08 409.878 1454.08 409.878Z" fill="#757C6B"/>
<path d="M-106.282 78.0866C-106.282 78.0866 -84.6112 37.8818 -35.1597 13.9528C14.2919 -9.97612 31.2282 3.2354 35.4656 10.6428C39.703 18.0501 37.7658 45.0626 -14.3392 63.3256C-66.4441 81.5848 -106.282 78.0866 -106.282 78.0866Z" fill="#9DA48F"/>
<path d="M-16.6506 64.9594C-16.3549 64.464 -16.5123 63.8246 -17.0077 63.5271C-21.1299 61.0503 -47.7719 55.3152 -56.8035 53.4164C-45.5159 47.6928 -33.8231 41.9021 -22.3376 36.4301C-19.2426 36.8007 5.20477 39.8746 20.2 45.9284C20.7337 46.1434 21.3424 45.8861 21.5574 45.3524C21.7725 44.8167 21.5133 44.2081 20.9814 43.9949C8.27101 38.8628 -10.9827 35.856 -18.8586 34.7789C1.35133 25.2269 20.7107 16.7943 35.8038 11.6276C36.3491 11.4413 36.639 10.8481 36.4528 10.3028C36.2646 9.74214 35.6733 9.46755 35.128 9.65379C19.8371 14.8877 0.197418 23.4567 -20.2736 33.1431C-14.0144 21.8093 3.17149 1.94309 3.35965 1.72805C3.73788 1.29413 3.6899 0.633654 3.25598 0.255414C2.82014 -0.122826 2.16158 -0.0748536 1.78333 0.359066C0.953888 1.31523 -18.3728 23.6583 -23.3514 34.6042C-34.8272 40.0743 -46.5027 45.8573 -57.7751 51.5732C-53.7584 43.9277 -40.9808 23.5258 -35.6874 15.2026C-35.3783 14.7169 -35.5223 14.0717 -36.008 13.7626C-36.4938 13.4535 -37.1389 13.5956 -37.448 14.0832C-38.3293 15.4676 -58.5258 47.2455 -60.8106 53.113C-100.555 73.3498 -134.456 92.2676 -135.076 92.6132C-135.556 92.88 -135.742 93.4733 -135.512 93.9649C-135.501 93.9879 -135.489 94.0109 -135.477 94.032C-135.197 94.535 -134.562 94.7136 -134.059 94.4333C-133.438 94.0877 -99.5101 75.1565 -59.7795 54.9274C-49.0794 57.1316 -21.8307 63.0643 -18.0848 65.3146C-17.5875 65.6122 -16.9463 65.4528 -16.6506 64.9594Z" fill="#D1DBBE"/>
<path d="M-7.80864 496.462C-7.80864 496.462 -42.9101 449.36 -43.9507 378.714C-44.9894 308.068 -20.3904 295.497 -9.45408 294.582C1.48224 293.664 31.9238 310.594 24.9139 381.256C17.9059 451.92 -7.80864 496.462 -7.80864 496.462Z" fill="#9DA48F"/>
<path d="M25.5667 384.839C25.1501 384.226 24.3187 384.061 23.7043 384.478C18.5779 387.94 -2.57857 415.883 -9.69409 425.382C-10.2355 409.113 -10.6368 392.338 -10.7808 375.976C-8.66689 372.57 8.19455 345.738 23.3952 331.544C23.9366 331.039 23.9654 330.19 23.4605 329.649C22.9517 329.107 22.103 329.078 21.5654 329.583C8.68031 341.614 -5.28193 362.429 -10.8154 371.025C-10.9747 342.276 -10.2931 315.128 -8.11969 294.726C-8.04097 293.988 -8.57473 293.328 -9.31009 293.249C-10.0666 293.163 -10.7078 293.704 -10.7866 294.44C-12.9888 315.108 -13.6666 342.66 -13.4899 371.785C-23.303 358.331 -37.129 327.508 -37.2787 327.172C-37.5802 326.496 -38.3751 326.193 -39.0509 326.494C-39.7267 326.797 -40.0301 327.59 -39.7286 328.266C-39.0643 329.75 -23.5123 364.418 -13.4573 376.166C-13.3133 392.515 -12.912 409.269 -12.3706 425.514C-19.1002 416.678 -35.9462 390.703 -42.7757 380.01C-43.1731 379.386 -44.0026 379.204 -44.6285 379.601C-45.2544 379.999 -45.4368 380.828 -45.0375 381.454C-43.9027 383.234 -17.8234 424.038 -12.2227 429.888C-10.2144 487.211 -6.57409 537.009 -6.50689 537.921C-6.45505 538.627 -5.86561 539.163 -5.16865 539.163C-5.13601 539.163 -5.10337 539.161 -5.07073 539.159C-4.33153 539.105 -3.77857 538.462 -3.83233 537.723C-3.89953 536.813 -7.54369 486.975 -9.54817 429.673C-1.16737 418.395 20.5478 389.85 25.2057 386.707C25.8201 386.287 25.9814 385.453 25.5667 384.839Z" fill="#D1DBBE"/>
<path d="M1205.34 542.671C1205.34 542.671 1154.3 513.602 1125.01 449.303C1095.73 385.004 1113.22 363.623 1122.87 358.397C1132.52 353.171 1167.2 356.471 1189.12 424.013C1211.03 491.555 1205.34 542.671 1205.34 542.671Z" fill="#9DA48F"/>
<path d="M1191.15 427.033C1190.52 426.637 1189.7 426.82 1189.3 427.448C1185.99 432.674 1177.82 466.758 1175.11 478.312C1168.09 463.628 1160.99 448.422 1154.3 433.49C1154.87 429.523 1159.55 398.179 1167.79 379.081C1168.08 378.401 1167.77 377.61 1167.09 377.318C1166.4 377.026 1165.61 377.341 1165.32 378.019C1158.34 394.209 1153.9 418.875 1152.28 428.968C1140.6 402.697 1130.34 377.553 1124.15 357.994C1123.93 357.287 1123.17 356.895 1122.47 357.118C1121.74 357.343 1121.37 358.095 1121.59 358.802C1127.86 378.618 1138.29 404.129 1150.13 430.738C1135.75 422.35 1110.72 399.659 1110.45 399.412C1109.9 398.913 1109.05 398.955 1108.55 399.502C1108.05 400.051 1108.1 400.898 1108.64 401.397C1109.85 402.491 1138 428.01 1151.92 434.74C1158.61 449.658 1165.69 464.845 1172.71 479.508C1163 474.115 1137.15 457.075 1126.61 450.019C1125.99 449.608 1125.16 449.773 1124.75 450.388C1124.33 451.004 1124.5 451.837 1125.11 452.248C1126.87 453.423 1167.12 480.344 1174.6 483.456C1199.43 535.163 1222.73 579.32 1223.16 580.128C1223.49 580.754 1224.25 581.009 1224.88 580.729C1224.92 580.715 1224.94 580.702 1224.97 580.685C1225.63 580.339 1225.88 579.529 1225.53 578.872C1225.1 578.066 1201.78 533.873 1176.96 482.185C1180.11 468.491 1188.56 433.636 1191.57 428.888C1191.96 428.256 1191.78 427.428 1191.15 427.033Z" fill="#D1DBBE"/>
<path d="M488.966 565.018C488.966 565.018 476.853 507.539 505.538 442.969C534.221 378.4 561.825 377.305 572.139 381.059C582.451 384.812 602.985 412.948 566.989 474.156C530.991 535.365 488.966 565.018 488.966 565.018Z" fill="#9DA48F"/>
<path d="M566.077 477.683C565.956 476.951 565.27 476.454 564.537 476.573C558.431 477.566 527.506 494.06 517.063 499.699C523.393 484.704 530.065 469.308 536.797 454.393C540.143 452.187 566.705 434.899 586.456 428.389C587.158 428.156 587.542 427.398 587.31 426.695C587.076 425.991 586.317 425.608 585.617 425.841C568.874 431.359 547.47 444.398 538.842 449.881C550.753 423.717 562.759 399.356 573.286 381.746C573.667 381.109 573.459 380.287 572.824 379.907C572.173 379.511 571.365 379.734 570.984 380.369C560.317 398.21 548.148 422.936 536.094 449.449C532.826 433.121 533.203 399.339 533.208 398.972C533.218 398.231 532.625 397.624 531.884 397.613C531.142 397.603 530.536 398.197 530.526 398.938C530.507 400.564 530.086 438.557 534.287 453.439C527.562 468.342 520.899 483.717 514.579 498.693C512.173 487.851 507.774 457.204 506.06 444.634C505.96 443.9 505.284 443.386 504.55 443.486C503.815 443.585 503.302 444.261 503.402 444.995C503.686 447.086 510.249 495.064 512.879 502.725C490.661 555.608 473.084 602.341 472.763 603.195C472.513 603.857 472.824 604.593 473.458 604.885C473.489 604.898 473.517 604.912 473.548 604.921C474.241 605.182 475.013 604.831 475.274 604.136C475.595 603.281 493.188 556.51 515.398 503.649C527.736 496.925 559.42 480.119 564.967 479.219C565.701 479.104 566.196 478.414 566.077 477.683Z" fill="#D1DBBE"/>
<path d="M1005.91 196.391C1005.91 196.391 990.625 238.234 946.243 268.257C901.86 298.28 883.662 287.898 878.536 281.341C873.409 274.785 871.495 248.438 919.234 223.517C966.971 198.591 1005.91 196.391 1005.91 196.391Z" fill="#9DA48F"/>
<path d="M921.235 221.612C921.018 222.13 921.26 222.728 921.78 222.943C926.106 224.755 952.625 226.562 961.608 227.13C951.513 234.236 941.039 241.461 930.719 248.352C927.682 248.427 903.651 248.884 888.33 245.14C887.784 245.007 887.233 245.341 887.099 245.887C886.966 246.434 887.301 246.985 887.846 247.117C900.833 250.291 919.839 250.497 927.592 250.435C909.421 262.485 891.916 273.335 878.071 280.437C877.57 280.694 877.374 281.307 877.63 281.806C877.889 282.321 878.499 282.503 878.999 282.248C893.026 275.053 910.784 264.033 929.185 251.816C924.731 263.633 910.924 285.214 910.773 285.448C910.469 285.921 910.607 286.55 911.08 286.854C911.552 287.157 912.182 287.019 912.485 286.546C913.151 285.508 928.678 261.235 931.952 249.972C942.262 243.085 952.725 235.868 962.805 228.774C959.998 236.715 950.52 258.198 946.577 266.972C946.346 267.485 946.575 268.086 947.087 268.316C947.6 268.547 948.203 268.318 948.431 267.805C949.088 266.346 964.133 232.844 965.516 226.859C1001.05 201.759 1031.12 178.754 1031.67 178.333C1032.1 178.007 1032.19 177.41 1031.9 176.968C1031.89 176.947 1031.87 176.928 1031.86 176.907C1031.51 176.461 1030.88 176.377 1030.43 176.719C1029.88 177.139 999.78 200.164 964.264 225.252C953.625 224.623 926.494 222.712 922.563 221.065C922.047 220.85 921.452 221.094 921.235 221.612Z" fill="#D1DBBE"/>
<path d="M264.961 513.831C258.454 510.232 255.253 502.581 257.427 495.471C258.064 493.386 259.032 491.441 260.412 488.88C261.846 486.35 262.979 484.497 264.408 482.847C269.275 477.226 277.456 475.868 283.963 479.466L278.886 465.082L173.699 403.281L157.126 436.564L157.372 454.339L167.824 464.314L255.078 512.56L264.961 513.831Z" fill="white"/>
<path d="M184.691 416.375L180.182 367.91L278.87 422.698L290.59 476.431C290.59 476.431 290.398 474.826 288.691 473.881L184.691 416.375Z" fill="#516852"/>
<path d="M278.574 445.085L187.763 394.748L186.11 376.99L274.413 426.014L278.574 445.085ZM189.622 393.533L275.73 441.264L272.685 427.3L188.41 380.513L189.622 393.533Z" fill="#757C6B"/>
<path d="M151.559 447.099L149.972 390.96C150.626 388.309 151.686 385.553 153.237 382.748C160.75 369.16 172.645 365.996 180.185 367.91L184.693 416.375C177.153 414.461 163.173 417.368 155.66 430.958C154.109 433.763 153.049 436.518 152.395 439.169L153.462 443.654L151.559 447.099Z" fill="#7FAB83"/>
<path d="M155.659 430.958C163.172 417.37 175.805 414.198 183.343 416.112C184.42 416.385 185.394 416.763 186.233 417.228C192.853 420.899 288.912 474.002 288.912 474.002C288.912 474.002 291.575 475.429 290.3 478.775C289.026 482.122 285.439 480.282 285.439 480.282L186.123 425.366C179.616 421.768 171.433 423.126 166.568 428.748C165.141 430.397 164.009 432.25 162.572 434.78C161.192 437.341 160.224 439.285 159.587 441.372C157.413 448.481 160.614 456.134 167.121 459.731L266.437 514.646C266.437 514.646 269.9 516.707 267.746 519.564C265.59 522.422 262.965 520.925 262.965 520.925C262.965 520.925 166.916 467.804 160.286 464.15C154.775 461.113 149.422 451.194 152.393 439.167C153.047 436.518 154.107 433.763 155.659 430.958Z" fill="#7FAB83"/>
<path d="M1176.93 303.638C1169.74 305.558 1162.13 302.265 1158.77 295.635C1157.78 293.69 1157.13 291.619 1156.35 288.817C1155.63 285.999 1155.16 283.879 1155.04 281.7C1154.65 274.275 1159.6 267.623 1166.79 265.703L1153.16 258.86L1034.51 287.278L1045.65 322.751L1058.16 335.389L1072.61 335.326L1168.93 309.576L1176.93 303.638Z" fill="white"/>
<path d="M1051.51 289.088L1014.65 257.295L1123.75 228.33L1169.46 258.915C1169.46 258.915 1168.21 257.892 1166.32 258.395L1051.51 289.088Z" fill="#757C6B"/>
<path d="M1139.06 244.667L1038.73 271.376L1025.22 259.727L1122.84 233.811L1139.06 244.667ZM1039.22 269.21L1134.36 243.886L1122.48 235.937L1029.32 260.67L1039.22 269.21Z" fill="#7FAB83"/>
<path d="M1048.95 334.2L1008.87 294.856C1007.5 292.49 1006.36 289.771 1005.53 286.675C1001.52 271.674 1007.89 261.146 1014.65 257.297L1051.51 289.09C1044.75 292.94 1036.7 304.728 1040.71 319.729C1041.53 322.826 1042.68 325.545 1044.05 327.91L1047.93 330.403L1048.95 334.2Z" fill="#9DA48F"/>
<path d="M1040.71 319.727C1036.7 304.726 1043.6 293.683 1050.36 289.833C1051.32 289.284 1052.29 288.881 1053.22 288.633C1060.53 286.688 1166.56 258.333 1166.56 258.333C1166.56 258.333 1169.47 257.516 1170.88 260.81C1172.28 264.105 1168.42 265.267 1168.42 265.267L1058.78 294.573C1051.6 296.493 1046.64 303.146 1047.04 310.571C1047.15 312.75 1047.62 314.87 1048.34 317.688C1049.12 320.492 1049.77 322.561 1050.76 324.506C1054.13 331.136 1061.74 334.429 1068.92 332.509L1178.56 303.2C1178.56 303.2 1182.48 302.28 1182.91 305.836C1183.34 309.392 1180.41 310.133 1180.41 310.133C1180.41 310.133 1074.37 338.468 1067.06 340.433C1060.98 342.065 1050.25 338.632 1044.05 327.908C1042.68 325.543 1041.53 322.824 1040.71 319.727Z" fill="#7FAB83"/>
<path d="M845.207 159.473C845.207 159.473 866.943 163.897 866.922 152.707C866.901 141.517 848.129 147.75 848.129 147.75C848.129 147.75 856.18 130.637 846.829 129.763C837.479 128.89 839.318 142.589 839.318 142.589C839.318 142.589 830.96 128.795 825.108 132.052C819.256 135.31 828.564 149.725 828.564 149.725C828.564 149.725 813.851 145.953 812.018 153.425C810.186 160.9 827.13 162.276 827.13 162.276C827.13 162.276 815.27 172.424 819.507 177.537C823.745 182.65 834.278 165.805 834.278 165.805C834.278 165.805 837.348 180.753 845.312 179.501C853.276 178.247 845.207 159.473 845.207 159.473Z" fill="#D8BC9C"/>
<path d="M835.471 158.508C837.951 159.961 841.139 159.128 842.59 156.647C844.042 154.166 843.21 150.979 840.73 149.528C838.249 148.076 835.062 148.908 833.61 151.388C832.159 153.869 832.992 157.056 835.471 158.508Z" fill="#F4D9CA"/>
<path d="M1441.1 30.3053C1441.1 30.3053 1447.82 5.12643 1434.69 4.36611C1421.57 3.60579 1427.56 26.0563 1427.56 26.0563C1427.56 26.0563 1408.05 15.4138 1406.37 26.3175C1404.69 37.2212 1420.89 36.0269 1420.89 36.0269C1420.89 36.0269 1404.12 44.8589 1407.53 51.9514C1410.94 59.0439 1428.5 49.1386 1428.5 49.1386C1428.5 49.1386 1423.04 66.1267 1431.68 68.8013C1440.32 71.4759 1443.12 51.6999 1443.12 51.6999C1443.12 51.6999 1454.19 66.3207 1460.48 61.7108C1466.77 57.0989 1447.76 43.5649 1447.76 43.5649C1447.76 43.5649 1465.51 41.0151 1464.6 31.586C1463.68 22.1588 1441.1 30.3053 1441.1 30.3053Z" fill="#D8BC9C"/>
<path d="M1439.29 41.6545C1441.16 38.8493 1440.41 35.0516 1437.6 33.1738C1434.8 31.2961 1431 32.0487 1429.12 34.8558C1427.25 37.6609 1428 41.4586 1430.81 43.3364C1433.61 45.2142 1437.41 44.4615 1439.29 41.6545Z" fill="#F4D9CA"/>
<path d="M267.294 332.592C267.294 332.592 270.393 355.957 281.623 352.053C292.853 348.15 280.084 331.459 280.084 331.459C280.084 331.459 300.063 333.606 297.696 323.914C295.328 314.221 282.209 320.821 282.209 320.821C282.209 320.821 293.163 307.64 287.86 302.894C282.556 298.145 271.309 312.495 271.309 312.495C271.309 312.495 269.994 296.41 261.853 297.162C253.71 297.915 258.207 315.41 258.207 315.41C258.207 315.41 243.901 307.02 240.238 313.048C236.574 319.079 257.143 323.814 257.143 323.814C257.143 323.814 243.196 332.081 247.219 339.648C251.239 347.211 267.294 332.592 267.294 332.592Z" fill="#FFF2E4"/>
<path d="M264.887 322.481C264.288 325.475 266.231 328.387 269.226 328.986C272.221 329.585 275.132 327.642 275.731 324.647C276.33 321.652 274.387 318.741 271.392 318.142C268.396 317.543 265.484 319.486 264.887 322.481Z" fill="#F4D9CA"/>
<path d="M1374.07 260.726C1374.07 260.726 1392.55 275.355 1397.9 264.737C1403.25 254.122 1382.47 251.015 1382.47 251.015C1382.47 251.015 1398.31 238.658 1389.87 233.341C1381.43 228.023 1376.6 241.893 1376.6 241.893C1376.6 241.893 1375.3 224.805 1368.18 225.084C1361.07 225.362 1362.97 243.494 1362.97 243.494C1362.97 243.494 1350.84 232.854 1345.51 239.057C1340.19 245.261 1355.59 254.701 1355.59 254.701C1355.59 254.701 1339.48 258.626 1341.04 265.507C1342.6 272.387 1360.67 261.479 1360.67 261.479C1360.67 261.479 1356.41 277.121 1364.56 279.758C1372.71 282.398 1374.07 260.726 1374.07 260.726Z" fill="#FFF2E4"/>
<path d="M1365.31 255.139C1366.96 257.706 1370.38 258.447 1372.95 256.794C1375.51 255.141 1376.26 251.72 1374.6 249.153C1372.95 246.586 1369.53 245.845 1366.96 247.498C1364.39 249.151 1363.65 252.57 1365.31 255.139Z" fill="#F4D9CA"/>
<path d="M1050.39 420.701C1050.39 420.701 1041.16 403.296 1033.49 409.626C1025.83 415.957 1040.7 425.315 1040.7 425.315C1040.7 425.315 1024.42 429.454 1029.1 436.36C1033.78 443.267 1042.14 434.273 1042.14 434.273C1042.14 434.273 1037.39 447.792 1042.93 449.968C1048.47 452.143 1053.1 437.62 1053.1 437.62C1053.1 437.62 1058.82 449.841 1064.98 446.88C1071.14 443.918 1062.52 431.518 1062.52 431.518C1062.52 431.518 1076.17 433.924 1077.29 428.131C1078.4 422.339 1060.9 424.622 1060.9 424.622C1060.9 424.622 1069.42 414.079 1064.07 409.323C1058.71 404.567 1050.39 420.701 1050.39 420.701Z" fill="#FFF2E4"/>
<path d="M1055.23 427.922C1054.82 425.401 1052.45 423.685 1049.93 424.09C1047.41 424.493 1045.69 426.864 1046.1 429.385C1046.5 431.906 1048.87 433.623 1051.39 433.218C1053.91 432.814 1055.63 430.443 1055.23 427.922Z" fill="#F4D9CA"/>
<path d="M478.581 204.113C478.581 204.113 478.12 185.422 468.931 187.548C459.742 189.673 468.397 203.921 468.397 203.921C468.397 203.921 452.822 200.531 453.865 208.378C454.907 216.225 465.817 212.133 465.817 212.133C465.817 212.133 456.059 221.599 459.838 225.794C463.616 229.989 473.706 219.625 473.706 219.625C473.706 219.625 473.378 232.424 479.863 232.522C486.349 232.619 484.289 218.438 484.289 218.438C484.289 218.438 494.86 226.27 498.263 221.825C501.665 217.38 485.842 211.899 485.842 211.899C485.842 211.899 497.545 206.561 495.014 200.254C492.485 193.947 478.581 204.113 478.581 204.113Z" fill="#D8BC9C"/>
<path d="M479.622 212.292C480.348 209.983 479.063 207.519 476.751 206.794C474.44 206.068 471.978 207.352 471.253 209.664C470.527 211.976 471.811 214.437 474.123 215.163C476.435 215.889 478.896 214.604 479.622 212.292Z" fill="#F4D9CA"/>
<path d="M163.814 147.189C163.814 147.189 123.53 191.042 154.573 198.242C183.029 204.841 163.814 147.189 163.814 147.189Z" fill="#D1DBBE"/>
<path d="M187.174 136.301C187.174 136.301 217.83 185.57 232.3 163.01C246.769 140.45 187.174 136.301 187.174 136.301Z" fill="#D1DBBE"/>
<path d="M188.321 188.916C188.321 188.916 145.067 231.753 179.792 237.535C210.712 242.682 188.321 188.916 188.321 188.916Z" fill="#D1DBBE"/>
<path d="M215.798 179.163C215.798 179.163 237.127 228.749 256.506 210.52C275.886 192.292 215.798 179.163 215.798 179.163Z" fill="#D1DBBE"/>
<path d="M215.354 207.525C215.354 207.525 205.927 271.989 237.19 262.04C267.616 252.357 215.354 207.525 215.354 207.525Z" fill="#D1DBBE"/>
<path d="M230.568 246.492C230.242 246.367 229.971 246.102 229.85 245.745C199.188 155.09 134.818 96.1152 134.171 95.5277C133.671 95.0765 133.633 94.3066 134.084 93.8074C134.535 93.3082 135.303 93.2678 135.807 93.7229C136.457 94.3123 201.296 153.715 232.16 244.963C232.377 245.603 232.035 246.294 231.396 246.509C231.115 246.601 230.823 246.589 230.568 246.492Z" fill="#4E625F"/>
<path d="M157.798 184.322C157.23 184.103 156.902 183.489 157.055 182.882C157.14 182.557 165.338 150.107 161.079 124.026C161.007 123.575 161.189 123.122 161.556 122.849C161.922 122.578 162.375 122.532 162.821 122.736C164.743 123.683 210.028 146.026 220.697 154.796C221.216 155.224 221.291 155.992 220.864 156.513C220.436 157.031 219.668 157.112 219.148 156.68C209.974 149.136 173.045 130.55 163.831 125.96C167.352 152.106 159.499 183.168 159.417 183.489C159.248 184.141 158.585 184.533 157.933 184.368C157.888 184.355 157.842 184.339 157.798 184.322Z" fill="#4E625F"/>
<path d="M181.053 222.403C180.46 222.175 180.135 221.52 180.327 220.904C181.433 217.365 191.126 176.333 189.603 163.24C189.549 162.776 189.766 162.321 190.162 162.069C190.557 161.821 191.055 161.818 191.462 162.065C193.324 163.231 237.202 190.689 246.769 200.598C247.236 201.084 247.224 201.853 246.738 202.322C246.251 202.79 245.477 202.773 245.014 202.291C236.8 193.78 201.102 171.032 192.189 165.404C192.585 180.904 183.851 217.801 182.658 221.628C182.459 222.271 181.773 222.63 181.132 222.43C181.105 222.422 181.08 222.413 181.053 222.403Z" fill="#4E625F"/>
<path d="M811.336 326.01C811.336 326.01 854.296 284.776 823.766 275.641C795.782 267.264 811.336 326.01 811.336 326.01Z" fill="#D1DBBE"/>
<path d="M787.338 335.409C787.338 335.409 759.838 284.31 743.98 305.917C728.123 327.525 787.338 335.409 787.338 335.409Z" fill="#D1DBBE"/>
<path d="M789.502 282.824C789.502 282.824 835.363 242.79 801.068 234.837C770.532 227.758 789.502 282.824 789.502 282.824Z" fill="#D1DBBE"/>
<path d="M761.466 290.832C761.466 290.832 743.295 240.004 722.809 256.978C702.321 273.953 761.466 290.832 761.466 290.832Z" fill="#D1DBBE"/>
<path d="M763.692 262.552C763.692 262.552 777.151 198.808 745.325 206.772C714.348 214.525 763.692 262.552 763.692 262.552Z" fill="#D1DBBE"/>
<path d="M750.954 222.708C751.273 222.854 751.526 223.135 751.624 223.499C776.529 315.901 837.066 378.804 837.675 379.43C838.143 379.912 838.134 380.682 837.652 381.153C837.17 381.623 836.402 381.615 835.928 381.128C835.315 380.5 774.338 317.138 749.268 224.133C749.092 223.482 749.478 222.812 750.129 222.639C750.415 222.564 750.705 222.595 750.954 222.708Z" fill="#4E625F"/>
<path d="M819.674 289.327C820.229 289.58 820.517 290.216 820.325 290.811C820.222 291.129 810 323.001 812.611 349.298C812.657 349.753 812.444 350.193 812.062 350.442C811.68 350.688 811.223 350.707 810.793 350.477C808.934 349.411 765.143 324.267 755.045 314.843C754.554 314.383 754.527 313.611 754.986 313.119C755.447 312.628 756.217 312.597 756.71 313.06C765.39 321.164 801.079 342.034 809.988 347.195C808.118 320.878 817.906 290.373 818.008 290.058C818.217 289.419 818.905 289.067 819.546 289.275C819.586 289.29 819.63 289.307 819.674 289.327Z" fill="#4E625F"/>
<path d="M798.858 249.861C799.436 250.126 799.718 250.8 799.488 251.403C798.163 254.865 785.909 295.208 786.608 308.369C786.633 308.836 786.387 309.276 785.977 309.502C785.566 309.725 785.07 309.698 784.679 309.425C782.893 308.145 740.828 277.985 731.902 267.494C731.466 266.982 731.527 266.214 732.042 265.776C732.558 265.34 733.33 265.405 733.76 265.916C741.423 274.927 775.622 299.873 784.162 306.05C784.74 290.556 795.776 254.281 797.207 250.537C797.447 249.909 798.151 249.592 798.781 249.832C798.808 249.838 798.831 249.85 798.858 249.861Z" fill="#4E625F"/>
<path d="M1272.57 233.56C1272.57 233.56 1218.11 209.482 1221.26 241.192C1224.14 270.261 1272.57 233.56 1272.57 233.56Z" fill="#D1DBBE"/>
<path d="M1290.38 252.19C1290.38 252.19 1253.56 297.037 1279.57 303.5C1305.58 309.965 1290.38 252.19 1290.38 252.19Z" fill="#D1DBBE"/>
<path d="M1240.92 270.161C1240.92 270.161 1186.46 242.943 1192.13 277.688C1197.18 308.623 1240.92 270.161 1240.92 270.161Z" fill="#D1DBBE"/>
<path d="M1258.97 293.053C1258.97 293.053 1218.86 329.167 1242.34 341.674C1265.82 354.179 1258.97 293.053 1258.97 293.053Z" fill="#D1DBBE"/>
<path d="M1231.97 301.736C1231.97 301.736 1167.89 313.496 1187.34 339.913C1206.28 365.624 1231.97 301.736 1231.97 301.736Z" fill="#D1DBBE"/>
<path d="M1199.95 328.652C1199.96 328.303 1200.12 327.961 1200.42 327.733C1276.44 269.599 1311.64 189.706 1311.99 188.905C1312.25 188.287 1312.97 188.005 1313.59 188.271C1314.21 188.538 1314.49 189.253 1314.22 189.875C1313.87 190.681 1278.42 271.154 1201.91 329.668C1201.37 330.079 1200.6 329.977 1200.2 329.441C1200.02 329.205 1199.93 328.927 1199.95 328.652Z" fill="#4E625F"/>
<path d="M1235.47 239.779C1235.5 239.171 1235.97 238.662 1236.6 238.614C1236.93 238.589 1270.3 235.939 1293.63 223.538C1294.03 223.323 1294.52 223.352 1294.9 223.611C1295.27 223.87 1295.46 224.287 1295.41 224.773C1295.13 226.896 1288.5 276.958 1283.62 289.876C1283.38 290.506 1282.68 290.822 1282.05 290.586C1281.42 290.346 1281.1 289.646 1281.34 289.014C1285.54 277.905 1291.29 236.965 1292.68 226.764C1269.05 238.489 1237.11 241.021 1236.78 241.046C1236.11 241.096 1235.52 240.593 1235.47 239.923C1235.47 239.875 1235.47 239.827 1235.47 239.779Z" fill="#4E625F"/>
<path d="M1206.87 274.026C1206.89 273.391 1207.41 272.872 1208.06 272.859C1211.76 272.771 1253.73 268.781 1265.65 263.136C1266.07 262.936 1266.57 262.996 1266.93 263.29C1267.3 263.585 1267.46 264.054 1267.35 264.518C1266.85 266.657 1254.92 317.025 1248.61 329.267C1248.3 329.864 1247.57 330.1 1246.97 329.791C1246.37 329.478 1246.13 328.741 1246.44 328.147C1251.87 317.637 1261.96 276.524 1264.42 266.279C1249.87 271.628 1212.12 275.198 1208.12 275.297C1207.45 275.313 1206.88 274.781 1206.87 274.109C1206.87 274.08 1206.87 274.055 1206.87 274.026Z" fill="#4E625F"/>
<path d="M379.424 258.261C379.424 258.261 312.875 237.792 303.367 235.889C293.86 233.989 294.336 235.889 294.336 235.889L308.672 190.493L322.857 145.573C322.857 145.573 323.804 140.819 336.879 143.672C349.952 146.525 390.359 165.598 407.946 167.944L393.761 212.865L379.424 258.261Z" fill="#516852"/>
<path d="M294.336 235.891L308.672 190.495L322.857 145.575C322.857 145.575 318.103 153.18 315.49 158.884C312.875 164.588 290.561 235.891 290.561 235.891C290.561 235.891 283.68 248.727 296.062 260.609C296.062 260.609 285.363 254.846 294.336 235.891Z" fill="#516852"/>
<path d="M379.424 258.261C379.424 258.261 312.875 237.792 303.367 235.889C293.86 233.989 294.336 235.889 294.336 235.889C294.336 235.889 292.571 238.545 291.008 245.872C288.7 256.687 296.062 260.608 296.062 260.608L363.913 299.136L365.875 292.485C365.875 292.485 305.504 260.846 301.227 258.259C296.949 255.675 295.046 251.576 296.592 244.919C298.137 238.265 303.185 238.787 303.185 238.787C312.57 241.223 376.853 260.456 376.853 260.456C376.853 260.456 378.754 260.383 379.424 258.261Z" fill="#516852"/>
<path d="M365.877 292.487C365.877 292.487 305.506 260.848 301.228 258.261C296.951 255.677 295.048 251.578 296.594 244.921C298.139 238.266 303.187 238.789 303.187 238.789C312.572 241.225 376.855 260.458 376.855 260.458C376.855 260.458 378.756 260.381 379.426 258.261L395.548 207.207L377.643 268.635L375.978 271.542L374.908 273.919L373.72 277.127L340.089 263.165L372.176 282.499L371.107 285.888L362.194 282.499L370.395 286.516L367.899 292.487H365.877Z" fill="#E5E5E5"/>
<path d="M331.036 161.011C330.176 161.011 329.346 160.877 328.569 160.631L310.546 217.707C314.344 218.688 317.154 222.127 317.154 226.232C317.154 227.228 316.982 228.181 316.678 229.073C329.7 232.741 350.086 238.881 364.824 243.36C365.869 240.035 368.973 237.623 372.642 237.623C373.585 237.623 374.486 237.79 375.328 238.082L392.653 183.22C389.358 182.158 386.973 179.071 386.973 175.423C386.973 174.505 387.131 173.628 387.409 172.804C378.825 169.907 369.323 166.182 359.986 162.519C352.29 159.498 344.403 156.405 339.019 154.648C338.186 158.291 334.932 161.011 331.036 161.011Z" fill="#757C6B"/>
<path d="M430.664 446.2C430.664 446.2 389.311 377.875 382.623 368.989C375.936 360.104 374.891 362.095 374.891 362.095L421.818 334.17L468.253 306.54C468.253 306.54 472.692 303.193 481.709 315.613C490.725 328.036 510.76 375.208 524.026 390.643L477.59 418.274L430.664 446.2Z" fill="#757C6B"/>
<path d="M374.891 362.095L421.818 334.17L468.253 306.54C468.253 306.54 458.378 309.423 451.785 312.311C445.192 315.199 371.66 359.213 371.66 359.213C371.66 359.213 355.971 364.95 357.502 384.576C357.502 384.576 352.74 371.474 374.891 362.095Z" fill="#7FAB83"/>
<path d="M430.664 446.2C430.664 446.2 389.311 377.875 382.623 368.989C375.936 360.104 374.891 362.095 374.891 362.095C374.891 362.095 371.353 363.022 364.424 368.1C354.192 375.598 357.502 384.574 357.502 384.574L386.185 469.354L392.941 465.158C392.941 465.158 365.407 391.985 363.717 386.508C362.027 381.03 363.529 376.067 369.932 371.549C376.335 367.031 380.258 371.332 380.258 371.332C386.433 380.58 426.789 446.118 426.789 446.118C426.789 446.118 428.473 447.504 430.664 446.2Z" fill="#516852"/>
<path d="M392.94 465.16C392.94 465.16 365.405 391.987 363.715 386.509C362.026 381.032 363.527 376.068 369.93 371.551C376.333 367.033 380.256 371.334 380.256 371.334C386.431 380.582 426.787 446.12 426.787 446.12C426.787 446.12 428.473 447.504 430.666 446.2L483.441 414.795L421.221 453.719L417.577 454.938L414.847 456.157L411.381 457.997L393.245 420.37L405.957 461.416L402.455 463.501L397.411 453.798L401.366 463.496L394.671 466.704L392.94 465.16Z" fill="white"/>
<path d="M463.473 326C462.735 325.344 462.129 324.597 461.651 323.792L402.651 358.9C405.155 362.638 404.934 367.728 401.802 371.241C401.042 372.094 400.166 372.779 399.224 373.311C407.572 386.39 420.342 407.209 429.539 422.294C432.97 420.244 437.47 420.549 440.611 423.35C441.418 424.07 442.063 424.9 442.56 425.794L499.271 392.048C497.261 388.625 497.576 384.161 500.36 381.037C501.06 380.252 501.865 379.62 502.731 379.127C497.593 370.093 492.301 359.652 487.104 349.386C482.82 340.927 478.427 332.256 475.162 326.644C471.669 329.128 466.808 328.975 463.473 326Z" fill="#919D7F"/>
<path d="M688.708 338.258C687.896 333.245 688.368 328.529 689.472 324.334C690.981 318.603 693.667 313.843 695.864 310.631L694.495 306.805L617.862 304.996L609.721 336.87L613.632 346.347L686.083 341.578L688.708 338.258Z" fill="#E5E5E5"/>
<path d="M611.053 348.954L532.042 292.336C529.35 285.064 529.661 278.197 531.203 272.344C534.056 261.502 541.125 254.143 541.125 254.143L620.137 310.762C620.137 310.762 614.079 318.538 611.226 329.38C609.683 335.232 608.362 341.683 611.053 348.954Z" fill="#7FAB83"/>
<path d="M547.504 282.943C549.723 274.514 554.431 268.024 556.67 265.281L554.93 264.035C552.53 266.97 547.763 273.606 545.447 282.401C543.794 288.678 543.852 295.638 545.515 301.989L548.354 304.024C546.043 297.375 545.716 289.736 547.504 282.943Z" fill="#757C6B"/>
<path d="M542.212 279.878C544.568 270.924 549.725 264.171 551.756 261.761L550.017 260.515C547.784 263.165 542.604 270.035 540.156 279.337C538.472 285.734 538.449 292.017 540.039 298.067L542.88 300.104C540.621 293.628 540.384 286.829 542.212 279.878Z" fill="#757C6B"/>
<path d="M597.205 318.659C599.444 310.157 604.207 303.637 606.423 300.935L604.684 299.687C602.301 302.592 597.482 309.258 595.151 318.115C593.509 324.355 593.557 331.265 595.191 337.586L598.017 339.612C595.742 332.991 595.429 325.409 597.205 318.659Z" fill="#757C6B"/>
<path d="M591.911 315.592C594.288 306.566 599.512 299.773 601.509 297.414L599.77 296.168C597.565 298.773 592.322 305.679 589.857 315.051C588.182 321.408 588.152 327.648 589.711 333.66L592.541 335.687C590.321 329.253 590.095 322.499 591.911 315.592Z" fill="#757C6B"/>
<path d="M620.135 310.762L664.26 307.271L703.031 304.203L624.019 247.584L541.123 254.143L620.135 310.762Z" fill="#7FAB83"/>
<path d="M613.469 349.841L657.594 346.351L693.686 343.496C696.758 341.182 695.082 337.624 695.082 337.624L656.312 340.693L614.223 344.022L614.221 344.024C613.409 339.011 613.882 334.295 614.986 330.1C616.495 324.369 619.181 319.609 621.377 316.397L621.414 316.422L665.539 312.931L701.631 310.076C704.703 307.763 703.027 304.205 703.027 304.205L664.257 307.273L620.131 310.764C620.131 310.764 613.064 318.123 610.209 328.965C608.669 334.817 608.356 341.685 611.048 348.956C611.053 348.954 612.215 349.941 613.469 349.841Z" fill="#757C6B"/>
<path d="M1273.98 454.013C1272.34 449.209 1269.7 445.271 1266.75 442.091C1262.71 437.746 1258.1 434.815 1254.65 433.018L1254.06 428.997L1320.8 391.294L1343 415.572L1344.01 425.775L1277.86 455.706L1273.98 454.013Z" fill="white"/>
<path d="M1347.52 426.858L1390.53 339.688C1389.48 332.006 1385.97 326.097 1381.85 321.66C1374.23 313.442 1364.52 310.28 1364.52 310.28L1321.51 397.45C1321.51 397.45 1330.52 401.455 1338.14 409.672C1342.26 414.109 1346.47 419.176 1347.52 426.858Z" fill="#7FAB83"/>
<path d="M1372.47 338.692C1366.54 332.302 1359.33 328.798 1356.06 327.433L1357.01 325.513C1360.51 326.972 1367.84 330.578 1374.03 337.244C1378.44 342.002 1381.67 348.167 1383.19 354.555L1381.65 357.686C1380.56 350.732 1377.24 343.841 1372.47 338.692Z" fill="#516852"/>
<path d="M1375.69 333.494C1369.39 326.707 1361.66 323.18 1358.74 322.011L1359.68 320.093C1362.9 321.377 1370.71 324.996 1377.25 332.047C1381.75 336.897 1384.73 342.426 1386.18 348.513L1384.63 351.648C1383.57 344.872 1380.58 338.763 1375.69 333.494Z" fill="#516852"/>
<path d="M1345.46 393.611C1339.48 387.168 1332.2 383.662 1328.98 382.322L1329.92 380.402C1333.39 381.842 1340.78 385.451 1347.01 392.166C1351.4 396.895 1354.62 403.014 1356.15 409.357L1354.62 412.475C1353.5 405.563 1350.2 398.728 1345.46 393.611Z" fill="#516852"/>
<path d="M1348.68 388.414C1342.33 381.571 1334.52 378.042 1331.65 376.902L1332.6 374.984C1335.77 376.243 1343.65 379.864 1350.24 386.968C1354.71 391.786 1357.68 397.277 1359.13 403.313L1357.6 406.435C1356.52 399.713 1353.54 393.648 1348.68 388.414Z" fill="#516852"/>
<path d="M1321.51 397.452L1280.95 415.162L1245.3 430.725L1288.32 343.555L1364.52 310.282L1321.51 397.452Z" fill="#516852"/>
<path d="M1345.8 428.78L1305.24 446.492L1272.06 460.98C1268.26 460.387 1268.06 456.461 1268.06 456.461L1303.7 440.899L1342.39 424.005H1342.4C1340.75 419.201 1338.11 415.263 1335.16 412.084C1331.13 407.739 1326.52 404.807 1323.07 403.01L1323.05 403.048L1282.48 420.76L1249.3 435.249C1245.5 434.655 1245.3 430.729 1245.3 430.729L1280.94 415.167L1321.51 397.455C1321.51 397.455 1331.21 400.618 1338.84 408.835C1342.96 413.272 1346.46 419.182 1347.52 426.864C1347.52 426.858 1346.96 428.277 1345.8 428.78Z" fill="#6E8570"/>
<path d="M1423.82 179.178L1492.55 130.871C1493.71 130.053 1493.29 128.237 1491.89 128.009L1419.02 116.103C1418.38 115.999 1417.74 116.176 1417.24 116.588L1365.75 159.539L1383.44 165.522L1423.82 179.178Z" fill="#7FAB83"/>
<path d="M1420.4 124.662L1382.29 156.453L1405.22 164.208L1448.74 129.291L1420.4 124.662Z" fill="#516852"/>
<path d="M1430.85 210.83L1390.47 197.173L1372.78 191.19C1359.12 177.276 1365.75 159.541 1365.75 159.541L1383.44 165.523L1423.82 179.18C1423.82 179.18 1419.98 188.226 1422.95 198.34C1424.18 202.508 1426.56 206.857 1430.85 210.83Z" fill="#516852"/>
<path d="M1368.68 164.869C1368.08 168.543 1367.8 174.357 1370.28 180.234C1371.41 182.903 1373.01 185.384 1375.07 187.619L1420.23 202.894C1420.21 202.844 1420.19 202.792 1420.16 202.743C1419.72 201.69 1419.33 200.6 1419.01 199.5C1416.93 192.436 1417.75 185.87 1418.72 181.793L1368.68 164.869Z" fill="#7FAB83"/>
<path d="M1493.8 133.832C1493.8 133.832 1498.51 140.763 1498.67 142.18C1498.84 143.597 1500.08 147.034 1500.08 147.034L1471.78 163.185L1502.13 150.388C1502.13 150.388 1501.96 152.319 1502.72 153.673C1503.48 155.027 1504.86 156.86 1504.86 156.86L1451.01 182.723L1507.71 163.467C1507.71 163.467 1509.5 168.292 1510.57 170.256C1511.65 172.218 1513.78 182.108 1514.24 183.212C1514.71 184.318 1494.02 189.502 1494.02 189.502C1494.02 189.502 1514.68 184.698 1515.08 185.647C1515.48 186.593 1515.67 193.21 1515.67 193.21L1431.1 209.149L1426.3 202.62L1423.77 188.254L1425.65 179.466L1482.49 140.078L1491.59 133.45L1493.8 133.832Z" fill="white"/>
<path d="M1423.82 179.179L1492.55 130.871L1493.14 130.967C1494.54 131.196 1494.96 133.012 1493.8 133.83L1427.07 180.78C1427.07 180.78 1423.56 189.047 1426.29 198.294C1427.07 200.972 1428.39 203.733 1430.46 206.398L1431.15 207.257L1515.22 191.714C1516.62 191.453 1517.63 193.018 1516.82 194.183L1516.47 194.675L1433.9 210.148L1430.85 210.83C1426.56 206.857 1424.18 202.508 1422.95 198.34C1419.98 188.226 1423.82 179.179 1423.82 179.179Z" fill="#757C6B"/>
<path d="M949.193 470.006L946.929 369.765C946.891 368.07 948.93 367.183 950.143 368.367L1013.19 429.944C1013.74 430.479 1014.03 431.228 1013.98 431.996L1009.18 511.882L990.907 499.125L949.193 470.006Z" fill="#7FAB83"/>
<path d="M1003.99 434.676L1000.43 493.807L976.745 477.272L979.473 410.734L1003.99 434.676Z" fill="#4E625F"/>
<path d="M943.203 370.662C943.203 370.662 933.209 371.048 931.731 371.889C930.252 372.73 926.074 373.981 926.074 373.981L930.598 412.606L921.393 374.379C921.393 374.379 919.66 375.911 917.822 376.143C915.985 376.376 913.243 376.341 913.243 376.341L926.533 446.394L904.876 378.28C904.876 378.28 898.975 379.983 896.328 380.339C893.68 380.694 882.677 385.657 881.285 385.991C879.893 386.325 889.558 409.868 889.558 409.868C889.558 409.868 879.545 386.621 878.351 386.909C877.159 387.197 870.671 391.701 870.671 391.701L915.242 484.234L924.913 484.218L940.505 476.477L947.615 468.447L945.209 385.953L945.128 372.513L943.203 370.662Z" fill="#E5E5E5"/>
<path d="M949.193 470.006L946.93 369.765L946.419 369.266C945.205 368.081 943.166 368.966 943.205 370.664L945.349 468.012C945.349 468.012 939.893 477.239 929.083 481.173C925.952 482.314 922.371 483.009 918.345 482.905L917.026 482.842L872.424 391.069C871.687 389.541 869.467 389.681 868.926 391.288L868.697 391.966L912.304 482.252L913.808 485.662C920.66 486.968 926.526 486.179 931.399 484.404C943.222 480.102 949.193 470.006 949.193 470.006Z" fill="#4D4341"/>
<defs>
<linearGradient id="paint0_linear_1846_31142" x1="728.067" y1="177.779" x2="728.067" y2="495.535" gradientUnits="userSpaceOnUse">
<stop offset="0.0480769" stop-color="#E8F5E9"/>
<stop offset="0.0961538" stop-color="#E8F5E9"/>
<stop offset="0.394231" stop-color="#E6F0FF" stop-opacity="0"/>
<stop offset="0.788462" stop-color="#B4D0B6"/>
<stop offset="1" stop-color="#7FAB83"/>
</linearGradient>
</defs>
</svg>
