<svg width="20" height="20" viewBox="0 0 20 20" fill="none" xmlns="http://www.w3.org/2000/svg">
<g clip-path="url(#clip0_1869_34864)">
<rect width="20" height="20" rx="10" fill="#005CB7"/>
<path d="M15.3125 0H4.6875C2.09867 0 0 2.09867 0 4.6875V15.3125C0 17.9013 2.09867 20 4.6875 20H15.3125C17.9013 20 20 17.9013 20 15.3125V4.6875C20 2.09867 17.9013 0 15.3125 0Z" fill="url(#paint0_radial_1869_34864)"/>
<path d="M12.25 0H3.75C1.67893 0 0 1.67893 0 3.75V12.25C0 14.3211 1.67893 16 3.75 16H12.25C14.3211 16 16 14.3211 16 12.25V3.75C16 1.67893 14.3211 0 12.25 0Z" fill="url(#paint1_radial_1869_34864)"/>
<path d="M10.2506 4C8.55319 4 8.34013 4.00744 7.6735 4.03775C7.00813 4.06825 6.55394 4.17356 6.15656 4.32812C5.74544 4.48775 5.39675 4.70131 5.04938 5.04881C4.70169 5.39625 4.48813 5.74494 4.328 6.15587C4.173 6.55338 4.06756 7.00775 4.03762 7.67281C4.00781 8.3395 4 8.55263 4 10.2501C4 11.9475 4.0075 12.1599 4.03775 12.8265C4.06838 13.4919 4.17369 13.9461 4.32812 14.3434C4.48787 14.7546 4.70144 15.1033 5.04894 15.4506C5.39625 15.7983 5.74494 16.0124 6.15575 16.172C6.55344 16.3266 7.00769 16.4319 7.67294 16.4624C8.33962 16.4927 8.5525 16.5001 10.2498 16.5001C11.9474 16.5001 12.1597 16.4927 12.8264 16.4624C13.4917 16.4319 13.9464 16.3266 14.3441 16.172C14.7551 16.0124 15.1032 15.7983 15.4505 15.4506C15.7982 15.1033 16.0117 14.7546 16.1719 14.3436C16.3255 13.9461 16.431 13.4917 16.4622 12.8266C16.4922 12.16 16.5 11.9475 16.5 10.2501C16.5 8.55263 16.4922 8.33962 16.4622 7.67294C16.431 7.00756 16.3255 6.55344 16.1719 6.15606C16.0117 5.74494 15.7982 5.39625 15.4505 5.04881C15.1029 4.70119 14.7552 4.48762 14.3438 4.32819C13.9453 4.17356 13.4909 4.06819 12.8255 4.03775C12.1588 4.00744 11.9466 4 10.2486 4H10.2506ZM9.68988 5.12631C9.85631 5.12606 10.042 5.12631 10.2506 5.12631C11.9194 5.12631 12.1171 5.13231 12.7761 5.16225C13.3855 5.19012 13.7163 5.29194 13.9366 5.3775C14.2283 5.49075 14.4362 5.62619 14.6548 5.845C14.8736 6.06375 15.0089 6.27206 15.1225 6.56375C15.2081 6.78375 15.31 7.1145 15.3378 7.72388C15.3677 8.38275 15.3742 8.58062 15.3742 10.2486C15.3742 11.9166 15.3677 12.1146 15.3378 12.7734C15.3099 13.3827 15.2081 13.7135 15.1225 13.9336C15.0093 14.2253 14.8736 14.4329 14.6548 14.6516C14.4361 14.8703 14.2284 15.0057 13.9366 15.119C13.7165 15.2049 13.3855 15.3065 12.7761 15.3344C12.1173 15.3643 11.9194 15.3708 10.2506 15.3708C8.58169 15.3708 8.38387 15.3643 7.72506 15.3344C7.11569 15.3063 6.78494 15.2044 6.56444 15.1189C6.27281 15.0056 6.06444 14.8702 5.84569 14.6514C5.62694 14.4327 5.49156 14.2249 5.378 13.9331C5.29244 13.713 5.1905 13.3822 5.16275 12.7729C5.13281 12.114 5.12681 11.9161 5.12681 10.2471C5.12681 8.578 5.13281 8.38119 5.16275 7.72231C5.19062 7.11294 5.29244 6.78219 5.378 6.56187C5.49131 6.27019 5.62694 6.06188 5.84575 5.84313C6.06456 5.62438 6.27281 5.48894 6.5645 5.37544C6.78481 5.2895 7.11569 5.18794 7.72506 5.15994C8.30162 5.13387 8.52506 5.12606 9.68988 5.12475V5.12631ZM13.5868 6.16406C13.1728 6.16406 12.8368 6.49969 12.8368 6.91381C12.8368 7.32788 13.1728 7.66381 13.5868 7.66381C14.0009 7.66381 14.3368 7.32788 14.3368 6.91381C14.3368 6.49975 14.0009 6.16381 13.5868 6.16381V6.16406ZM10.2506 7.04038C8.47806 7.04038 7.04094 8.4775 7.04094 10.2501C7.04094 12.0226 8.47806 13.4591 10.2506 13.4591C12.0231 13.4591 13.4598 12.0226 13.4598 10.2501C13.4598 8.47756 12.023 7.04038 10.2504 7.04038H10.2506ZM10.2506 8.16669C11.4011 8.16669 12.3339 9.09938 12.3339 10.2501C12.3339 11.4006 11.4011 12.3334 10.2506 12.3334C9.1 12.3334 8.16725 11.4006 8.16725 10.2501C8.16725 9.09938 9.09994 8.16669 10.2506 8.16669Z" fill="white"/>
</g>
<defs>
<radialGradient id="paint0_radial_1869_34864" cx="0" cy="0" r="1" gradientUnits="userSpaceOnUse" gradientTransform="translate(5.3125 21.5404) rotate(-90) scale(19.8215 18.4355)">
<stop stop-color="#FFDD55"/>
<stop offset="0.1" stop-color="#FFDD55"/>
<stop offset="0.5" stop-color="#FF543E"/>
<stop offset="1" stop-color="#C837AB"/>
</radialGradient>
<radialGradient id="paint1_radial_1869_34864" cx="0" cy="0" r="1" gradientUnits="userSpaceOnUse" gradientTransform="translate(-2.68006 1.15256) rotate(78.681) scale(7.08825 29.218)">
<stop stop-color="#3771C8"/>
<stop offset="0.128" stop-color="#3771C8"/>
<stop offset="1" stop-color="#6600FF" stop-opacity="0"/>
</radialGradient>
<clipPath id="clip0_1869_34864">
<rect width="20" height="20" rx="10" fill="white"/>
</clipPath>
</defs>
</svg>
