<svg width="20" height="20" viewBox="0 0 20 20" fill="none" xmlns="http://www.w3.org/2000/svg">
<rect width="20" height="20" rx="10" fill="#005CB7"/>
<path d="M7.29329 5.16652C7.29314 5.47594 7.17007 5.77262 6.95117 5.9913C6.73227 6.20999 6.43546 6.33276 6.12604 6.3326C5.81663 6.33245 5.51994 6.20938 5.30126 5.99048C5.08257 5.77158 4.95981 5.47477 4.95996 5.16535C4.96012 4.85593 5.08318 4.55925 5.30208 4.34056C5.52098 4.12188 5.81779 3.99911 6.12721 3.99927C6.43663 3.99942 6.73332 4.12249 6.952 4.34139C7.17068 4.56029 7.29345 4.8571 7.29329 5.16652ZM7.32829 7.19652H4.99496V14.4999H7.32829V7.19652ZM11.015 7.19652H8.69329V14.4999H10.9916V10.6674C10.9916 8.53235 13.7741 8.33402 13.7741 10.6674V14.4999H16.0783V9.87402C16.0783 6.27485 11.96 6.40902 10.9916 8.17652L11.015 7.19652Z" fill="white"/>
</svg>
