<svg width="301" height="225" viewBox="0 0 301 225" fill="none" xmlns="http://www.w3.org/2000/svg">
<g clip-path="url(#clip0_1797_29145)">
<path d="M301 197.126H0V197.276H301V197.126Z" fill="#E6E6E6"/>
<path d="M227.351 203.502H206.643V203.653H227.351V203.502Z" fill="#E6E6E6"/>
<path d="M66.8461 203.573H55.1914V203.723H66.8461V203.573Z" fill="#E6E6E6"/>
<path d="M151.101 203.224H127.479V203.375H151.101V203.224Z" fill="#E6E6E6"/>
<path d="M126.877 201.082H116.318V201.232H126.877V201.082Z" fill="#E6E6E6"/>
<path d="M255.586 201.154H223.686V201.304H255.586V201.154Z" fill="#E6E6E6"/>
<path d="M142.674 170.277H26.4334C25.5227 170.275 24.65 169.912 24.0066 169.268C23.3633 168.623 23.002 167.75 23.002 166.839V3.43845C23.0099 2.53306 23.3747 1.66735 24.0172 1.02938C24.6597 0.3914 25.5279 0.0326789 26.4334 0.0311279H142.674C143.585 0.0311279 144.46 0.393284 145.104 1.03793C145.749 1.68257 146.111 2.55689 146.111 3.46855V166.839C146.111 167.751 145.749 168.625 145.104 169.27C144.46 169.915 143.585 170.277 142.674 170.277ZM26.4334 0.151528C25.5627 0.153123 24.7282 0.500125 24.113 1.11637C23.4979 1.73261 23.1525 2.56774 23.1525 3.43845V166.839C23.1525 167.71 23.4979 168.545 24.113 169.161C24.7282 169.778 25.5627 170.125 26.4334 170.126H142.674C143.545 170.125 144.38 169.778 144.996 169.162C145.612 168.546 145.959 167.711 145.96 166.839V3.43845C145.959 2.56719 145.612 1.73207 144.996 1.116C144.38 0.49993 143.545 0.15312 142.674 0.151528H26.4334Z" fill="#E6E6E6"/>
<path d="M272.893 170.277H156.646C155.735 170.275 154.862 169.912 154.218 169.268C153.573 168.624 153.211 167.75 153.209 166.839V3.43845C153.218 2.53251 153.585 1.66681 154.228 1.029C154.872 0.391189 155.74 0.032662 156.646 0.0311279H272.893C273.797 0.034261 274.664 0.393682 275.305 1.03149C275.946 1.66929 276.31 2.53409 276.318 3.43845V166.839C276.318 167.749 275.957 168.621 275.315 169.266C274.673 169.91 273.802 170.274 272.893 170.277ZM156.646 0.151528C155.775 0.15312 154.94 0.49993 154.324 1.116C153.708 1.73207 153.361 2.56719 153.359 3.43845V166.839C153.361 167.711 153.708 168.546 154.324 169.162C154.94 169.778 155.775 170.125 156.646 170.126H272.893C273.764 170.125 274.599 169.778 275.215 169.162C275.831 168.546 276.178 167.711 276.18 166.839V3.43845C276.178 2.56719 275.831 1.73207 275.215 1.116C274.599 0.49993 273.764 0.15312 272.893 0.151528H156.646Z" fill="#E6E6E6"/>
<path d="M254.664 11.2471H172.623V106.845H254.664V11.2471Z" fill="#E0E0E0"/>
<path d="M256.891 11.2471H173.664V106.845H256.891V11.2471Z" fill="#F5F5F5"/>
<path d="M254.664 106.838H172.623V112.196H254.664V106.838Z" fill="#E0E0E0"/>
<path d="M267.089 106.838H188.738V112.196H267.089V106.838Z" fill="#F5F5F5"/>
<path d="M253.773 102.787V15.2982L176.79 15.2982V102.787H253.773Z" fill="#FAFAFA"/>
<path d="M187.859 102.787L206.184 15.2982H230.204L211.879 102.787H187.859Z" fill="white"/>
<path d="M215.77 102.787L234.088 15.2982H244.936L226.618 102.787H215.77Z" fill="white"/>
<path d="M170.281 11.1081V45.1452H179.311C179.311 45.1452 195.487 34.5921 199.177 12.878C199.265 12.3609 199.238 11.8309 199.1 11.325C198.962 10.819 198.716 10.3492 198.378 9.94816C198.04 9.54714 197.618 9.22454 197.143 9.00278C196.668 8.78102 196.15 8.66541 195.625 8.66401H172.749C172.427 8.66163 172.107 8.72305 171.808 8.84474C171.509 8.96643 171.237 9.14598 171.007 9.3731C170.778 9.60022 170.596 9.87041 170.471 10.1682C170.347 10.4659 170.282 10.7854 170.281 11.1081Z" fill="#E0E0E0"/>
<path d="M170.281 99.7042V47.89H179.311C179.311 47.89 184.488 58.3528 189.648 70.3807C191.02 73.5809 191.576 77.0717 191.267 80.54C190.957 84.0082 189.792 87.3453 187.874 90.252C185.957 93.1586 183.348 95.5438 180.282 97.1935C177.215 98.8432 173.787 99.7059 170.305 99.7042H170.281Z" fill="#E0E0E0"/>
<path d="M179.022 45.1443H170.612C170.113 45.1443 169.709 45.5486 169.709 46.0473V46.9865C169.709 47.4852 170.113 47.8895 170.612 47.8895H179.022C179.521 47.8895 179.925 47.4852 179.925 46.9865V46.0473C179.925 45.5486 179.521 45.1443 179.022 45.1443Z" fill="#F5F5F5"/>
<path d="M259.462 11.1082V45.1453H250.432C250.432 45.1453 234.25 34.5922 230.566 12.8781C230.479 12.3614 230.505 11.832 230.643 11.3265C230.78 10.8209 231.027 10.3514 231.364 9.9505C231.701 9.54959 232.122 9.22687 232.596 9.00472C233.071 8.78258 233.588 8.66634 234.112 8.66406H256.988C257.311 8.66088 257.632 8.72171 257.932 8.84304C258.231 8.96437 258.504 9.14381 258.734 9.371C258.964 9.5982 259.147 9.86866 259.272 10.1668C259.397 10.465 259.461 10.7849 259.462 11.1082Z" fill="#E0E0E0"/>
<path d="M259.523 99.7157V47.9016H250.493C250.493 47.9016 245.316 58.3583 240.151 70.3923C238.788 73.5935 238.239 77.0823 238.553 80.5474C238.867 84.0124 240.034 87.3458 241.95 90.2498C243.866 93.1538 246.472 95.5382 249.534 97.1899C252.596 98.8417 256.02 99.7094 259.499 99.7157H259.523Z" fill="#E0E0E0"/>
<path d="M250.703 47.89H259.113C259.611 47.89 260.016 47.4857 260.016 46.987V46.0479C260.016 45.5492 259.611 45.1449 259.113 45.1449H250.703C250.204 45.1449 249.8 45.5492 249.8 46.0479V46.987C249.8 47.4857 250.204 47.89 250.703 47.89Z" fill="#F5F5F5"/>
<path d="M120.935 53.3617H84.7969V92.9191H120.935V53.3617Z" fill="#E0E0E0"/>
<path d="M126.016 53.3617H86.7539V92.9191H126.016V53.3617Z" fill="#FAFAFA"/>
<path d="M121.965 88.8751V57.4146H90.7993V88.8751H121.965Z" fill="white"/>
<path d="M98.127 73.1443C98.1285 71.1735 98.9125 69.284 100.307 67.891C101.701 66.498 103.591 65.7156 105.562 65.7156H107.235C109.205 65.7172 111.094 66.5003 112.486 67.8932C113.879 69.286 114.662 71.1745 114.664 73.1443C114.664 74.1198 114.472 75.0858 114.098 75.9871C113.725 76.8884 113.178 77.7073 112.488 78.3971C111.798 79.0869 110.979 79.6341 110.078 80.0075C109.177 80.3808 108.211 80.5729 107.235 80.5729H105.562C104.586 80.5737 103.619 80.3822 102.717 80.0092C101.815 79.6362 100.995 79.0891 100.305 78.3993C99.6144 77.7094 99.0667 76.8902 98.693 75.9885C98.3193 75.0868 98.127 74.1203 98.127 73.1443Z" fill="#F5F5F5"/>
<path d="M55.5294 62.8013C50.5001 62.8013 45.6768 60.8034 42.1205 57.2471C38.5643 53.6909 36.5664 48.8675 36.5664 43.8382C36.5664 38.8089 38.5643 33.9856 42.1205 30.4294C45.6768 26.8731 50.5001 24.8752 55.5294 24.8752H58.9548V62.8013H55.5294Z" fill="#E0E0E0"/>
<path d="M58.9529 62.8018C69.4192 62.8018 77.9039 54.3172 77.9039 43.8509C77.9039 33.3845 69.4192 24.8999 58.9529 24.8999C48.4866 24.8999 40.002 33.3845 40.002 43.8509C40.002 54.3172 48.4866 62.8018 58.9529 62.8018Z" fill="#FAFAFA"/>
<path d="M58.9536 58.1433C66.8466 58.1433 73.2451 51.7447 73.2451 43.8518C73.2451 35.9588 66.8466 29.5603 58.9536 29.5603C51.0606 29.5603 44.6621 35.9588 44.6621 43.8518C44.6621 51.7447 51.0606 58.1433 58.9536 58.1433Z" fill="white"/>
<path d="M64.8416 49.1978L57.8223 44.2975L60.0497 33.4736L62.0363 33.8829L60.0798 43.4006L66.0034 47.5303L64.8416 49.1978Z" fill="#E0E0E0"/>
<path d="M212.109 129.461H186.277V199.257H212.109V129.461Z" fill="#E0E0E0"/>
<path d="M205.21 199.258H212.109V187.7H197.98L205.21 199.258Z" fill="#FAFAFA"/>
<path d="M57.2439 129.461H31.4121V199.257H57.2439V129.461Z" fill="#E0E0E0"/>
<path d="M212.115 129.461H51.2246V195.277H212.115V129.461Z" fill="#FAFAFA"/>
<path d="M58.1235 199.258H51.2246V187.7H65.3536L58.1235 199.258Z" fill="#FAFAFA"/>
<path d="M206.763 135.12H56.5762V159.344H206.763V135.12Z" fill="#F0F0F0"/>
<path d="M206.763 165.202H56.5762V189.427H206.763V165.202Z" fill="#F0F0F0"/>
<path d="M184.742 135.12H56.5762V159.344H184.742V135.12Z" fill="#E0E0E0"/>
<path d="M96.0421 138.389H88.2462C88.2462 138.389 89.6007 143.067 89.6007 145.818C89.6007 148.569 83.671 159.351 92.1472 159.351C100.623 159.351 94.6876 148.569 94.6876 145.818C94.6876 143.067 96.0421 138.389 96.0421 138.389Z" fill="#FAFAFA"/>
<path d="M65.3535 146.516V150.772C65.3535 155.492 69.9167 159.351 75.4912 159.351H80.5179C86.0924 159.351 90.6556 155.492 90.6556 150.772V146.516H65.3535Z" fill="#F0F0F0"/>
<path d="M184.742 165.202H56.5762V189.427H184.742V165.202Z" fill="#E0E0E0"/>
<path d="M128.557 188.987H140.561V168.995H128.557V188.987Z" fill="white"/>
<path d="M138.689 189.301H139.508V169.308H138.689V189.301Z" fill="#E6E6E6"/>
<path d="M139.567 189.45H141.662C141.822 189.45 141.951 189.321 141.951 189.161V169.44C141.951 169.28 141.822 169.151 141.662 169.151H139.567C139.408 169.151 139.278 169.28 139.278 169.44V189.161C139.278 189.321 139.408 189.45 139.567 189.45Z" fill="#EBEBEB"/>
<path d="M139.278 178.53H141.951V173.786H139.278V178.53Z" fill="white"/>
<path d="M139.278 182.919H141.951V179.994H139.278V182.919Z" fill="white"/>
<path d="M127.944 189.45H138.762C138.921 189.45 139.051 189.321 139.051 189.161V169.44C139.051 169.28 138.921 169.151 138.762 169.151H127.944C127.784 169.151 127.655 169.28 127.655 169.44V189.161C127.655 189.321 127.784 189.45 127.944 189.45Z" fill="#EBEBEB"/>
<path d="M122.699 188.939H135.943V166.882H122.699V188.939Z" fill="white"/>
<path d="M133.89 189.281H134.787V167.224H133.89V189.281Z" fill="#E6E6E6"/>
<path d="M134.854 189.45H137.165C137.342 189.45 137.484 189.307 137.484 189.131V167.375C137.484 167.199 137.342 167.056 137.165 167.056H134.854C134.677 167.056 134.535 167.199 134.535 167.375V189.131C134.535 189.307 134.677 189.45 134.854 189.45Z" fill="#F0F0F0"/>
<path d="M134.535 174.955H137.484V174.19H134.535V174.955Z" fill="white"/>
<path d="M134.535 177.17H137.484V176.406H134.535V177.17Z" fill="white"/>
<path d="M134.535 179.379H137.484V178.614H134.535V179.379Z" fill="white"/>
<path d="M122.031 189.45H133.962C134.138 189.45 134.281 189.307 134.281 189.131V167.375C134.281 167.199 134.138 167.056 133.962 167.056H122.031C121.854 167.056 121.711 167.199 121.711 167.375V189.131C121.711 189.307 121.854 189.45 122.031 189.45Z" fill="#F0F0F0"/>
<path d="M106.386 181.77C106.387 182.441 106.189 183.098 105.817 183.658C105.445 184.217 104.915 184.653 104.294 184.911C103.674 185.169 102.991 185.237 102.332 185.106C101.673 184.976 101.068 184.653 100.592 184.179C100.117 183.704 99.7929 183.099 99.6614 182.44C99.5299 181.781 99.5968 181.098 99.8536 180.478C100.11 179.857 100.546 179.326 101.104 178.953C101.663 178.58 102.319 178.38 102.991 178.38C103.89 178.38 104.753 178.737 105.39 179.373C106.026 180.008 106.385 180.87 106.386 181.77Z" fill="#FAFAFA"/>
<path d="M100.601 183.388C100.601 183.914 100.445 184.427 100.153 184.863C99.8615 185.3 99.4469 185.64 98.9618 185.841C98.4767 186.042 97.9429 186.095 97.4279 185.992C96.9129 185.89 96.4399 185.637 96.0686 185.266C95.6973 184.894 95.4445 184.421 95.342 183.906C95.2396 183.391 95.2922 182.858 95.4931 182.372C95.694 181.887 96.0343 181.473 96.4709 181.181C96.9075 180.889 97.4208 180.734 97.9458 180.734C98.6494 180.735 99.3238 181.015 99.8213 181.513C100.319 182.01 100.599 182.685 100.601 183.388Z" fill="#FAFAFA"/>
<path d="M112.195 183.388C112.195 184.06 111.996 184.716 111.623 185.275C111.25 185.833 110.719 186.268 110.099 186.525C109.478 186.782 108.796 186.849 108.137 186.718C107.479 186.587 106.874 186.264 106.399 185.789C105.924 185.314 105.601 184.709 105.47 184.051C105.339 183.392 105.406 182.709 105.663 182.089C105.92 181.469 106.355 180.938 106.913 180.565C107.472 180.192 108.128 179.993 108.8 179.993C109.7 179.995 110.562 180.353 111.199 180.989C111.835 181.626 112.193 182.488 112.195 183.388Z" fill="#FAFAFA"/>
<path d="M117.757 182.395C117.757 183.066 117.558 183.723 117.185 184.281C116.812 184.839 116.282 185.275 115.661 185.532C115.041 185.789 114.358 185.856 113.7 185.725C113.041 185.594 112.436 185.27 111.961 184.796C111.486 184.321 111.163 183.716 111.032 183.057C110.901 182.399 110.968 181.716 111.225 181.095C111.482 180.475 111.917 179.945 112.476 179.572C113.034 179.199 113.691 179 114.362 179C115.263 179 116.126 179.357 116.763 179.994C117.4 180.631 117.757 181.494 117.757 182.395Z" fill="#FAFAFA"/>
<path d="M88.6016 182.834C88.6016 182.834 89.0651 189.456 106.926 189.456C124.788 189.456 125.251 182.834 125.251 182.834H88.6016Z" fill="#F5F5F5"/>
<path d="M138.689 152.728C138.689 152.728 139.43 159.35 167.736 159.35C196.042 159.35 196.776 152.728 196.776 152.728H138.689Z" fill="white"/>
<path d="M150.499 224.312C214.963 224.312 267.221 221.261 267.221 217.498C267.221 213.734 214.963 210.683 150.499 210.683C86.0355 210.683 33.7773 213.734 33.7773 217.498C33.7773 221.261 86.0355 224.312 150.499 224.312Z" fill="#F5F5F5"/>
<path d="M88.4474 127.249C101.18 114.516 101.18 93.8725 88.4474 81.1397C75.7146 68.407 55.0707 68.4069 42.3379 81.1397C29.6052 93.8725 29.6052 114.516 42.3379 127.249C55.0707 139.982 75.7146 139.982 88.4474 127.249Z" fill="url(#paint0_linear_1797_29145)"/>
<path opacity="0.4" d="M88.4474 127.249C101.18 114.516 101.18 93.8725 88.4474 81.1397C75.7146 68.407 55.0707 68.4069 42.3379 81.1397C29.6052 93.8725 29.6052 114.516 42.3379 127.249C55.0707 139.982 75.7146 139.982 88.4474 127.249Z" fill="black"/>
<path opacity="0.2" d="M92.3847 108.797C94.9272 93.8911 84.9049 79.7465 69.9992 77.204C55.0935 74.6614 40.9489 84.6838 38.4064 99.5895C35.8639 114.495 45.8862 128.64 60.7919 131.182C75.6976 133.725 89.8421 123.702 92.3847 108.797Z" fill="black"/>
<path d="M93.6936 106.816C94.7097 92.3 83.766 79.7089 69.2501 78.6927C54.7342 77.6766 42.1431 88.6204 41.1269 103.136C40.1108 117.652 51.0546 130.243 65.5704 131.259C80.0863 132.275 92.6775 121.332 93.6936 106.816Z" fill="url(#paint1_linear_1797_29145)"/>
<path opacity="0.4" d="M93.6936 106.816C94.7097 92.3 83.766 79.7089 69.2501 78.6927C54.7342 77.6766 42.1431 88.6204 41.1269 103.136C40.1108 117.652 51.0546 130.243 65.5704 131.259C80.0863 132.275 92.6775 121.332 93.6936 106.816Z" fill="black"/>
<path d="M76.2196 101.685L77.9353 109.119C78.0081 109.403 78.0211 109.699 77.9734 109.988C77.9257 110.277 77.8184 110.553 77.6583 110.799C77.5028 111.05 77.2985 111.267 77.0576 111.438C76.8166 111.608 76.544 111.729 76.2557 111.792L69.718 113.303L70.922 118.535C70.9928 118.817 71.0037 119.112 70.9539 119.399C70.9042 119.686 70.7948 119.96 70.633 120.202C70.4775 120.449 70.2726 120.661 70.0312 120.824C69.7898 120.988 69.5171 121.1 69.2303 121.153C68.9431 121.225 68.6443 121.239 68.3517 121.193C68.0591 121.148 67.7785 121.044 67.5267 120.888C67.2758 120.741 67.0584 120.542 66.8884 120.306C66.7184 120.07 66.5996 119.801 66.5394 119.516L65.3354 114.224L58.8519 115.723C58.5725 115.791 58.2823 115.801 57.9988 115.753C57.7154 115.706 57.4444 115.601 57.2024 115.446C56.9508 115.299 56.7327 115.101 56.5617 114.864C56.3907 114.628 56.2706 114.359 56.2091 114.074C56.1406 113.792 56.1299 113.5 56.1775 113.215C56.2251 112.929 56.33 112.656 56.486 112.412C56.6348 112.163 56.8336 111.947 57.0698 111.778C57.306 111.609 57.5745 111.491 57.8586 111.431L73.029 107.933L72.3186 104.845L57.1903 108.331C56.9103 108.402 56.6186 108.416 56.3331 108.372C56.0475 108.327 55.7739 108.225 55.5288 108.072C55.2775 107.921 55.0605 107.719 54.8915 107.48C54.7226 107.241 54.6054 106.969 54.5476 106.681L52.8379 99.2766C52.7063 98.7074 52.8061 98.1093 53.1155 97.6137C53.4248 97.1181 53.9182 96.7657 54.4874 96.6338L60.9408 95.1469L59.7368 89.9095C59.667 89.6326 59.6534 89.3444 59.6968 89.0622C59.7403 88.7799 59.8398 88.5092 59.9896 88.266C60.1484 88.0027 60.3616 87.7762 60.6149 87.6018C60.8682 87.4274 61.1558 87.309 61.4585 87.2547C61.7369 87.187 62.0262 87.1767 62.3087 87.2243C62.5912 87.2719 62.8611 87.3764 63.102 87.5316C63.3492 87.6836 63.5631 87.8842 63.7307 88.1211C63.8983 88.358 64.0162 88.6264 64.0772 88.9102L65.2812 94.1416L71.9032 92.6245C72.1897 92.5552 72.4872 92.5445 72.778 92.5931C73.0687 92.6417 73.3465 92.7486 73.5948 92.9075C73.846 93.0519 74.0645 93.2468 74.2365 93.4799C74.4085 93.7131 74.5303 93.9793 74.5942 94.262C74.721 94.8442 74.615 95.4529 74.2989 95.958C73.9828 96.4631 73.4816 96.8245 72.9025 96.9649L57.7321 100.463L58.3943 103.533L73.5106 100.047C73.797 99.9778 74.0946 99.9671 74.3853 100.016C74.676 100.064 74.9539 100.171 75.2022 100.33C75.4574 100.472 75.68 100.666 75.8552 100.899C76.0306 101.132 76.1547 101.4 76.2196 101.685Z" fill="url(#paint2_linear_1797_29145)"/>
<g opacity="0.7">
<path d="M76.2196 101.684L77.9353 109.119C78.0081 109.403 78.0211 109.699 77.9734 109.988C77.9257 110.277 77.8184 110.553 77.6583 110.799C77.5028 111.049 77.2985 111.267 77.0576 111.437C76.8166 111.608 76.544 111.728 76.2557 111.792L69.718 113.303L70.922 118.534C70.9928 118.817 71.0037 119.111 70.9539 119.399C70.9042 119.686 70.7948 119.959 70.633 120.202C70.4775 120.449 70.2726 120.66 70.0312 120.824C69.7898 120.988 69.5171 121.1 69.2303 121.153C68.9431 121.225 68.6443 121.239 68.3517 121.193C68.0591 121.148 67.7785 121.044 67.5267 120.888C67.2758 120.74 67.0584 120.542 66.8884 120.306C66.7184 120.07 66.5996 119.8 66.5394 119.516L65.3354 114.224L58.8519 115.723C58.5725 115.79 58.2823 115.801 57.9988 115.753C57.7154 115.705 57.4444 115.601 57.2024 115.446C56.9508 115.298 56.7327 115.1 56.5617 114.864C56.3907 114.628 56.2706 114.359 56.2091 114.073C56.1406 113.792 56.1299 113.5 56.1775 113.214C56.2251 112.929 56.33 112.656 56.486 112.412C56.6348 112.163 56.8336 111.947 57.0698 111.778C57.306 111.609 57.5745 111.491 57.8586 111.431L73.029 107.933L72.3186 104.845L57.1903 108.33C56.9103 108.402 56.6186 108.416 56.3331 108.371C56.0475 108.327 55.7739 108.225 55.5288 108.072C55.2775 107.921 55.0605 107.719 54.8915 107.48C54.7226 107.24 54.6054 106.968 54.5476 106.681L52.8379 99.2763C52.7063 98.7071 52.8061 98.109 53.1155 97.6134C53.4248 97.1178 53.9182 96.7654 54.4874 96.6335L60.9408 95.1466L59.7368 89.9092C59.667 89.6323 59.6534 89.3441 59.6968 89.0619C59.7403 88.7796 59.8398 88.5089 59.9896 88.2657C60.1484 88.0023 60.3616 87.7759 60.6149 87.6015C60.8682 87.4271 61.1558 87.3087 61.4585 87.2544C61.7369 87.1867 62.0262 87.1763 62.3087 87.224C62.5912 87.2716 62.8611 87.3761 63.102 87.5313C63.3492 87.6833 63.5631 87.8838 63.7307 88.1208C63.8983 88.3577 64.0162 88.6261 64.0772 88.9099L65.2812 94.1412L71.9032 92.6242C72.1897 92.5548 72.4872 92.5442 72.778 92.5928C73.0687 92.6414 73.3465 92.7483 73.5948 92.9071C73.846 93.0515 74.0645 93.2465 74.2365 93.4796C74.4085 93.7128 74.5303 93.979 74.5942 94.2616C74.721 94.8439 74.615 95.4526 74.2989 95.9577C73.9828 96.4628 73.4816 96.8242 72.9025 96.9646L57.7321 100.462L58.3943 103.532L73.5106 100.047C73.797 99.9775 74.0946 99.9668 74.3853 100.015C74.676 100.064 74.9539 100.171 75.2022 100.33C75.4574 100.471 75.68 100.665 75.8552 100.899C76.0306 101.132 76.1547 101.4 76.2196 101.684Z" fill="white"/>
</g>
<path d="M134.969 78.2655C143.08 68.6664 141.875 54.3089 132.276 46.1971C122.677 38.0852 108.319 39.2909 100.207 48.8899C92.0955 58.489 93.3011 72.8465 102.9 80.9583C112.499 89.0702 126.857 87.8645 134.969 78.2655Z" fill="url(#paint3_linear_1797_29145)"/>
<path opacity="0.4" d="M134.969 78.2655C143.08 68.6664 141.875 54.3089 132.276 46.1971C122.677 38.0852 108.319 39.2909 100.207 48.8899C92.0955 58.489 93.3011 72.8465 102.9 80.9583C112.499 89.0702 126.857 87.8645 134.969 78.2655Z" fill="black"/>
<path opacity="0.2" d="M132.316 75.7349C139.039 67.6015 137.897 55.5574 129.763 48.8337C121.63 42.1099 109.586 43.2527 102.862 51.3861C96.1382 59.5195 97.2809 71.5636 105.414 78.2873C113.548 85.0111 125.592 83.8683 132.316 75.7349Z" fill="black"/>
<path d="M132.892 75.9344C139.043 67.8855 137.505 56.3737 129.456 50.2221C121.407 44.0705 109.896 45.6085 103.744 53.6574C97.5923 61.7063 99.1304 73.2181 107.179 79.3698C115.228 85.5214 126.74 83.9834 132.892 75.9344Z" fill="url(#paint4_linear_1797_29145)"/>
<path opacity="0.4" d="M132.892 75.9344C139.043 67.8855 137.505 56.3737 129.456 50.2221C121.407 44.0705 109.896 45.6085 103.744 53.6574C97.5923 61.7063 99.1304 73.2181 107.179 79.3698C115.228 85.5214 126.74 83.9834 132.892 75.9344Z" fill="black"/>
<path d="M125.109 65.4436L123.814 70.6088C123.767 70.8052 123.68 70.9896 123.558 71.1503C123.435 71.311 123.281 71.4443 123.104 71.5419C122.925 71.6505 122.727 71.7219 122.52 71.7519C122.313 71.7819 122.102 71.7699 121.9 71.7164L117.391 70.5787L116.476 74.1907C116.429 74.388 116.342 74.5735 116.22 74.7352C116.097 74.8969 115.943 75.0313 115.766 75.1298C115.595 75.2358 115.404 75.3059 115.206 75.3359C115.007 75.3659 114.804 75.3552 114.61 75.3044C114.409 75.2573 114.221 75.1708 114.054 75.0498C113.888 74.9289 113.747 74.776 113.64 74.6C113.532 74.4282 113.46 74.2358 113.429 74.0349C113.398 73.834 113.408 73.6288 113.46 73.4321L114.381 69.7599L109.866 68.6583C109.67 68.6115 109.486 68.5254 109.325 68.4054C109.163 68.2854 109.028 68.1338 108.927 67.96C108.818 67.7893 108.746 67.598 108.715 67.398C108.684 67.198 108.694 66.9937 108.746 66.7981C108.791 66.6002 108.876 66.4136 108.997 66.25C109.117 66.0863 109.269 65.9492 109.445 65.8469C109.618 65.7413 109.81 65.6719 110.011 65.6429C110.212 65.6139 110.416 65.626 110.612 65.6784L121.147 68.3212L121.689 66.178L111.184 63.5413C110.988 63.4972 110.802 63.413 110.639 63.2939C110.477 63.1747 110.34 63.0233 110.239 62.849C110.13 62.6773 110.059 62.4844 110.03 62.2831C110.001 62.0818 110.015 61.8766 110.071 61.6811L111.359 56.534C111.407 56.3378 111.494 56.1532 111.615 55.9908C111.735 55.8284 111.886 55.6915 112.06 55.5879C112.233 55.4843 112.426 55.4162 112.626 55.3874C112.826 55.3587 113.029 55.3698 113.225 55.4203L117.692 56.54L118.607 52.928C118.651 52.7241 118.737 52.5316 118.86 52.3626C118.982 52.1936 119.138 52.0518 119.318 51.946C119.497 51.8403 119.697 51.7729 119.904 51.7481C120.112 51.7234 120.322 51.7418 120.521 51.8023C120.715 51.8472 120.898 51.932 121.058 52.0511C121.217 52.1703 121.35 52.3213 121.448 52.4946C121.555 52.6662 121.625 52.8578 121.655 53.0575C121.685 53.2573 121.674 53.4611 121.623 53.6564L120.708 57.2684L125.283 58.4183C125.484 58.4662 125.673 58.5544 125.838 58.6776C126.004 58.8007 126.143 58.9562 126.246 59.1346C126.356 59.3038 126.43 59.4937 126.463 59.6925C126.496 59.8914 126.488 60.0949 126.439 60.2905C126.389 60.491 126.299 60.6795 126.175 60.8449C126.051 61.0103 125.895 61.1493 125.717 61.2537C125.539 61.3643 125.34 61.4374 125.133 61.4684C124.926 61.4995 124.715 61.4879 124.513 61.4343L113.972 58.7915L113.442 60.9226L123.941 63.5533C124.141 63.6013 124.33 63.6895 124.496 63.8126C124.661 63.9358 124.8 64.0913 124.904 64.2697C125.02 64.4394 125.098 64.632 125.133 64.8345C125.169 65.037 125.16 65.2447 125.109 65.4436Z" fill="url(#paint5_linear_1797_29145)"/>
<g opacity="0.7">
<path d="M125.109 65.4431L123.814 70.6083C123.767 70.8047 123.68 70.9891 123.558 71.1498C123.435 71.3105 123.281 71.4438 123.104 71.5414C122.925 71.65 122.727 71.7215 122.52 71.7515C122.313 71.7815 122.102 71.7694 121.9 71.716L117.391 70.5782L116.476 74.1902C116.429 74.3875 116.342 74.573 116.22 74.7347C116.097 74.8964 115.943 75.0308 115.766 75.1293C115.595 75.2353 115.404 75.3054 115.206 75.3354C115.007 75.3655 114.804 75.3547 114.61 75.3039C114.409 75.2568 114.221 75.1703 114.054 75.0493C113.888 74.9284 113.747 74.7755 113.64 74.5995C113.532 74.4277 113.46 74.2353 113.429 74.0344C113.398 73.8335 113.408 73.6283 113.46 73.4316L114.381 69.7595L109.866 68.6578C109.67 68.611 109.486 68.5249 109.325 68.4049C109.163 68.2849 109.028 68.1333 108.927 67.9595C108.818 67.7888 108.746 67.5975 108.715 67.3975C108.684 67.1975 108.694 66.9932 108.746 66.7976C108.791 66.5997 108.876 66.4131 108.997 66.2495C109.117 66.0859 109.269 65.9487 109.445 65.8464C109.618 65.7408 109.81 65.6714 110.011 65.6424C110.212 65.6134 110.416 65.6255 110.612 65.6779L121.147 68.3207L121.689 66.1776L111.184 63.5408C110.988 63.4968 110.802 63.4125 110.639 63.2934C110.477 63.1743 110.34 63.0228 110.239 62.8485C110.13 62.6768 110.059 62.4839 110.03 62.2826C110.001 62.0813 110.015 61.8761 110.071 61.6806L111.359 56.5335C111.407 56.3373 111.494 56.1527 111.615 55.9903C111.735 55.8279 111.886 55.691 112.06 55.5874C112.233 55.4839 112.426 55.4157 112.626 55.3869C112.826 55.3582 113.029 55.3693 113.225 55.4198L117.692 56.5395L118.607 52.9275C118.651 52.7236 118.737 52.5311 118.86 52.3621C118.982 52.1931 119.138 52.0513 119.318 51.9455C119.497 51.8398 119.697 51.7724 119.904 51.7477C120.112 51.7229 120.322 51.7414 120.521 51.8018C120.715 51.8467 120.898 51.9315 121.058 52.0506C121.217 52.1698 121.35 52.3208 121.448 52.4941C121.555 52.6657 121.625 52.8573 121.655 53.057C121.685 53.2568 121.674 53.4606 121.623 53.656L120.708 57.268L125.283 58.4178C125.484 58.4657 125.673 58.5539 125.838 58.6771C126.004 58.8002 126.143 58.9557 126.246 59.1341C126.356 59.3033 126.43 59.4932 126.463 59.692C126.496 59.8909 126.488 60.0944 126.439 60.29C126.389 60.4905 126.299 60.679 126.175 60.8444C126.051 61.0098 125.895 61.1488 125.717 61.2532C125.539 61.3638 125.34 61.4369 125.133 61.468C124.926 61.499 124.715 61.4874 124.513 61.4338L113.972 58.791L113.442 60.9221L123.941 63.5528C124.141 63.6008 124.33 63.689 124.496 63.8121C124.661 63.9353 124.8 64.0908 124.904 64.2692C125.02 64.4389 125.098 64.6315 125.133 64.834C125.169 65.0365 125.16 65.2442 125.109 65.4431Z" fill="white"/>
</g>
<path d="M62.1625 201.08H61.5605V207.877H62.1625V201.08Z" fill="url(#paint6_linear_1797_29145)"/>
<path opacity="0.1" d="M62.1625 201.08H61.5605V207.877H62.1625V201.08Z" fill="black"/>
<path d="M239.44 147.232H238.838V156.545H239.44V147.232Z" fill="url(#paint7_linear_1797_29145)"/>
<path d="M239.44 161.434H238.838V166.484H239.44V161.434Z" fill="url(#paint8_linear_1797_29145)"/>
<path opacity="0.1" d="M239.44 147.232H238.838V156.545H239.44V147.232Z" fill="black"/>
<path opacity="0.1" d="M239.44 161.434H238.838V166.484H239.44V161.434Z" fill="black"/>
<path d="M228.279 106.85H72.7281C67.7243 106.85 63.668 110.907 63.668 115.91V206.963C63.668 211.967 67.7243 216.023 72.7281 216.023H228.279C233.283 216.023 237.339 211.967 237.339 206.963V115.91C237.339 110.907 233.283 106.85 228.279 106.85Z" fill="url(#paint9_linear_1797_29145)"/>
<path opacity="0.2" d="M228.279 106.85H72.7281C67.7243 106.85 63.668 110.907 63.668 115.91V206.963C63.668 211.967 67.7243 216.023 72.7281 216.023H228.279C233.283 216.023 237.339 211.967 237.339 206.963V115.91C237.339 110.907 233.283 106.85 228.279 106.85Z" fill="black"/>
<path d="M209.226 144.867C212.207 144.867 215.066 143.683 217.173 141.575C219.281 139.467 220.465 136.609 220.465 133.628C220.465 130.647 219.281 127.788 217.173 125.68C215.066 123.572 212.207 122.388 209.226 122.388H194.718C191.737 122.388 188.878 123.572 186.77 125.68C184.663 127.788 183.479 130.647 183.479 133.628C183.479 136.609 184.663 139.467 186.77 141.575C188.878 143.683 191.737 144.867 194.718 144.867H209.226Z" fill="url(#paint10_linear_1797_29145)"/>
<path d="M111.213 144.861H84.442C82.2875 144.861 80.541 146.608 80.541 148.762V166.262C80.541 168.417 82.2875 170.163 84.442 170.163H111.213C113.367 170.163 115.114 168.417 115.114 166.262V148.762C115.114 146.608 113.367 144.861 111.213 144.861Z" fill="url(#paint11_linear_1797_29145)"/>
<path opacity="0.3" d="M111.213 144.861H84.442C82.2875 144.861 80.541 146.608 80.541 148.762V166.262C80.541 168.417 82.2875 170.163 84.442 170.163H111.213C113.367 170.163 115.114 168.417 115.114 166.262V148.762C115.114 146.608 113.367 144.861 111.213 144.861Z" fill="white"/>
<path d="M129.736 119.625H83.3042C81.7781 119.625 80.541 120.86 80.541 122.385C80.541 123.909 81.7781 125.145 83.3042 125.145H129.736C131.263 125.145 132.5 123.909 132.5 122.385C132.5 120.86 131.263 119.625 129.736 119.625Z" fill="url(#paint12_linear_1797_29145)"/>
<path opacity="0.3" d="M129.736 119.625H83.3042C81.7781 119.625 80.541 120.86 80.541 122.385C80.541 123.909 81.7781 125.145 83.3042 125.145H129.736C131.263 125.145 132.5 123.909 132.5 122.385C132.5 120.86 131.263 119.625 129.736 119.625Z" fill="white"/>
<path d="M105.476 182.719H84.5925C82.3549 182.719 80.541 184.533 80.541 186.771V190.557C80.541 192.795 82.3549 194.609 84.5925 194.609H105.476C107.713 194.609 109.527 192.795 109.527 190.557V186.771C109.527 184.533 107.713 182.719 105.476 182.719Z" fill="url(#paint13_linear_1797_29145)"/>
<path opacity="0.3" d="M105.476 182.719H84.5925C82.3549 182.719 80.541 184.533 80.541 186.771V190.557C80.541 192.795 82.3549 194.609 84.5925 194.609H105.476C107.713 194.609 109.527 192.795 109.527 190.557V186.771C109.527 184.533 107.713 182.719 105.476 182.719Z" fill="white"/>
<path d="M142.45 182.719H121.567C119.33 182.719 117.516 184.533 117.516 186.771V190.557C117.516 192.795 119.33 194.609 121.567 194.609H142.45C144.688 194.609 146.502 192.795 146.502 190.557V186.771C146.502 184.533 144.688 182.719 142.45 182.719Z" fill="url(#paint14_linear_1797_29145)"/>
<path opacity="0.3" d="M142.45 182.719H121.567C119.33 182.719 117.516 184.533 117.516 186.771V190.557C117.516 192.795 119.33 194.609 121.567 194.609H142.45C144.688 194.609 146.502 192.795 146.502 190.557V186.771C146.502 184.533 144.688 182.719 142.45 182.719Z" fill="white"/>
<path d="M179.433 182.719H158.549C156.312 182.719 154.498 184.533 154.498 186.771V190.557C154.498 192.795 156.312 194.609 158.549 194.609H179.433C181.67 194.609 183.484 192.795 183.484 190.557V186.771C183.484 184.533 181.67 182.719 179.433 182.719Z" fill="url(#paint15_linear_1797_29145)"/>
<path opacity="0.3" d="M179.433 182.719H158.549C156.312 182.719 154.498 184.533 154.498 186.771V190.557C154.498 192.795 156.312 194.609 158.549 194.609H179.433C181.67 194.609 183.484 192.795 183.484 190.557V186.771C183.484 184.533 181.67 182.719 179.433 182.719Z" fill="white"/>
<path d="M216.408 182.719H195.524C193.287 182.719 191.473 184.533 191.473 186.771V190.557C191.473 192.795 193.287 194.609 195.524 194.609H216.408C218.645 194.609 220.459 192.795 220.459 190.557V186.771C220.459 184.533 218.645 182.719 216.408 182.719Z" fill="url(#paint16_linear_1797_29145)"/>
<path opacity="0.3" d="M216.408 182.719H195.524C193.287 182.719 191.473 184.533 191.473 186.771V190.557C191.473 192.795 193.287 194.609 195.524 194.609H216.408C218.645 194.609 220.459 192.795 220.459 190.557V186.771C220.459 184.533 218.645 182.719 216.408 182.719Z" fill="white"/>
<path d="M176.386 67.3454C174.959 71.3728 173.376 75.2677 171.696 79.1627C169.996 83.1235 168.046 86.972 165.857 90.685C165.562 91.1605 165.255 91.6361 164.936 92.1117L164.701 92.4669L164.382 92.9063C164.165 93.1833 163.961 93.4241 163.78 93.6588C163.021 94.5044 162.218 95.3083 161.372 96.0668C159.765 97.5538 158.127 98.9023 156.472 100.233C153.149 102.869 149.753 105.338 146.238 107.679L144.137 105.073L152.986 96.3498C154.449 94.899 155.9 93.4361 157.254 91.9732C157.923 91.2448 158.573 90.4983 159.108 89.8121C159.241 89.6435 159.355 89.4749 159.458 89.3305L159.584 89.1258L159.759 88.8127C159.993 88.3974 160.24 87.994 160.469 87.5666C162.311 84.1051 163.937 80.3426 165.502 76.5259C167.067 72.7092 168.572 68.8625 170.017 65.0458L176.386 67.3454Z" fill="#E4897B"/>
<path d="M178.078 64.445C179.444 68.4423 171.414 80.1993 171.414 80.1993L163.744 75.9312C165.051 72.2627 166.595 68.6833 168.367 65.2156C171.052 60.1347 176.579 60.0564 178.078 64.445Z" fill="url(#paint17_linear_1797_29145)"/>
<path opacity="0.7" d="M178.078 64.445C179.444 68.4423 171.414 80.1993 171.414 80.1993L163.744 75.9312C165.051 72.2627 166.595 68.6833 168.367 65.2156C171.052 60.1347 176.579 60.0564 178.078 64.445Z" fill="white"/>
<path opacity="0.31" d="M178.192 64.9441C176.471 64.1194 174.49 64.8117 172.401 68.1106C170.312 71.4096 168.536 76.9179 168.344 78.4891L171.42 80.1928C171.42 80.1928 178.831 69.3327 178.192 64.9441Z" fill="url(#paint18_linear_1797_29145)"/>
<path d="M172.882 61.3874C172.882 61.3874 167.151 74.8662 171.281 99.9636H195.15C195.445 96.2974 193.76 78.424 197.895 61.1587C195.268 60.6471 192.609 60.3093 189.937 60.1473C186.559 59.9546 183.172 59.9546 179.793 60.1473C177.461 60.3841 175.151 60.7987 172.882 61.3874Z" fill="url(#paint19_linear_1797_29145)"/>
<path opacity="0.7" d="M172.882 61.3874C172.882 61.3874 167.151 74.8662 171.281 99.9636H195.15C195.445 96.2974 193.76 78.424 197.895 61.1587C195.268 60.6471 192.609 60.3093 189.937 60.1473C186.559 59.9546 183.172 59.9546 179.793 60.1473C177.461 60.3841 175.151 60.7987 172.882 61.3874Z" fill="white"/>
<path d="M203.602 206.89L200.068 210.057L193.332 203.049L196.872 199.883L203.602 206.89Z" fill="#E4897B"/>
<path d="M191.484 213.482H187.023L186.445 203.146H190.906L191.484 213.482Z" fill="#E4897B"/>
<path d="M193.338 203.049L196.805 206.661L200.345 203.495L196.878 199.883L193.338 203.049Z" fill="#CE6F64"/>
<path d="M190.906 203.151H186.445L186.746 208.479H191.207L190.906 203.151Z" fill="#CE6F64"/>
<path d="M171.282 99.9629C171.282 99.9629 166.58 132.507 164.979 150.218C163.691 164.431 194.423 206.806 194.423 206.806L200.364 201.213C200.364 201.213 177.922 163.221 179.65 147.4C181.323 132.08 186.994 99.9448 186.994 99.9448L171.282 99.9629Z" fill="url(#paint20_linear_1797_29145)"/>
<path opacity="0.7" d="M171.282 99.9629C171.282 99.9629 166.58 132.507 164.979 150.218C163.691 164.431 194.423 206.806 194.423 206.806L200.364 201.213C200.364 201.213 177.922 163.221 179.65 147.4C181.323 132.08 186.994 99.9448 186.994 99.9448L171.282 99.9629Z" fill="black"/>
<path opacity="0.2" d="M179.649 147.418C180.51 139.525 182.436 127.16 184.092 117.035C183.225 115.337 180.793 111.9 180.793 111.9C178.614 119.431 173.876 147.821 180.636 186.162C187.68 197.516 194.422 206.823 194.422 206.823L195.343 192.182C188.835 179.938 178.451 158.356 179.649 147.418Z" fill="black"/>
<path d="M179.771 99.9629C179.771 99.9629 179.349 134.066 180.072 146.847C180.86 160.837 184.833 207.191 184.833 207.191H193.009C193.009 207.191 192.762 161.969 193.243 148.123C193.779 133.073 195.164 99.9629 195.164 99.9629H179.771Z" fill="url(#paint21_linear_1797_29145)"/>
<path opacity="0.7" d="M179.771 99.9629C179.771 99.9629 179.349 134.066 180.072 146.847C180.86 160.837 184.833 207.191 184.833 207.191H193.009C193.009 207.191 192.762 161.969 193.243 148.123C193.779 133.073 195.164 99.9629 195.164 99.9629H179.771Z" fill="black"/>
<path d="M186.789 212.971H191.804C191.887 212.968 191.969 212.998 192.031 213.054C192.093 213.11 192.13 213.189 192.135 213.272L192.382 217.239C192.382 217.343 192.363 217.446 192.324 217.542C192.285 217.638 192.228 217.725 192.155 217.799C192.082 217.873 191.996 217.931 191.9 217.972C191.805 218.012 191.703 218.033 191.599 218.034C189.853 218.004 189.016 217.902 186.813 217.902C185.459 217.902 179.691 218.046 177.819 218.046C175.947 218.046 176.013 216.192 176.79 216.023C180.348 215.271 184.76 214.217 186.024 213.242C186.242 213.07 186.511 212.975 186.789 212.971Z" fill="#263238"/>
<path d="M199.095 208.793L203.393 205.897C203.463 205.841 203.55 205.811 203.64 205.811C203.729 205.811 203.816 205.841 203.886 205.897L207.173 209.214C207.238 209.287 207.285 209.373 207.312 209.466C207.339 209.56 207.345 209.658 207.331 209.753C207.316 209.849 207.28 209.941 207.226 210.021C207.171 210.102 207.1 210.17 207.017 210.219C204.272 212.332 202.291 213.928 200.726 215.686C198.92 217.738 197.945 218.033 193.731 218.033C191.78 218.033 190.679 216.39 191.473 216.137C198.493 213.916 196.614 212.947 198.324 209.69C198.502 209.331 198.767 209.023 199.095 208.793Z" fill="#263238"/>
<path d="M145.15 104.513L140.496 104.676L141.471 108.324C141.471 108.324 146.335 108.757 146.769 107.289L145.15 104.513Z" fill="#E4897B"/>
<path d="M135.475 106.849L138.737 108.751L141.471 108.324L140.495 104.676L135.475 106.849Z" fill="#E4897B"/>
<path opacity="0.31" d="M192.561 65.4206C192.068 68.262 192.724 75.0526 195.162 82.9147C195.353 76.1787 196.136 69.4726 197.504 62.8741V62.838C195.939 62.6815 193.037 62.7537 192.561 65.4206Z" fill="url(#paint22_linear_1797_29145)"/>
<path d="M189.329 48.7211C188.576 51.984 187.728 57.9679 189.931 60.1591C189.931 60.1591 188.98 62.8621 182.912 62.8621C176.241 62.8621 179.787 60.1591 179.787 60.1591C183.459 59.2923 183.459 56.5893 182.912 54.0549L189.329 48.7211Z" fill="#E4897B"/>
<path d="M182.743 62.8502L180.938 64.7706L181.822 66.6248L183.261 66.691L184.489 64.9211L182.743 62.8502Z" fill="url(#paint23_linear_1797_29145)"/>
<path d="M186.717 50.8937L182.918 54.0362C183.055 54.6297 183.139 55.234 183.171 55.8422C184.567 55.6435 186.53 54.1144 186.729 52.6576C186.835 52.0741 186.831 51.4758 186.717 50.8937Z" fill="#CE6F64"/>
<path d="M181.414 37.6559C179.132 38.4325 177.308 44.4826 179.969 46.0839C182.63 47.6852 185.748 36.181 181.414 37.6559Z" fill="#263238"/>
<path d="M190.756 45.3009C189.395 49.5149 188.817 52.0614 186.072 53.7891C185.187 54.3583 184.162 54.6745 183.11 54.7035C182.058 54.7326 181.018 54.4733 180.102 53.9538C179.186 53.4343 178.43 52.6744 177.915 51.7562C177.401 50.838 177.146 49.7965 177.181 48.7444C177.235 44.6929 179.45 38.4562 184.116 37.6736C185.121 37.4795 186.16 37.553 187.128 37.8866C188.097 38.2203 188.96 38.8025 189.633 39.5749C190.305 40.3473 190.763 41.2828 190.96 42.2877C191.157 43.2926 191.087 44.3317 190.756 45.3009Z" fill="#E4897B"/>
<path d="M194.128 38.2575C192.768 41.5444 195.934 38.7993 195.115 42.7002C194.586 45.2407 189.998 51.3269 188.229 50.773C186.459 50.2192 186.477 45.9029 188.734 42.8507C190.035 41.0989 187.223 39.1123 180.908 39.323C174.593 39.5337 170.777 35.9819 179.168 33.3752C179.168 33.3752 176.074 35.1812 177.91 35.7832C180.511 36.7525 196.855 31.6716 194.128 38.2575Z" fill="#263238"/>
<path d="M192.924 39.7615C192.858 39.7615 194.339 39.3943 195.127 36.7515C195.127 36.7937 194.868 40.6886 192.924 39.7615Z" fill="#263238"/>
<path d="M181.107 33.9598C177.224 35.1638 178.831 36.5183 180.439 36.8555L184.123 35.4107C178.524 36.1511 181.107 33.9598 181.107 33.9598Z" fill="#263238"/>
<path d="M191.503 50.4484C190.696 51.233 189.619 51.6789 188.493 51.6946C187.006 51.6946 186.687 50.2859 187.488 49.106C188.198 48.0464 189.824 46.7702 191.136 47.3421C192.448 47.914 192.49 49.4792 191.503 50.4484Z" fill="#E4897B"/>
<path d="M183.899 45.0663C183.808 45.4154 183.55 45.6683 183.297 45.6081C183.044 45.5479 182.954 45.2288 183.044 44.8797C183.134 44.5305 183.393 44.2777 183.646 44.3439C183.899 44.4101 183.989 44.7171 183.899 45.0663Z" fill="#263238"/>
<path d="M179.926 44.1942C179.836 44.5434 179.577 44.7962 179.324 44.736C179.071 44.6758 178.981 44.3628 179.071 44.0136C179.162 43.6645 179.414 43.4116 179.673 43.4718C179.932 43.532 179.998 43.8451 179.926 44.1942Z" fill="#263238"/>
<path d="M181.142 44.6453C180.458 45.62 179.648 46.5004 178.734 47.264C178.935 47.4874 179.183 47.6641 179.46 47.7816C179.736 47.8991 180.035 47.9547 180.336 47.9443L181.142 44.6453Z" fill="#DE5753"/>
<path d="M181.805 49.2139C181.556 49.2136 181.308 49.1853 181.065 49.1296C181.038 49.1225 181.015 49.1054 181.001 49.0819C180.986 49.0584 180.981 49.0303 180.987 49.0032C180.994 48.9765 181.011 48.9535 181.034 48.939C181.058 48.9244 181.086 48.9194 181.113 48.9249C181.556 49.0237 182.016 49.0208 182.458 48.9165C182.9 48.8123 183.313 48.6093 183.665 48.3229C183.686 48.3034 183.713 48.2925 183.741 48.2925C183.769 48.2925 183.796 48.3034 183.816 48.3229C183.835 48.3431 183.846 48.3701 183.846 48.3982C183.846 48.4263 183.835 48.4532 183.816 48.4734C183.257 48.9547 182.543 49.2176 181.805 49.2139Z" fill="#263238"/>
<path d="M185.477 44.0605C185.435 44.0612 185.395 44.0495 185.361 44.0269C185.326 44.0044 185.3 43.972 185.284 43.934C185.185 43.6925 185.029 43.4784 184.83 43.3097C184.631 43.141 184.395 43.0227 184.14 42.9648C184.112 42.9611 184.086 42.9519 184.061 42.9378C184.037 42.9236 184.016 42.9048 183.999 42.8824C183.982 42.8599 183.97 42.8344 183.963 42.8072C183.957 42.78 183.955 42.7517 183.959 42.724C183.968 42.6686 183.998 42.6188 184.043 42.5851C184.088 42.5514 184.145 42.5365 184.2 42.5434C184.525 42.6095 184.828 42.7537 185.084 42.9635C185.34 43.1733 185.541 43.4424 185.669 43.7474C185.681 43.7726 185.688 43.7999 185.689 43.8277C185.689 43.8556 185.685 43.8833 185.675 43.9092C185.664 43.9351 185.649 43.9587 185.63 43.9785C185.61 43.9983 185.587 44.0139 185.561 44.0243C185.536 44.0424 185.507 44.0547 185.477 44.0605Z" fill="#263238"/>
<path d="M178.585 42.4648C178.536 42.4644 178.49 42.4474 178.452 42.4167C178.409 42.3803 178.382 42.3285 178.376 42.2723C178.37 42.2161 178.387 42.1599 178.422 42.1157C178.634 41.8518 178.904 41.6402 179.211 41.4972C179.518 41.3542 179.854 41.2836 180.192 41.2909C180.22 41.2932 180.247 41.3009 180.271 41.3137C180.296 41.3264 180.318 41.3439 180.336 41.3652C180.354 41.3865 180.367 41.4111 180.376 41.4376C180.384 41.4641 180.387 41.492 180.385 41.5197C180.383 41.5477 180.376 41.5751 180.364 41.6002C180.351 41.6253 180.334 41.6476 180.312 41.6657C180.291 41.6837 180.266 41.6972 180.239 41.7052C180.212 41.7132 180.184 41.7157 180.156 41.7123C179.885 41.7095 179.617 41.7688 179.373 41.8857C179.129 42.0026 178.915 42.1739 178.747 42.3866C178.728 42.4112 178.703 42.431 178.675 42.4446C178.647 42.4581 178.616 42.4651 178.585 42.4648Z" fill="#263238"/>
<path d="M199.053 64.2346C199.522 64.963 199.914 65.6071 200.311 66.3054C200.708 67.0038 201.087 67.678 201.461 68.3763C202.195 69.7669 202.887 71.1877 203.519 72.6385C204.845 75.6086 205.841 78.7155 206.487 81.9033L206.548 82.2103L206.578 82.3608L206.62 82.6136C206.671 82.9503 206.697 83.2904 206.698 83.631C206.692 84.2013 206.632 84.7698 206.517 85.3286C206.314 86.2504 206.019 87.1497 205.639 88.0136C204.963 89.5272 204.157 90.9794 203.231 92.354C201.479 94.9678 199.488 97.4125 197.283 99.6562L194.664 97.5553C196.121 95.0148 197.572 92.3781 198.788 89.7955C199.386 88.5604 199.897 87.285 200.317 85.9788C200.489 85.434 200.606 84.8733 200.666 84.3052C200.687 84.1192 200.687 83.9314 200.666 83.7454C200.666 83.6912 200.666 83.643 200.63 83.637C200.594 83.631 200.63 83.637 200.63 83.6069L200.594 83.4865L200.522 83.2397C200.141 81.9118 199.689 80.6056 199.167 79.3267C198.637 78.0204 198.047 76.72 197.427 75.4257C196.807 74.1314 196.139 72.8552 195.453 71.579C195.116 70.9408 194.76 70.3087 194.405 69.6827L193.346 67.8767L199.053 64.2346Z" fill="#E4897B"/>
<path d="M185.213 213.74C184.912 213.77 184.611 213.686 184.37 213.505C184.302 213.43 184.254 213.338 184.231 213.239C184.208 213.14 184.21 213.037 184.237 212.939C184.251 212.873 184.28 212.812 184.323 212.76C184.366 212.709 184.422 212.669 184.484 212.644C185.032 212.428 186.29 213.294 186.435 213.391C186.452 213.402 186.466 213.418 186.474 213.438C186.481 213.457 186.482 213.479 186.477 213.499C186.474 213.519 186.464 213.538 186.451 213.553C186.437 213.568 186.418 213.579 186.398 213.583C186.01 213.677 185.612 213.729 185.213 213.74ZM184.689 212.819C184.647 212.812 184.604 212.812 184.562 212.819C184.532 212.83 184.505 212.849 184.485 212.875C184.464 212.9 184.452 212.931 184.448 212.963C184.426 213.026 184.421 213.094 184.434 213.16C184.447 213.225 184.476 213.286 184.52 213.337C184.725 213.541 185.309 213.565 186.109 213.409C185.684 213.114 185.199 212.914 184.689 212.825V212.819Z" fill="white"/>
<path d="M186.373 213.591H186.319C185.873 213.326 185.211 212.387 185.313 211.905C185.331 211.817 185.378 211.737 185.447 211.679C185.516 211.621 185.603 211.588 185.693 211.586C185.772 211.576 185.853 211.583 185.929 211.608C186.005 211.633 186.074 211.675 186.132 211.731C186.584 212.17 186.481 213.452 186.481 213.506C186.479 213.524 186.472 213.542 186.462 213.556C186.451 213.571 186.437 213.583 186.421 213.591H186.373ZM185.771 211.785H185.723C185.572 211.785 185.536 211.875 185.524 211.935C185.458 212.254 185.897 212.959 186.283 213.284C186.338 212.795 186.237 212.302 185.994 211.875C185.963 211.846 185.928 211.822 185.888 211.807C185.849 211.791 185.807 211.784 185.765 211.785H185.771Z" fill="white"/>
<path d="M196.204 211.212C196.093 211.216 195.982 211.195 195.879 211.152C195.8 211.12 195.729 211.07 195.674 211.005C195.618 210.94 195.579 210.862 195.56 210.779C195.545 210.728 195.543 210.674 195.554 210.623C195.566 210.571 195.591 210.523 195.626 210.484C196.03 209.996 198.143 210.141 198.383 210.159C198.406 210.16 198.427 210.168 198.445 210.182C198.462 210.196 198.474 210.215 198.48 210.237C198.484 210.259 198.482 210.281 198.474 210.302C198.465 210.322 198.45 210.34 198.432 210.352C197.759 210.795 197 211.088 196.204 211.212ZM197.48 210.333C196.74 210.333 195.963 210.406 195.789 210.616C195.779 210.633 195.773 210.651 195.773 210.671C195.773 210.69 195.779 210.709 195.789 210.725C195.799 210.777 195.822 210.826 195.855 210.867C195.889 210.908 195.932 210.94 195.981 210.96C196.319 211.098 197.077 210.869 198.034 210.358L197.48 210.333Z" fill="white"/>
<path d="M198.377 210.37C197.775 210.37 196.421 209.906 196.318 209.425C196.318 209.304 196.318 209.136 196.607 208.997C197.643 208.51 198.443 210.147 198.48 210.201C198.487 210.218 198.491 210.237 198.491 210.255C198.491 210.274 198.487 210.292 198.48 210.31C198.47 210.328 198.455 210.343 198.437 210.354C198.419 210.365 198.398 210.37 198.377 210.37ZM196.987 209.124C196.884 209.122 196.783 209.145 196.692 209.19C196.565 209.25 196.505 209.316 196.517 209.376C196.577 209.659 197.552 210.057 198.191 210.141C197.998 209.816 197.534 209.124 196.987 209.124Z" fill="white"/>
<path d="M195.854 96.5782L191.436 95.8016L193.717 100.949C193.717 100.949 197.769 100.949 197.588 98.8297L195.854 96.5782Z" fill="#E4897B"/>
<path d="M188.096 98.3842L190.185 102.544L193.694 100.943L191.413 95.8016L188.096 98.3842Z" fill="#E4897B"/>
<path d="M200.725 200.888L194.061 207.167L191.912 204.861L199.539 197.914L200.725 200.888Z" fill="url(#paint24_linear_1797_29145)"/>
<path opacity="0.6" d="M200.725 200.888L194.061 207.167L191.912 204.861L199.539 197.914L200.725 200.888Z" fill="white"/>
<path d="M193.333 207.19H184.501L184.014 204.09L193.76 204.572L193.333 207.19Z" fill="url(#paint25_linear_1797_29145)"/>
<path opacity="0.6" d="M193.333 207.19H184.501L184.014 204.09L193.76 204.572L193.333 207.19Z" fill="white"/>
<path d="M197.896 61.1576C202.11 61.7596 206.426 76.4003 206.426 76.4003L197.396 81.4089C197.396 81.4089 193.73 74.4498 191.978 69.2846C190.142 63.8727 193.387 60.4954 197.896 61.1576Z" fill="url(#paint26_linear_1797_29145)"/>
<path opacity="0.7" d="M197.896 61.1576C202.11 61.7596 206.426 76.4003 206.426 76.4003L197.396 81.4089C197.396 81.4089 193.73 74.4498 191.978 69.2846C190.142 63.8727 193.387 60.4954 197.896 61.1576Z" fill="white"/>
<path opacity="0.2" d="M182.743 62.8502L180.938 64.7706L181.822 66.6248L183.261 66.691L184.489 64.9211L182.743 62.8502Z" fill="black"/>
<path d="M181.978 66.2922C181.978 66.2922 178.553 80.4813 178.421 83.4311C178.234 87.4886 179.932 94.4176 179.932 94.4176C179.932 94.4176 182.34 88.6565 182.833 83.3047C183.327 77.9529 182.96 69.2962 183.182 66.2922H181.978Z" fill="url(#paint27_linear_1797_29145)"/>
<path opacity="0.2" d="M181.978 66.2922C181.978 66.2922 178.553 80.4813 178.421 83.4311C178.234 87.4886 179.932 94.4176 179.932 94.4176C179.932 94.4176 182.34 88.6565 182.833 83.3047C183.327 77.9529 182.96 69.2962 183.182 66.2922H181.978Z" fill="black"/>
<path d="M182.744 62.8488C183.43 63.9593 183.827 65.2238 183.9 66.5271C183.9 66.5271 191.413 63.8783 191.058 59.9954C191.058 59.9954 189.992 59.3633 189.318 58.8516C189.318 58.8516 189.065 61.2957 182.744 62.8488Z" fill="url(#paint28_linear_1797_29145)"/>
<path opacity="0.6" d="M182.744 62.8488C183.43 63.9593 183.827 65.2238 183.9 66.5271C183.9 66.5271 191.413 63.8783 191.058 59.9954C191.058 59.9954 189.992 59.3633 189.318 58.8516C189.318 58.8516 189.065 61.2957 182.744 62.8488Z" fill="white"/>
<path d="M182.744 62.849C182.053 63.9003 181.556 65.0664 181.275 66.2925C181.275 66.2925 177.874 63.9928 178.897 60.1581C179.52 59.9069 180.162 59.7056 180.817 59.5561C180.817 59.5561 180.372 62.0363 182.744 62.849Z" fill="url(#paint29_linear_1797_29145)"/>
<path opacity="0.6" d="M182.744 62.849C182.053 63.9003 181.556 65.0664 181.275 66.2925C181.275 66.2925 177.874 63.9928 178.897 60.1581C179.52 59.9069 180.162 59.7056 180.817 59.5561C180.817 59.5561 180.372 62.0363 182.744 62.849Z" fill="white"/>
</g>
<defs>
<linearGradient id="paint0_linear_1797_29145" x1="19.4045" y1="104.073" x2="65.8876" y2="63.9367" gradientUnits="userSpaceOnUse">
<stop stop-color="#2E7D32"/>
<stop offset="1" stop-color="#66BB6A"/>
</linearGradient>
<linearGradient id="paint1_linear_1797_29145" x1="39.2968" y1="129.281" x2="46.3708" y2="80.1596" gradientUnits="userSpaceOnUse">
<stop stop-color="#2E7D32"/>
<stop offset="1" stop-color="#66BB6A"/>
</linearGradient>
<linearGradient id="paint2_linear_1797_29145" x1="52.8476" y1="87.1949" x2="76.5937" y2="88.4846" gradientUnits="userSpaceOnUse">
<stop stop-color="#2E7D32"/>
<stop offset="1" stop-color="#66BB6A"/>
</linearGradient>
<linearGradient id="paint3_linear_1797_29145" x1="85.5968" y1="66.1791" x2="115.581" y2="35.5502" gradientUnits="userSpaceOnUse">
<stop stop-color="#2E7D32"/>
<stop offset="1" stop-color="#66BB6A"/>
</linearGradient>
<linearGradient id="paint4_linear_1797_29145" x1="92.6641" y1="68.1546" x2="115.594" y2="42.3098" gradientUnits="userSpaceOnUse">
<stop stop-color="#2E7D32"/>
<stop offset="1" stop-color="#66BB6A"/>
</linearGradient>
<linearGradient id="paint5_linear_1797_29145" x1="108.744" y1="51.7375" x2="125.488" y2="52.6615" gradientUnits="userSpaceOnUse">
<stop stop-color="#2E7D32"/>
<stop offset="1" stop-color="#66BB6A"/>
</linearGradient>
<linearGradient id="paint6_linear_1797_29145" x1="61.5621" y1="201.08" x2="62.1306" y2="201.084" gradientUnits="userSpaceOnUse">
<stop stop-color="#2E7D32"/>
<stop offset="1" stop-color="#66BB6A"/>
</linearGradient>
<linearGradient id="paint7_linear_1797_29145" x1="238.839" y1="147.232" x2="239.408" y2="147.235" gradientUnits="userSpaceOnUse">
<stop stop-color="#2E7D32"/>
<stop offset="1" stop-color="#66BB6A"/>
</linearGradient>
<linearGradient id="paint8_linear_1797_29145" x1="238.839" y1="161.434" x2="239.408" y2="161.439" gradientUnits="userSpaceOnUse">
<stop stop-color="#2E7D32"/>
<stop offset="1" stop-color="#66BB6A"/>
</linearGradient>
<linearGradient id="paint9_linear_1797_29145" x1="64.125" y1="106.85" x2="225.928" y2="125.71" gradientUnits="userSpaceOnUse">
<stop stop-color="#2E7D32"/>
<stop offset="1" stop-color="#66BB6A"/>
</linearGradient>
<linearGradient id="paint10_linear_1797_29145" x1="183.576" y1="122.388" x2="218.003" y2="126.539" gradientUnits="userSpaceOnUse">
<stop stop-color="#2E7D32"/>
<stop offset="1" stop-color="#66BB6A"/>
</linearGradient>
<linearGradient id="paint11_linear_1797_29145" x1="80.632" y1="144.861" x2="112.956" y2="148.097" gradientUnits="userSpaceOnUse">
<stop stop-color="#2E7D32"/>
<stop offset="1" stop-color="#66BB6A"/>
</linearGradient>
<linearGradient id="paint12_linear_1797_29145" x1="80.6777" y1="119.625" x2="113.929" y2="142.556" gradientUnits="userSpaceOnUse">
<stop stop-color="#2E7D32"/>
<stop offset="1" stop-color="#66BB6A"/>
</linearGradient>
<linearGradient id="paint13_linear_1797_29145" x1="80.6173" y1="182.719" x2="107.143" y2="187.458" gradientUnits="userSpaceOnUse">
<stop stop-color="#2E7D32"/>
<stop offset="1" stop-color="#66BB6A"/>
</linearGradient>
<linearGradient id="paint14_linear_1797_29145" x1="117.592" y1="182.719" x2="144.118" y2="187.458" gradientUnits="userSpaceOnUse">
<stop stop-color="#2E7D32"/>
<stop offset="1" stop-color="#66BB6A"/>
</linearGradient>
<linearGradient id="paint15_linear_1797_29145" x1="154.574" y1="182.719" x2="181.1" y2="187.458" gradientUnits="userSpaceOnUse">
<stop stop-color="#2E7D32"/>
<stop offset="1" stop-color="#66BB6A"/>
</linearGradient>
<linearGradient id="paint16_linear_1797_29145" x1="191.549" y1="182.719" x2="218.075" y2="187.458" gradientUnits="userSpaceOnUse">
<stop stop-color="#2E7D32"/>
<stop offset="1" stop-color="#66BB6A"/>
</linearGradient>
<linearGradient id="paint17_linear_1797_29145" x1="163.782" y1="61.2721" x2="177.423" y2="62.0372" gradientUnits="userSpaceOnUse">
<stop stop-color="#2E7D32"/>
<stop offset="1" stop-color="#66BB6A"/>
</linearGradient>
<linearGradient id="paint18_linear_1797_29145" x1="168.37" y1="64.627" x2="177.687" y2="65.0607" gradientUnits="userSpaceOnUse">
<stop stop-color="#2E7D32"/>
<stop offset="1" stop-color="#66BB6A"/>
</linearGradient>
<linearGradient id="paint19_linear_1797_29145" x1="169.859" y1="60.0027" x2="196.334" y2="61.3673" gradientUnits="userSpaceOnUse">
<stop stop-color="#2E7D32"/>
<stop offset="1" stop-color="#66BB6A"/>
</linearGradient>
<linearGradient id="paint20_linear_1797_29145" x1="165.033" y1="99.9448" x2="198.466" y2="100.757" gradientUnits="userSpaceOnUse">
<stop stop-color="#2E7D32"/>
<stop offset="1" stop-color="#66BB6A"/>
</linearGradient>
<linearGradient id="paint21_linear_1797_29145" x1="179.689" y1="99.9629" x2="194.339" y2="100.118" gradientUnits="userSpaceOnUse">
<stop stop-color="#2E7D32"/>
<stop offset="1" stop-color="#66BB6A"/>
</linearGradient>
<linearGradient id="paint22_linear_1797_29145" x1="192.422" y1="62.7895" x2="197.232" y2="62.8787" gradientUnits="userSpaceOnUse">
<stop stop-color="#2E7D32"/>
<stop offset="1" stop-color="#66BB6A"/>
</linearGradient>
<linearGradient id="paint23_linear_1797_29145" x1="180.947" y1="62.8502" x2="184.286" y2="63.0764" gradientUnits="userSpaceOnUse">
<stop stop-color="#2E7D32"/>
<stop offset="1" stop-color="#66BB6A"/>
</linearGradient>
<linearGradient id="paint24_linear_1797_29145" x1="191.935" y1="197.914" x2="200.218" y2="198.492" gradientUnits="userSpaceOnUse">
<stop stop-color="#2E7D32"/>
<stop offset="1" stop-color="#66BB6A"/>
</linearGradient>
<linearGradient id="paint25_linear_1797_29145" x1="184.039" y1="204.09" x2="192.779" y2="206.103" gradientUnits="userSpaceOnUse">
<stop stop-color="#2E7D32"/>
<stop offset="1" stop-color="#66BB6A"/>
</linearGradient>
<linearGradient id="paint26_linear_1797_29145" x1="191.494" y1="61.0751" x2="205.591" y2="61.8355" gradientUnits="userSpaceOnUse">
<stop stop-color="#2E7D32"/>
<stop offset="1" stop-color="#66BB6A"/>
</linearGradient>
<linearGradient id="paint27_linear_1797_29145" x1="178.419" y1="66.2922" x2="182.928" y2="66.3483" gradientUnits="userSpaceOnUse">
<stop stop-color="#2E7D32"/>
<stop offset="1" stop-color="#66BB6A"/>
</linearGradient>
<linearGradient id="paint28_linear_1797_29145" x1="182.766" y1="58.8516" x2="190.579" y2="59.4725" gradientUnits="userSpaceOnUse">
<stop stop-color="#2E7D32"/>
<stop offset="1" stop-color="#66BB6A"/>
</linearGradient>
<linearGradient id="paint29_linear_1797_29145" x1="178.716" y1="59.5561" x2="182.522" y2="59.7233" gradientUnits="userSpaceOnUse">
<stop stop-color="#2E7D32"/>
<stop offset="1" stop-color="#66BB6A"/>
</linearGradient>
<clipPath id="clip0_1797_29145">
<rect width="301" height="224.311" fill="white"/>
</clipPath>
</defs>
</svg>
